<svg width="121" height="17" viewBox="0 0 121 17" fill="none" xmlns="http://www.w3.org/2000/svg">
<path d="M0 10.5C0 6.91015 2.91015 4 6.5 4H108.651C114.919 4 120 9.08121 120 15.3492C120 16.2609 119.261 17 118.349 17H6.5C2.91015 17 0 14.0899 0 10.5Z" fill="#FCD924"/>
<path d="M5.624 3.576H2.216L2.616 1.64H11.624L11.208 3.576H7.816L5.816 13H3.608L5.624 3.576ZM11.5558 4.616H13.5238L13.1398 6.408C13.5451 5.832 13.9984 5.37867 14.4998 5.048C15.0118 4.70667 15.5131 4.536 16.0038 4.536C16.1104 4.536 16.1904 4.54133 16.2438 4.552C16.3078 4.552 16.3558 4.55733 16.3878 4.568L15.9878 6.472C15.3798 6.472 14.8038 6.6 14.2598 6.856C13.7264 7.10133 13.3051 7.45867 12.9958 7.928L11.9238 13H9.77975L11.5558 4.616ZM19.5565 13.16C18.7458 13.16 18.0792 13 17.5565 12.68C17.0445 12.36 16.6658 11.9333 16.4205 11.4C16.1752 10.856 16.0525 10.2587 16.0525 9.608C16.0525 8.92533 16.1752 8.27467 16.4205 7.656C16.6765 7.03733 17.0338 6.488 17.4925 6.008C17.9512 5.528 18.4898 5.15467 19.1085 4.888C19.7378 4.61067 20.4258 4.472 21.1725 4.472C21.9832 4.472 22.6445 4.632 23.1565 4.952C23.6792 5.272 24.0632 5.69867 24.3085 6.232C24.5538 6.76533 24.6765 7.36267 24.6765 8.024C24.6765 8.70667 24.5485 9.35733 24.2925 9.976C24.0472 10.5947 23.6952 11.144 23.2365 11.624C22.7778 12.104 22.2338 12.4827 21.6045 12.76C20.9858 13.0267 20.3032 13.16 19.5565 13.16ZM19.8765 11.336C20.2072 11.336 20.5272 11.2613 20.8365 11.112C21.1458 10.9627 21.4178 10.7493 21.6525 10.472C21.8978 10.1947 22.0898 9.86933 22.2285 9.496C22.3778 9.12267 22.4525 8.71733 22.4525 8.28C22.4525 7.88533 22.3885 7.53867 22.2605 7.24C22.1432 6.94133 21.9618 6.712 21.7165 6.552C21.4818 6.38133 21.1938 6.296 20.8525 6.296C20.5218 6.296 20.2018 6.37067 19.8925 6.52C19.5938 6.66933 19.3218 6.88267 19.0765 7.16C18.8312 7.43733 18.6338 7.768 18.4845 8.152C18.3458 8.52533 18.2765 8.93067 18.2765 9.368C18.2765 9.752 18.3352 10.0933 18.4525 10.392C18.5805 10.6907 18.7618 10.9253 18.9965 11.096C19.2418 11.256 19.5352 11.336 19.8765 11.336ZM28.8515 13.16C28.1048 13.16 27.4755 13 26.9635 12.68C26.4515 12.36 26.0675 11.9333 25.8115 11.4C25.5555 10.856 25.4275 10.264 25.4275 9.624C25.4275 8.96267 25.5555 8.32267 25.8115 7.704C26.0675 7.08533 26.4248 6.536 26.8835 6.056C27.3528 5.56533 27.9075 5.18133 28.5475 4.904C29.1875 4.616 29.8915 4.472 30.6595 4.472C31.5555 4.472 32.2648 4.66933 32.7875 5.064C33.3208 5.45867 33.6728 5.976 33.8435 6.616L31.6355 7.256C31.5288 6.94667 31.3582 6.712 31.1235 6.552C30.8888 6.38133 30.6062 6.296 30.2755 6.296C29.9448 6.296 29.6195 6.376 29.2995 6.536C28.9902 6.68533 28.7075 6.904 28.4515 7.192C28.2062 7.46933 28.0088 7.79467 27.8595 8.168C27.7208 8.54133 27.6515 8.94133 27.6515 9.368C27.6515 9.752 27.7155 10.0933 27.8435 10.392C27.9715 10.6907 28.1528 10.9253 28.3875 11.096C28.6222 11.256 28.8942 11.336 29.2035 11.336C29.4382 11.336 29.6675 11.2933 29.8915 11.208C30.1262 11.1227 30.3395 11.0053 30.5315 10.856C30.7235 10.7067 30.8782 10.536 30.9955 10.344L32.9475 10.984C32.6702 11.4 32.3235 11.7733 31.9075 12.104C31.4915 12.4347 31.0222 12.696 30.4995 12.888C29.9875 13.0693 29.4382 13.16 28.8515 13.16ZM40.8566 13.16C40.238 13.16 39.7046 13.0107 39.2566 12.712C38.8193 12.4027 38.478 11.992 38.2326 11.48C37.998 10.9573 37.8806 10.3707 37.8806 9.72C37.8806 9.02667 38.0033 8.36533 38.2486 7.736C38.494 7.10667 38.83 6.54667 39.2566 6.056C39.694 5.56533 40.1846 5.18133 40.7286 4.904C41.2833 4.616 41.8646 4.472 42.4726 4.472C43.0486 4.472 43.5393 4.62667 43.9446 4.936C44.35 5.23467 44.6273 5.61867 44.7766 6.088L45.8006 1.32H47.9446L45.9926 10.536C45.982 10.5893 45.9713 10.6427 45.9606 10.696C45.95 10.7387 45.9446 10.7813 45.9446 10.824C45.9446 11.048 46.0726 11.1653 46.3286 11.176L45.9446 13C45.7526 13.032 45.582 13.0587 45.4326 13.08C45.294 13.1013 45.1713 13.112 45.0646 13.112C44.6913 13.112 44.3926 13.0373 44.1686 12.888C43.9553 12.728 43.8486 12.4987 43.8486 12.2C43.8486 12.1467 43.854 12.088 43.8646 12.024C43.8753 11.96 43.886 11.8907 43.8966 11.816C43.9073 11.7307 43.9233 11.64 43.9446 11.544C43.5393 12.0667 43.0593 12.4667 42.5046 12.744C41.95 13.0213 41.4006 13.16 40.8566 13.16ZM41.8166 11.336C41.998 11.336 42.19 11.304 42.3926 11.24C42.5953 11.1653 42.7926 11.0693 42.9846 10.952C43.1873 10.824 43.374 10.6747 43.5446 10.504C43.7153 10.3227 43.8593 10.1307 43.9766 9.928L44.3926 7.928C44.3606 7.61867 44.2646 7.34133 44.1046 7.096C43.9446 6.85067 43.7473 6.65867 43.5126 6.52C43.278 6.37067 43.0273 6.296 42.7606 6.296C42.4193 6.296 42.0886 6.38667 41.7686 6.568C41.4593 6.73867 41.182 6.97333 40.9366 7.272C40.6913 7.56 40.494 7.89067 40.3446 8.264C40.206 8.62667 40.1366 9 40.1366 9.384C40.1366 9.74667 40.206 10.0773 40.3446 10.376C40.4833 10.6747 40.6753 10.9093 40.9206 11.08C41.1766 11.2507 41.4753 11.336 41.8166 11.336ZM51.2738 13.16C50.5698 13.16 49.9564 13.0107 49.4338 12.712C48.9218 12.4027 48.5271 11.9813 48.2498 11.448C47.9831 10.904 47.8498 10.2907 47.8498 9.608C47.8498 8.91467 47.9831 8.25867 48.2498 7.64C48.5164 7.02133 48.8898 6.47733 49.3698 6.008C49.8498 5.528 50.4098 5.15467 51.0498 4.888C51.6898 4.61067 52.3831 4.472 53.1298 4.472C53.7378 4.472 54.2658 4.56267 54.7138 4.744C55.1618 4.92533 55.5084 5.192 55.7538 5.544C55.9991 5.88533 56.1218 6.30667 56.1218 6.808C56.1218 7.69333 55.7164 8.36533 54.9058 8.824C54.1058 9.28267 52.9004 9.512 51.2898 9.512C50.9698 9.512 50.6231 9.50667 50.2498 9.496C49.8764 9.47467 49.4711 9.44267 49.0338 9.4L49.3058 8.056C49.6898 8.088 50.0418 8.11467 50.3618 8.136C50.6818 8.14667 50.9964 8.152 51.3058 8.152C51.9991 8.152 52.5431 8.104 52.9378 8.008C53.3431 7.912 53.6364 7.77333 53.8178 7.592C53.9991 7.41067 54.0898 7.19733 54.0898 6.952C54.0898 6.73867 54.0364 6.568 53.9298 6.44C53.8231 6.30133 53.6738 6.2 53.4818 6.136C53.3004 6.06133 53.0818 6.024 52.8258 6.024C52.4098 6.024 52.0258 6.12533 51.6738 6.328C51.3324 6.52 51.0338 6.78667 50.7778 7.128C50.5218 7.46933 50.3244 7.85867 50.1858 8.296C50.0471 8.73333 49.9778 9.19733 49.9778 9.688C49.9778 10.0507 50.0364 10.3813 50.1538 10.68C50.2818 10.968 50.4684 11.192 50.7138 11.352C50.9591 11.512 51.2738 11.592 51.6578 11.592C52.0844 11.592 52.4844 11.4907 52.8578 11.288C53.2418 11.0853 53.5458 10.8027 53.7698 10.44L55.4658 10.968C55.1884 11.3947 54.8258 11.7733 54.3778 12.104C53.9298 12.4347 53.4391 12.696 52.9058 12.888C52.3724 13.0693 51.8284 13.16 51.2738 13.16ZM59.3823 13.16C58.6996 13.16 58.0543 13.048 57.4463 12.824C56.8489 12.6 56.3689 12.28 56.0062 11.864L57.0783 10.52C57.4836 10.872 57.8996 11.144 58.3263 11.336C58.7529 11.5173 59.1849 11.608 59.6223 11.608C59.9209 11.608 60.1769 11.5653 60.3903 11.48C60.6036 11.384 60.7689 11.2613 60.8863 11.112C61.0036 10.952 61.0623 10.7707 61.0623 10.568C61.0623 10.3013 60.9449 10.104 60.7103 9.976C60.4756 9.848 60.1076 9.70933 59.6063 9.56C59.0516 9.37867 58.5929 9.208 58.2303 9.048C57.8783 8.87733 57.6169 8.68 57.4463 8.456C57.2756 8.22133 57.1903 7.928 57.1903 7.576C57.1903 6.97867 57.3556 6.44533 57.6863 5.976C58.0276 5.50667 58.4809 5.13867 59.0463 4.872C59.6223 4.59467 60.2623 4.456 60.9663 4.456C61.5743 4.456 62.1183 4.552 62.5983 4.744C63.0783 4.92533 63.5049 5.21333 63.8783 5.608L62.7423 6.904C62.4009 6.584 62.0703 6.35467 61.7503 6.216C61.4409 6.06667 61.0996 5.992 60.7263 5.992C60.4489 5.992 60.1983 6.03467 59.9743 6.12C59.7609 6.19467 59.5903 6.312 59.4623 6.472C59.3343 6.632 59.2703 6.824 59.2703 7.048C59.2703 7.29333 59.3663 7.47467 59.5583 7.592C59.7609 7.69867 60.1076 7.82667 60.5983 7.976C61.1956 8.14667 61.6863 8.328 62.0703 8.52C62.4543 8.70133 62.7423 8.92 62.9343 9.176C63.1263 9.432 63.2223 9.75733 63.2223 10.152C63.2223 10.7387 63.0623 11.256 62.7423 11.704C62.4223 12.152 61.9743 12.5093 61.3983 12.776C60.8223 13.032 60.1503 13.16 59.3823 13.16ZM72.0303 3.576H68.6223L69.0223 1.64H78.0303L77.6143 3.576H74.2223L72.2223 13H70.0143L72.0303 3.576ZM77.962 4.616H79.93L79.546 6.408C79.9513 5.832 80.4047 5.37867 80.906 5.048C81.418 4.70667 81.9193 4.536 82.41 4.536C82.5167 4.536 82.5967 4.54133 82.65 4.552C82.714 4.552 82.762 4.55733 82.794 4.568L82.394 6.472C81.786 6.472 81.21 6.6 80.666 6.856C80.1327 7.10133 79.7113 7.45867 79.402 7.928L78.33 13H76.186L77.962 4.616ZM85.4504 13.16C84.8317 13.16 84.2984 13.0107 83.8504 12.712C83.413 12.4027 83.0717 11.992 82.8264 11.48C82.5917 10.9573 82.4744 10.3707 82.4744 9.72C82.4744 9.02667 82.597 8.36533 82.8424 7.736C83.0877 7.10667 83.4237 6.54667 83.8504 6.056C84.2877 5.56533 84.7784 5.18133 85.3224 4.904C85.877 4.616 86.4584 4.472 87.0664 4.472C87.6424 4.472 88.133 4.62667 88.5384 4.936C88.9437 5.23467 89.221 5.61867 89.3704 6.088L89.6904 4.648H91.8344L90.5864 10.536C90.5757 10.5893 90.565 10.6427 90.5544 10.696C90.5437 10.7387 90.5384 10.7813 90.5384 10.824C90.5384 11.048 90.6664 11.1653 90.9224 11.176L90.5384 13C90.3464 13.032 90.1757 13.0587 90.0264 13.08C89.8877 13.1013 89.765 13.112 89.6584 13.112C89.2744 13.112 88.9757 13.032 88.7624 12.872C88.549 12.712 88.4424 12.472 88.4424 12.152C88.4424 12.1093 88.4477 12.0613 88.4584 12.008C88.469 11.944 88.4797 11.8747 88.4904 11.8C88.501 11.7147 88.517 11.6293 88.5384 11.544C88.133 12.0667 87.653 12.4667 87.0984 12.744C86.5437 13.0213 85.9944 13.16 85.4504 13.16ZM86.4104 11.336C86.5917 11.336 86.7837 11.304 86.9864 11.24C87.189 11.1653 87.3864 11.0693 87.5784 10.952C87.781 10.824 87.9677 10.6747 88.1384 10.504C88.309 10.3227 88.453 10.1307 88.5704 9.928L88.9864 7.928C88.9544 7.61867 88.8584 7.34133 88.6984 7.096C88.5384 6.85067 88.341 6.65867 88.1064 6.52C87.8717 6.37067 87.621 6.296 87.3544 6.296C87.013 6.296 86.6824 6.38667 86.3624 6.568C86.053 6.73867 85.7757 6.97333 85.5304 7.272C85.285 7.56 85.0877 7.89067 84.9384 8.264C84.7997 8.62667 84.7304 9 84.7304 9.384C84.7304 9.74667 84.7997 10.0773 84.9384 10.376C85.077 10.6747 85.269 10.9093 85.5144 11.08C85.7704 11.2507 86.069 11.336 86.4104 11.336ZM93.9308 4.616H96.0748L94.2988 13H92.1547L93.9308 4.616ZM94.6348 1.32H96.7788L96.3307 3.448H94.1868L94.6348 1.32ZM97.9776 4.616H99.9136L99.5776 6.168C99.855 5.80533 100.175 5.50133 100.538 5.256C100.911 5 101.311 4.808 101.738 4.68C102.175 4.54133 102.623 4.472 103.082 4.472C103.572 4.472 103.951 4.55733 104.218 4.728C104.484 4.89867 104.671 5.13333 104.778 5.432C104.895 5.72 104.954 6.04533 104.954 6.408C104.954 6.632 104.938 6.856 104.906 7.08C104.874 7.304 104.836 7.53333 104.794 7.768L103.69 13H101.546L102.538 8.296C102.58 8.136 102.607 7.98667 102.618 7.848C102.639 7.70933 102.65 7.576 102.65 7.448C102.65 7.07467 102.564 6.80267 102.394 6.632C102.234 6.45067 102.015 6.36 101.738 6.36C101.482 6.36 101.204 6.43467 100.906 6.584C100.607 6.73333 100.324 6.94133 100.058 7.208C99.791 7.464 99.567 7.76267 99.3856 8.104L98.3456 13H96.2016L97.9776 4.616ZM108.554 13.16C107.871 13.16 107.226 13.048 106.618 12.824C106.021 12.6 105.541 12.28 105.178 11.864L106.25 10.52C106.655 10.872 107.071 11.144 107.498 11.336C107.925 11.5173 108.357 11.608 108.794 11.608C109.093 11.608 109.349 11.5653 109.562 11.48C109.775 11.384 109.941 11.2613 110.058 11.112C110.175 10.952 110.234 10.7707 110.234 10.568C110.234 10.3013 110.117 10.104 109.882 9.976C109.647 9.848 109.279 9.70933 108.778 9.56C108.223 9.37867 107.765 9.208 107.402 9.048C107.05 8.87733 106.789 8.68 106.618 8.456C106.447 8.22133 106.362 7.928 106.362 7.576C106.362 6.97867 106.527 6.44533 106.858 5.976C107.199 5.50667 107.653 5.13867 108.218 4.872C108.794 4.59467 109.434 4.456 110.138 4.456C110.746 4.456 111.29 4.552 111.77 4.744C112.25 4.92533 112.677 5.21333 113.05 5.608L111.914 6.904C111.573 6.584 111.242 6.35467 110.922 6.216C110.613 6.06667 110.271 5.992 109.898 5.992C109.621 5.992 109.37 6.03467 109.146 6.12C108.933 6.19467 108.762 6.312 108.634 6.472C108.506 6.632 108.442 6.824 108.442 7.048C108.442 7.29333 108.538 7.47467 108.73 7.592C108.933 7.69867 109.279 7.82667 109.77 7.976C110.367 8.14667 110.858 8.328 111.242 8.52C111.626 8.70133 111.914 8.92 112.106 9.176C112.298 9.432 112.394 9.75733 112.394 10.152C112.394 10.7387 112.234 11.256 111.914 11.704C111.594 12.152 111.146 12.5093 110.57 12.776C109.994 13.032 109.322 13.16 108.554 13.16Z" fill="black"/>
<path d="M113 8.8C113 8.35817 113.358 8 113.8 8C115.567 8 117 9.43269 117 11.2C117 11.6418 116.642 12 116.2 12H115C113.895 12 113 11.1046 113 10V8.8Z" fill="white" fill-opacity="0.8"/>
</svg>
