<svg width="72" height="120" viewBox="0 0 72 120" fill="none" xmlns="http://www.w3.org/2000/svg">
<path d="M55.0568 100.744L52.027 98.3606L56.4523 92.6591L60.9188 96.0964L60.6677 96.4669C59.5357 98.1136 54.7892 104.733 53.6695 105.523C52.3851 106.45 55.0568 100.744 55.0568 100.744Z" fill="#FCD924"/>
<path d="M53.2702 105.47C53.2167 105.429 54.8427 103.272 56.901 100.654C58.9593 98.0354 60.6718 95.9483 60.7254 95.9894C60.7789 96.0306 59.1528 98.1877 57.0945 100.806C55.0362 103.424 53.3237 105.511 53.2702 105.47Z" fill="#263238"/>
<path d="M55.5962 101.345C55.5962 101.411 55.3862 101.436 55.1557 101.436C54.9252 101.436 54.7235 101.403 54.7152 101.337C54.707 101.271 54.9005 101.185 55.1557 101.189C55.4109 101.193 55.5962 101.279 55.5962 101.345Z" fill="#263238"/>
<path d="M55.5097 101.864C55.4891 101.93 55.2709 101.926 55.0157 101.888C54.7604 101.851 54.5464 101.802 54.5464 101.736C54.5464 101.67 54.7728 101.609 55.0486 101.646C55.3244 101.683 55.5303 101.798 55.5097 101.864Z" fill="#263238"/>
<path d="M59.3587 97.6813C59.3257 97.6813 59.2557 97.562 59.1734 97.3397C59.0626 97.0422 59.0081 96.7267 59.0129 96.4093C59.0181 96.0776 59.1373 95.7579 59.3504 95.5037C59.5192 95.3143 59.6756 95.269 59.6921 95.2978C59.7086 95.3267 59.6015 95.4213 59.4904 95.6066C59.345 95.857 59.2657 96.1404 59.2599 96.4299C59.2594 96.7241 59.287 97.0177 59.3422 97.3067C59.3792 97.5249 59.3916 97.6731 59.3587 97.6813Z" fill="#263238"/>
<path d="M55.0116 100.913C54.9869 100.851 55.1104 100.74 55.2709 100.637C55.4315 100.534 55.5879 100.468 55.6332 100.518C55.6785 100.567 55.5879 100.728 55.4068 100.847C55.2256 100.966 55.0363 100.979 55.0116 100.913Z" fill="#263238"/>
<path d="M54.7729 100.596C54.7235 100.546 54.8017 100.361 54.9458 100.184C55.0899 100.007 55.2586 99.8837 55.3163 99.9249C55.3739 99.966 55.2916 100.147 55.1393 100.337C54.9869 100.526 54.8387 100.641 54.7729 100.596Z" fill="#263238"/>
<path d="M34.9844 51.7566C34.9844 51.7566 25.9279 75.7728 27.1628 80.2599C28.3978 84.747 52.7598 102.564 52.7598 102.564L59.3752 93.0378C59.3752 93.0378 40.3648 77.9917 40.303 77.1642C40.2413 76.3368 47.8529 56.3795 47.8529 56.3795L34.9844 51.7566Z" fill="#263238"/>
<path d="M52.3399 95.2402L52.2535 95.1949C52.1917 95.1496 52.1135 95.1002 52.0147 95.0384L51.109 94.4168C50.331 93.8693 49.2031 93.0707 47.8158 92.058C45.0741 90.0327 41.3486 87.1428 37.3967 83.759C36.4087 82.911 35.4495 82.0753 34.5151 81.2643L33.1689 80.0582C32.7093 79.6889 32.3166 79.2433 32.0081 78.7408C31.754 78.2232 31.6941 77.6316 31.8393 77.0736C31.9422 76.5426 32.078 76.0445 32.2056 75.5546C32.465 74.5872 32.7243 73.6898 32.959 72.8706L34.0869 68.9969C34.2104 68.5523 34.3092 68.1982 34.3833 67.9389L34.4574 67.6631C34.4458 67.6601 34.4356 67.6529 34.4289 67.643C34.4221 67.633 34.4192 67.621 34.4208 67.609C34.4223 67.5971 34.4281 67.5861 34.4371 67.5782C34.4461 67.5702 34.4577 67.5659 34.4698 67.5659C34.4818 67.5659 34.4934 67.5702 34.5024 67.5782C34.5115 67.5861 34.5173 67.5971 34.5188 67.609C34.5203 67.621 34.5174 67.633 34.5107 67.643C34.5039 67.6529 34.4938 67.6601 34.4821 67.6631C34.4821 67.7372 34.4492 67.8319 34.4245 67.943C34.371 68.1859 34.2886 68.5482 34.1693 69.0092C33.9346 69.9354 33.5682 71.2651 33.1113 72.9076C32.8849 73.7309 32.6338 74.6243 32.3827 75.5958C32.2592 76.0774 32.1274 76.5837 32.0286 77.0983C31.8971 77.6143 31.954 78.1602 32.1892 78.6379C32.4879 79.1174 32.8666 79.5421 33.3089 79.8935L34.6591 81.0914C35.5771 81.9147 36.5363 82.7381 37.5408 83.582C41.4886 86.9617 45.1935 89.868 47.9104 91.9222L51.1461 94.3386L52.027 94.9932L52.2535 95.1661C52.3029 95.2155 52.344 95.2402 52.3399 95.2402Z" fill="#455A64"/>
<path d="M50.1335 98.1424C50.0841 98.1053 51.3397 96.3723 52.9369 94.2728C54.5341 92.1733 55.872 90.4979 55.9214 90.5349C55.9708 90.572 54.7111 92.3051 53.1139 94.4086C51.5167 96.5122 50.1829 98.1794 50.1335 98.1424Z" fill="#455A64"/>
<path d="M50.9486 6.0871C51.7719 7.7008 52.1836 9.10044 53.7808 9.932C54.5012 10.3107 55.3822 10.5248 55.8391 11.2081C56.3125 11.9574 56.0902 13.04 56.6871 13.6781C57.5599 14.629 59.3382 13.8592 60.3139 14.6949C61.1866 15.4441 60.9066 17.0496 61.8493 17.7082C62.3763 18.0829 63.0843 18.0005 63.7018 18.2311C64.6898 18.6139 65.1591 19.7542 65.2867 20.8039C65.4219 21.6466 65.3148 22.5103 64.978 23.2945C64.8053 23.6833 64.5376 24.0225 64.1995 24.2808C63.8614 24.539 63.4637 24.7081 63.0432 24.7723C61.9193 24.8917 60.6514 24.1178 59.7499 24.7723C59.4572 25.0444 59.2025 25.3545 58.9924 25.6944C58.7092 26.0546 58.3428 26.3405 57.9246 26.5276C57.5065 26.7148 57.0491 26.7975 56.5919 26.7688C56.1346 26.74 55.6912 26.6006 55.2998 26.3626C54.9084 26.1245 54.5806 25.7949 54.3448 25.4022C53.7191 24.3565 53.7602 22.9322 52.8422 22.1089C52.3208 21.7441 51.7379 21.4764 51.1215 21.3185C50.5246 21.0962 49.9071 20.7257 49.7301 20.1165C49.5255 19.577 49.2334 19.0749 48.8656 18.6304C48.4087 17.947 47.7994 18.7827 47.1901 18.4451C46.5809 18.1076 46.8155 17.4489 46.7785 16.7573" fill="#263238"/>
<path d="M40.2989 29.4199L32.4773 26.8059C32.4773 26.8059 29.0235 36.7516 27.9491 36.8504C22.0871 37.3856 15.8134 35.4384 13.6151 34.6727C13.3887 34.4216 13.1335 34.1211 12.8494 33.7506C12.6074 33.433 12.4208 33.0767 12.2978 32.6968C12.128 32.2303 12.0227 31.7427 11.9849 31.2477C11.9935 31.1527 11.9724 31.0574 11.9246 30.9749C11.8768 30.8924 11.8045 30.8268 11.7178 30.7871C11.6312 30.7473 11.5343 30.7355 11.4406 30.7531C11.3468 30.7707 11.2609 30.817 11.1946 30.8855C10.9434 31.2148 10.8776 32.4703 11.4539 33.8247C12.0302 35.1791 9.98427 34.1005 9.23093 33.7218C8.47759 33.3431 6.09408 32.281 5.79357 32.4209C5.3531 32.6268 5.49307 33.1331 6.25464 33.4954C7.01621 33.8576 9.2227 35.0967 9.0004 35.4837C8.77811 35.8707 4.97849 33.8864 4.97849 33.8864C4.97849 33.8864 4.22927 33.3348 3.96169 33.7753C3.48005 34.5698 7.66663 36.3729 8.07829 36.5334C8.36233 36.6487 8.14003 37.0768 7.84364 36.9451C7.54725 36.8134 4.13871 34.8786 3.62825 35.7019C3.24129 36.3194 7.06972 37.2209 7.56371 38.0154C8.05771 38.8099 4.73149 37.0398 4.38981 37.6449C4.2622 37.8672 4.19634 38.0566 6.25464 38.7975C7.76286 39.2682 9.29502 39.6585 10.8446 39.9667V39.9872C10.8446 39.9872 31.4029 49.1837 35.8406 40.3207C40.5376 30.8937 40.2989 29.4199 40.2989 29.4199Z" fill="#E5BAAB"/>
<path d="M48.0256 21.1827L51.4383 21.2444L54.147 29.0124L51.9405 37.9125C51.2942 40.5101 54.2252 45.7135 54.147 48.5827L35.013 51.6825L34.6014 38.9005V38.4888L27.9778 35.1956L30.1637 29.844C33.527 21.9648 39.4013 21.4873 39.4013 21.4873L48.0256 21.1827Z" fill="#FCD924"/>
<g opacity="0.2">
<path opacity="0.2" d="M48.0256 21.1827L51.4383 21.2444L54.147 29.0124L51.9405 37.9125C51.2942 40.5101 54.2252 45.7135 54.147 48.5827L35.013 51.6825L34.6014 38.9005V38.4888L27.9778 35.1956L30.1637 29.844C33.527 21.9648 39.4013 21.4873 39.4013 21.4873L48.0256 21.1827Z" fill="white"/>
</g>
<path d="M51.5783 21.265C51.5783 21.265 51.5412 21.265 51.4671 21.3103C51.3578 21.3479 51.2465 21.3795 51.1337 21.405C50.6962 21.4852 50.2529 21.5292 49.8082 21.5367L49.8493 21.4585L51.1543 23.5785L51.2449 23.7185L51.0761 23.6897C50.3202 23.5595 49.5499 23.5345 48.7872 23.6156L48.8655 23.5168C48.8946 24.3867 49.0189 25.2508 49.2359 26.0938L49.2936 26.2667L49.1125 26.2255C48.2432 26.0404 47.4046 25.7327 46.6219 25.3116L46.7825 25.2416C46.626 26.0073 46.4655 26.8101 46.3008 27.6293L46.2638 27.8063L46.1238 27.6951C45.778 27.4205 45.4495 27.1249 45.1399 26.81C44.8336 26.5041 44.5463 26.1796 44.2796 25.8385L44.436 25.8591L42.246 27.584L42.1101 27.691L42.0731 27.5222C41.9166 26.7607 41.7685 26.0197 41.6244 25.3116L41.7561 25.3857L39.4138 26.209L39.2532 26.2667L39.2985 26.102C39.5455 25.1675 39.7719 24.3195 39.9777 23.5662L40.0354 23.6567L38.0018 23.3068H37.9194L37.9647 23.2368L38.8539 21.936L39.0927 21.6026C39.1462 21.5285 39.1791 21.4914 39.1832 21.4955C39.1642 21.5382 39.1422 21.5795 39.1174 21.619L38.9033 21.9648L38.0594 23.2945L38.0223 23.2121L40.0601 23.5209H40.1424V23.6032L39.492 26.1473L39.3767 26.0361L41.7067 25.2128L41.8178 25.1716L41.8425 25.2869L42.3036 27.4975L42.1307 27.4358L44.3166 25.7027L44.4031 25.6327L44.4731 25.7192C44.7321 26.0437 45.0097 26.353 45.3046 26.6454C45.6082 26.9537 45.9299 27.2438 46.2679 27.514L46.095 27.5799C46.2597 26.7565 46.4243 25.9579 46.5808 25.1922L46.6096 25.044L46.7413 25.1222C47.5047 25.5339 48.3224 25.836 49.1701 26.0197L49.0507 26.1473C48.8342 25.2907 48.7155 24.4124 48.6967 23.5291V23.4386H48.7872C49.5675 23.3599 50.3551 23.3946 51.1255 23.5415L51.0473 23.6567C50.5492 22.8334 50.1251 22.0924 49.7793 21.512L49.7382 21.4379H49.8205C50.2624 21.4425 50.704 21.415 51.1419 21.3556C51.4219 21.2938 51.5783 21.2568 51.5783 21.265Z" fill="#455A64"/>
<path d="M55.3574 24.5294C55.3574 24.5294 55.2256 24.4677 54.9457 24.3895C54.5507 24.2793 54.134 24.2722 53.7354 24.3689L53.7684 24.3236C53.8466 24.7764 53.9701 25.3198 54.1389 25.9414C54.3076 26.563 54.5135 27.267 54.6987 28.0615L54.7275 28.1767L54.6082 28.1438C53.6325 27.8598 52.484 27.6457 51.2778 27.2381L51.389 27.1476C51.5166 28.3208 51.5084 29.6175 51.5783 31.0172V31.1366H51.4548C50.3552 30.9457 49.2741 30.6606 48.2233 30.2844C48.0916 30.2474 47.9393 30.1939 47.9022 30.2515C47.8195 30.3505 47.7578 30.4654 47.7211 30.5891L47.3794 31.4124C47.153 31.9681 46.9184 32.5321 46.6837 33.1002L46.6137 33.2731L46.4985 33.129L44.3084 30.412L44.1438 30.2103H44.292L40.7764 32.6309L40.6611 32.7091L40.6117 32.5774C40.2001 31.433 39.8296 30.3297 39.4591 29.2594L39.6155 29.3129C38.3855 30.112 37.0713 30.7733 35.6965 31.2848L35.5524 31.3424V31.186C35.8035 29.4035 36.03 27.8021 36.2234 26.4189L36.3264 26.4972C35.3256 26.8915 34.2512 27.0643 33.1772 27.0035H33.1072L33.1319 26.9376L33.8688 24.9534C33.9552 24.7435 34.017 24.5747 34.0664 24.4471C34.0867 24.3884 34.1129 24.3318 34.1446 24.2783C34.1337 24.3387 34.1171 24.398 34.0952 24.4553C34.0499 24.5871 33.9923 24.7558 33.9223 24.974C33.7576 25.4433 33.5106 26.1143 33.2266 26.9747L33.1813 26.9047C34.2371 26.9471 35.2898 26.7633 36.2687 26.3654L36.3881 26.316V26.4436C36.2029 27.8309 35.9764 29.4282 35.7541 31.2148L35.6265 31.116C36.9838 30.6004 38.2813 29.9393 39.4961 29.1441L39.6073 29.0741L39.6526 29.1976L40.8134 32.4909L40.6488 32.4415L44.1685 30.0168L44.2549 29.9592L44.3167 30.0374L44.4813 30.2391L46.6672 32.9602L46.482 32.9849L47.1818 31.2971L47.5235 30.4738C47.573 30.3184 47.6591 30.1772 47.7746 30.0621C47.8163 30.0251 47.8677 30.0009 47.9228 29.9921C47.9693 29.9875 48.0162 29.9875 48.0628 29.9921C48.1395 30.0078 48.2151 30.0285 48.2892 30.0539C49.3297 30.4277 50.3996 30.7141 51.4878 30.9101L51.3725 31.0131C51.3108 29.6217 51.3231 28.3167 51.2078 27.1517V27.0158L51.3355 27.0611C52.5293 27.4728 53.6696 27.6992 54.6534 27.9956L54.5629 28.0779C54.39 27.2917 54.1883 26.5877 54.0318 25.9579C53.8754 25.328 53.7601 24.7847 53.6902 24.3112V24.2742H53.7272C54.1366 24.1821 54.5632 24.202 54.9622 24.3318C55.1022 24.3796 55.2351 24.4461 55.3574 24.5294Z" fill="#455A64"/>
<path d="M34.7085 38.3776C34.5581 38.3332 34.4181 38.259 34.2969 38.1595C33.9462 37.9158 33.6457 37.607 33.4118 37.2497C33.0642 36.7068 32.9064 36.064 32.9631 35.4219C32.99 34.7222 33.1975 34.0413 33.5653 33.4455C33.9332 32.8497 34.449 32.3592 35.0625 32.0216L35.0049 32.104C35.1613 30.9307 35.3054 29.9222 35.4166 29.2223C35.4583 28.8403 35.5284 28.4619 35.6265 28.0903C35.6294 28.4761 35.6019 28.8615 35.5442 29.2429C35.4742 29.9592 35.3548 30.9719 35.2107 32.1492V32.1986L35.1572 32.2275C34.5832 32.5562 34.1005 33.0233 33.7533 33.5863C33.406 34.1493 33.2051 34.7902 33.1689 35.4507C33.1072 36.054 33.2399 36.6613 33.5476 37.1838C33.7672 37.5373 34.0456 37.8506 34.371 38.1101C34.4882 38.1931 34.6009 38.2824 34.7085 38.3776Z" fill="#455A64"/>
<path d="M35.4248 29.7534C35.3713 29.7822 35.182 29.5064 35.0132 29.1441C34.8444 28.7819 34.7332 28.4649 34.7909 28.4361C34.8485 28.4073 35.0338 28.6831 35.2025 29.0495C35.3713 29.4158 35.4866 29.7287 35.4248 29.7534Z" fill="#455A64"/>
<path d="M47.7953 21.2938L48.3839 7.84489L43.0324 3.79828L38.1789 6.16944C38.1789 6.16944 38.0142 12.2661 38.1789 14.9131C38.3436 17.5601 41.007 17.8359 41.007 17.8359C41.007 17.8359 40.9453 19.3878 40.8835 21.0139C40.8651 21.481 40.9418 21.947 41.1089 22.3835C41.2761 22.8201 41.5303 23.2181 41.856 23.5534C42.1817 23.8888 42.5721 24.1544 43.0036 24.3342C43.4351 24.514 43.8987 24.6043 44.3661 24.5994C45.2528 24.5939 46.1033 24.2476 46.7416 23.6323C47.38 23.0169 47.7572 22.1796 47.7953 21.2938Z" fill="#E5BAAB"/>
<path d="M38.718 10.6154C38.7172 10.6833 38.7367 10.7499 38.7739 10.8067C38.8111 10.8635 38.8645 10.908 38.9271 10.9343C38.9896 10.9607 39.0587 10.9678 39.1254 10.9548C39.192 10.9417 39.2533 10.9091 39.3013 10.8611C39.3493 10.813 39.382 10.7518 39.395 10.6851C39.4081 10.6184 39.4009 10.5494 39.3746 10.4868C39.3482 10.4242 39.3038 10.3709 39.247 10.3337C39.1901 10.2964 39.1235 10.277 39.0556 10.2778C38.9661 10.2778 38.8802 10.3134 38.8169 10.3767C38.7536 10.44 38.718 10.5258 38.718 10.6154Z" fill="#263238"/>
<path d="M38.3888 10.2449C38.43 10.2902 38.6811 10.0761 39.0434 10.0555C39.4056 10.0349 39.6814 10.2119 39.7226 10.1625C39.7638 10.1131 39.6938 10.0637 39.5744 9.98141C39.4133 9.87676 39.223 9.82631 39.0312 9.83742C38.8394 9.84852 38.6561 9.92061 38.5082 10.0432C38.4012 10.142 38.3641 10.2284 38.3888 10.2449Z" fill="#263238"/>
<path d="M42.6371 10.6153C42.6371 10.6821 42.6569 10.7474 42.694 10.8029C42.7311 10.8584 42.7838 10.9016 42.8455 10.9272C42.9072 10.9527 42.975 10.9594 43.0405 10.9464C43.106 10.9334 43.1661 10.9012 43.2133 10.854C43.2606 10.8068 43.2927 10.7467 43.3057 10.6812C43.3188 10.6157 43.3121 10.5478 43.2865 10.4862C43.261 10.4245 43.2177 10.3717 43.1622 10.3347C43.1067 10.2976 43.0414 10.2778 42.9746 10.2778C42.8851 10.2778 42.7993 10.3133 42.736 10.3766C42.6726 10.4399 42.6371 10.5258 42.6371 10.6153Z" fill="#263238"/>
<path d="M42.423 10.2449C42.4641 10.2902 42.7153 10.0761 43.0816 10.0555C43.448 10.0349 43.7156 10.2119 43.7567 10.1625C43.7979 10.1131 43.7279 10.0637 43.6086 9.98141C43.4474 9.87676 43.2571 9.82631 43.0653 9.83742C42.8735 9.84852 42.6903 9.92061 42.5424 10.0432C42.423 10.142 42.423 10.2284 42.423 10.2449Z" fill="#263238"/>
<path d="M42.316 13.6657C41.7605 13.9513 41.1673 14.1565 40.5541 14.275C40.6885 14.458 40.8801 14.5909 41.0985 14.6528C41.317 14.7146 41.5498 14.7019 41.7602 14.6167C41.8607 14.5934 41.9553 14.5498 42.0384 14.4887C42.1214 14.4275 42.191 14.35 42.2431 14.261C42.2951 14.172 42.3284 14.0732 42.341 13.9709C42.3535 13.8685 42.345 13.7647 42.316 13.6657Z" fill="white"/>
<path d="M41.011 17.8359C42.2676 17.7846 43.4832 17.3746 44.5142 16.6544C44.5142 16.6544 43.7197 18.5974 41.0686 18.4863L41.011 17.8359Z" fill="#D78776"/>
<path d="M56.0778 15.4441C55.7444 15.4569 55.4136 15.3817 55.1186 15.2259C54.6824 14.9925 54.3202 14.6417 54.073 14.2132C53.7655 13.6778 53.5039 13.1173 53.2908 12.5378C52.7968 11.3028 52.4263 10.1707 52.1711 9.33918C52.1341 9.20745 52.097 9.08807 52.0641 8.97281C52.0311 8.85754 52.0188 8.70523 51.9941 8.61055C50.5492 3.09842 45.7163 2.06928 44.7448 2.06928C43.7197 2.06928 41.9208 1.5053 39.2985 4.22637C38.9028 4.63502 38.5673 5.09799 38.3023 5.60132C37.7229 6.32848 37.3225 7.18157 37.1332 8.09185C37.0169 8.51981 36.9958 8.96806 37.0714 9.40505C37.1208 9.40505 37.1291 8.90282 37.3349 8.13713C37.4584 7.68664 37.6296 7.25058 37.8454 6.83629C37.616 7.85487 37.7095 8.91958 38.1129 9.88257L39.0515 9.62322L42.4189 8.47881C42.1143 7.4332 42.563 6.14059 42.8305 5.53545L42.8552 5.51486C43.0447 6.61402 43.578 7.62473 44.3784 8.40148C45.1788 9.17823 46.2051 9.68096 47.3094 9.83729L47.931 18.4821C52.4058 17.5271 52.3028 11.5374 52.274 10.3189C52.4798 11.0064 52.7433 11.7927 53.0726 12.6201C53.293 13.2128 53.5686 13.7834 53.896 14.3244C54.1747 14.7795 54.5794 15.1441 55.061 15.3741C55.3854 15.5269 55.7479 15.5799 56.1025 15.5264C56.2339 15.5144 56.3594 15.466 56.4647 15.3865C56.4647 15.3865 56.3124 15.4276 56.0778 15.4441Z" fill="#263238"/>
<path d="M41.1098 13.3241C40.9164 13.2731 40.717 13.2482 40.517 13.25C40.4223 13.25 40.3317 13.2294 40.3112 13.1635C40.2998 13.0616 40.3184 12.9586 40.3647 12.8671L40.6117 12.1138C40.7887 11.5745 40.9369 11.0846 41.0233 10.7306C41.0913 10.5417 41.1369 10.3456 41.1592 10.1461C41.0579 10.3192 40.9791 10.5046 40.9245 10.6977C40.801 11.0476 40.6364 11.521 40.4594 12.0685C40.377 12.332 40.2988 12.5872 40.2206 12.826C40.1677 12.945 40.1561 13.0783 40.1877 13.2047C40.2006 13.2373 40.2212 13.2662 40.2477 13.2892C40.2742 13.3121 40.3059 13.3283 40.34 13.3364C40.3932 13.3438 40.4473 13.3438 40.5005 13.3364C40.7033 13.3577 40.908 13.3536 41.1098 13.3241Z" fill="#263238"/>
<path d="M48.6637 13.2129C48.6222 12.7727 48.6712 12.3285 48.8078 11.908C48.878 11.6981 49.0033 11.511 49.1706 11.3662C49.3379 11.2213 49.541 11.1241 49.7588 11.0846C50.0124 11.0741 50.2611 11.1566 50.4582 11.3165C50.6553 11.4765 50.7872 11.7029 50.8291 11.9532C50.8593 12.2059 50.8136 12.4618 50.6978 12.6884C50.5819 12.915 50.4012 13.1019 50.1786 13.2253C49.9529 13.3434 49.7033 13.4085 49.4486 13.4157C49.1939 13.4228 48.941 13.3718 48.709 13.2664" fill="#E5BAAB"/>
<path d="M49.4211 12.826C49.4211 12.7971 49.5652 12.863 49.7546 12.8054C49.8731 12.7667 49.9765 12.6919 50.0503 12.5915C50.1241 12.4911 50.1647 12.3701 50.1662 12.2455C50.1758 12.1832 50.1723 12.1195 50.156 12.0586C50.1397 11.9977 50.1109 11.9408 50.0716 11.8915C49.9899 11.8274 49.8869 11.7965 49.7834 11.805C49.5858 11.8256 49.4458 11.875 49.4335 11.8421C49.4211 11.8092 49.5241 11.7186 49.7587 11.6527C49.8345 11.6323 49.914 11.6294 49.991 11.6444C50.0681 11.6594 50.1407 11.6918 50.2033 11.7392C50.2725 11.805 50.3251 11.8864 50.3566 11.9766C50.3881 12.0668 50.3976 12.1632 50.3844 12.2579C50.375 12.4399 50.3055 12.6136 50.1868 12.7519C50.09 12.8688 49.9509 12.9427 49.7999 12.9577C49.5323 12.9865 49.4211 12.8424 49.4211 12.826Z" fill="#D78776"/>
<path d="M45.3828 117.96V114.107L52.6033 114.061L52.6609 119.697L52.2163 119.73C50.2239 119.853 42.0813 120.216 40.7475 119.82C39.2614 119.38 45.3828 117.96 45.3828 117.96Z" fill="#FCD924"/>
<path d="M40.5787 119.466C40.5787 119.401 43.2792 119.343 46.6096 119.343C49.9399 119.343 52.6362 119.401 52.6362 119.466C52.6362 119.532 49.9399 119.59 46.6096 119.59C43.2792 119.59 40.5787 119.536 40.5787 119.466Z" fill="#263238"/>
<path d="M45.2593 118.746C45.1976 118.779 45.0576 118.639 44.9135 118.454C44.7694 118.268 44.6747 118.1 44.72 118.042C44.7653 117.984 44.9547 118.096 45.1111 118.297C45.2675 118.499 45.3046 118.713 45.2593 118.746Z" fill="#263238"/>
<path d="M44.7983 119.001C44.7325 119.026 44.6049 118.849 44.4731 118.627C44.3414 118.404 44.2508 118.215 44.3043 118.161C44.3579 118.108 44.5431 118.26 44.6831 118.503C44.823 118.746 44.8601 118.976 44.7983 119.001Z" fill="#263238"/>
<path d="M50.4628 119.442C50.4381 119.421 50.4957 119.285 50.6192 119.084C50.7845 118.812 50.9996 118.575 51.2532 118.384C51.5162 118.183 51.8402 118.078 52.1712 118.087C52.4264 118.087 52.5581 118.198 52.5458 118.227C52.5334 118.256 52.3893 118.227 52.1753 118.26C51.8929 118.3 51.6252 118.41 51.3972 118.581C51.1646 118.762 50.9509 118.967 50.7592 119.191C50.5986 119.359 50.4916 119.462 50.4628 119.442Z" fill="#263238"/>
<path d="M45.2346 118.034C45.2716 117.976 45.4322 118.005 45.6133 118.067C45.7945 118.128 45.9426 118.211 45.9303 118.277C45.9179 118.343 45.7368 118.371 45.5186 118.301C45.3005 118.231 45.2017 118.079 45.2346 118.034Z" fill="#263238"/>
<path d="M45.3499 117.647C45.3499 117.581 45.5475 117.527 45.7821 117.532C46.0168 117.536 46.1938 117.593 46.1938 117.659C46.1938 117.725 46.0044 117.783 45.7615 117.779C45.5187 117.774 45.3417 117.717 45.3499 117.647Z" fill="#263238"/>
<path d="M38.9362 51.0979L34.9843 51.7607L37.2607 54.56C37.9153 67.7331 37.7547 80.5151 38.3599 86.8835C38.4504 87.8509 42.5341 118.17 42.1265 117.474L54.1511 117.976L50.5614 87.5133L52.2616 60.455C54.106 57.258 54.6457 53.4727 53.7683 49.8877L53.4719 48.6733" fill="#455A64"/>
<path d="M10.4631 23.8792L0.893909 56.7096C0.400217 58.4033 1.37308 60.1766 3.06686 60.6703L56.8515 76.3471C58.5453 76.8408 60.3186 75.868 60.8123 74.1742L70.3814 41.3438C70.8751 39.65 69.9023 37.8767 68.2085 37.383L14.4239 21.7062C12.7301 21.2125 10.9568 22.1854 10.4631 23.8792Z" fill="#FCD924"/>
<g opacity="0.3">
<path opacity="0.3" d="M10.4631 23.8793L0.893909 56.7097C0.400217 58.4035 1.37308 60.1768 3.06686 60.6705L56.8515 76.3472C58.5453 76.8409 60.3186 75.8681 60.8123 74.1743L70.3814 41.3439C70.8751 39.6501 69.9023 37.8768 68.2085 37.3831L14.4239 21.7064C12.7301 21.2127 10.9568 22.1855 10.4631 23.8793Z" fill="black"/>
</g>
<path d="M59.8032 44.7584C59.5629 45.5747 59.0861 46.3015 58.4331 46.847C57.78 47.3925 56.98 47.7323 56.134 47.8235C55.288 47.9147 54.4339 47.7532 53.6796 47.3593C52.9254 46.9655 52.3047 46.357 51.8959 45.6107C51.4872 44.8644 51.3087 44.0138 51.383 43.1661C51.4574 42.3184 51.7812 41.5118 52.3136 40.8481C52.846 40.1843 53.5632 39.6932 54.3745 39.4367C55.1858 39.1802 56.055 39.1698 56.8722 39.4068C57.4166 39.5648 57.9246 39.8287 58.3668 40.1834C58.809 40.5381 59.1768 40.9767 59.4492 41.4739C59.7215 41.9711 59.8929 42.5172 59.9537 43.0808C60.0144 43.6445 59.9633 44.2146 59.8032 44.7584Z" fill="white"/>
<path d="M60.6595 49.5336C59.5561 49.5375 58.4893 49.1383 57.6595 48.4112C56.8296 47.684 56.2938 46.6789 56.1527 45.5845C56.0116 44.4902 56.2749 43.382 56.8931 42.4681C57.5113 41.5542 58.442 40.8975 59.5102 40.6213C60.5785 40.3451 61.7108 40.4685 62.6945 40.9682C63.6783 41.4679 64.4457 42.3095 64.8527 43.3351C65.2597 44.3607 65.2782 45.4996 64.9048 46.5378C64.5314 47.5761 63.7918 48.4423 62.8248 48.9738C62.1612 49.3385 61.4167 49.531 60.6595 49.5336ZM60.6595 40.9135C59.8929 40.9091 59.1404 41.1188 58.4866 41.5191C57.8328 41.9194 57.3037 42.4942 56.959 43.1789C56.6143 43.8637 56.4676 44.631 56.5355 45.3946C56.6034 46.1582 56.8832 46.8876 57.3433 47.5008C57.8034 48.1139 58.4256 48.5865 59.1397 48.8651C59.8539 49.1437 60.6317 49.2174 61.3855 49.0778C62.1392 48.9382 62.8391 48.5909 63.4061 48.0751C63.9732 47.5592 64.3849 46.8953 64.595 46.158C64.7689 45.5474 64.7993 44.9048 64.6837 44.2805C64.5681 43.6562 64.3097 43.0671 63.9286 42.5592C63.5475 42.0514 63.0541 41.6386 62.487 41.3531C61.9199 41.0676 61.2944 40.9171 60.6595 40.9135Z" fill="white"/>
<path d="M9.40377 47.2695L8.43225 50.5957L8.09058 50.4969L8.97152 47.4754L8.18525 47.2448L8.27582 46.9402L9.40377 47.2695Z" fill="white"/>
<path d="M11.9602 51.2873L11.8696 51.5919L9.51904 50.9333L9.58902 50.6904L11.3674 49.7395C11.8531 49.4801 11.989 49.2743 12.0549 49.0479C12.166 48.6609 11.9643 48.3481 11.458 48.1999C11.2916 48.1398 11.1138 48.1179 10.9379 48.1357C10.7619 48.1535 10.5921 48.2106 10.4412 48.3028L10.26 48.0229C10.4567 47.9062 10.6765 47.8339 10.9041 47.8112C11.1317 47.7884 11.3614 47.8157 11.5773 47.8911C12.2525 48.0887 12.5777 48.558 12.4007 49.1261C12.3101 49.4431 12.1248 49.6983 11.5526 50.0071L10.0954 50.7892L11.9602 51.2873Z" fill="white"/>
<path d="M15.6116 51.7566L14.9447 51.5632L14.6895 52.4359L14.3478 52.3371L14.603 51.4602L12.7258 50.9127L12.7958 50.6657L15.204 48.9779L15.5827 49.0891L13.2569 50.7357L14.7018 51.1474L14.9241 50.3776L15.2575 50.4764L15.0352 51.2462L15.698 51.4397L15.6116 51.7566Z" fill="white"/>
<path d="M20.708 53.2262L20.0411 53.0286L19.7859 53.9055L19.4442 53.8067L19.6994 52.9298L17.8223 52.3823L17.8964 52.1353L20.3005 50.4434L20.6792 50.5546L18.3533 52.2012L19.7982 52.6129L20.0205 51.8431L20.354 51.9377L20.1317 52.7117L20.7944 52.9051L20.708 53.2262Z" fill="white"/>
<path d="M23.6472 53.9672C23.4784 54.5312 22.9556 54.8605 22.1446 54.6218C21.7019 54.5104 21.3188 54.2333 21.0743 53.8478L21.3213 53.6255C21.5291 53.9672 21.8635 54.2128 22.2517 54.3089C22.8157 54.4736 23.1985 54.2842 23.3138 53.8972C23.429 53.5103 23.252 53.1233 22.404 52.8804L21.6959 52.6705L22.3546 51.0527L24.1741 51.5837L24.0877 51.8883L22.5645 51.4437L22.1529 52.4729L22.5645 52.5964C23.5525 52.8722 23.816 53.3785 23.6472 53.9672Z" fill="white"/>
<path d="M26.9364 54.9099C26.8934 55.0532 26.821 55.186 26.7239 55.2998C26.6268 55.4136 26.5071 55.506 26.3724 55.571C26.2376 55.636 26.0908 55.6723 25.9413 55.6776C25.7918 55.6828 25.6428 55.6569 25.5039 55.6015C24.6188 55.3463 24.3183 54.5929 24.6229 53.5432C24.9522 52.4153 25.7426 52.0036 26.6442 52.2671C26.9229 52.3342 27.1778 52.4766 27.381 52.6787L27.1628 52.9134C27.0008 52.7416 26.7918 52.6213 26.5618 52.5676C25.8455 52.3576 25.2486 52.687 24.9893 53.5885C24.9626 53.6792 24.9406 53.7713 24.9234 53.8643C25.0724 53.7088 25.2635 53.5999 25.4732 53.551C25.683 53.502 25.9024 53.515 26.1049 53.5885C26.25 53.6135 26.3882 53.6687 26.5106 53.7506C26.6329 53.8325 26.7367 53.9393 26.8151 54.0639C26.8936 54.1885 26.9449 54.3282 26.9658 54.474C26.9867 54.6198 26.9767 54.7683 26.9364 54.9099ZM26.5948 54.8235C26.6254 54.7188 26.633 54.6087 26.6172 54.5008C26.6013 54.3929 26.5624 54.2897 26.503 54.1982C26.4436 54.1068 26.3651 54.0292 26.2729 53.9709C26.1808 53.9125 26.0771 53.8748 25.969 53.8602C25.8684 53.8106 25.758 53.7837 25.6458 53.7815C25.5336 53.7793 25.4223 53.8018 25.3198 53.8473C25.2172 53.8929 25.1259 53.9605 25.0524 54.0452C24.9788 54.13 24.9248 54.2299 24.8941 54.3378C24.8635 54.4458 24.8569 54.5591 24.8749 54.6699C24.8929 54.7807 24.9351 54.8861 24.9983 54.9788C25.0616 55.0715 25.1445 55.1491 25.2411 55.2062C25.3377 55.2633 25.4457 55.2985 25.5574 55.3092C25.6566 55.3535 25.7642 55.3759 25.8729 55.3749C25.9815 55.3738 26.0887 55.3495 26.1871 55.3034C26.2855 55.2573 26.3728 55.1906 26.4432 55.1078C26.5135 55.025 26.5652 54.928 26.5948 54.8235Z" fill="white"/>
<path d="M31.477 56.2849C31.3164 56.8406 30.7854 57.1493 29.9826 56.9147C29.5396 56.8016 29.1558 56.5251 28.9082 56.1408L29.1552 55.9144C29.3593 56.255 29.6889 56.5018 30.0732 56.6018C30.6248 56.7624 31.0035 56.6018 31.127 56.1902C31.2505 55.7785 31.0365 55.4451 30.419 55.2681L30.1802 55.1981L30.2543 54.947L31.514 54.0578L29.8138 53.5638L29.9003 53.2592L32.0409 53.8808L31.9709 54.1236L30.6825 55.0334C31.3864 55.2639 31.6334 55.7415 31.477 56.2849Z" fill="white"/>
<path d="M34.8237 57.2111C34.7798 57.3542 34.7066 57.4866 34.6089 57.6C34.5112 57.7133 34.3911 57.8052 34.2561 57.8698C34.1211 57.9344 33.9741 57.9703 33.8246 57.9753C33.675 57.9802 33.526 57.9541 33.387 57.8986C32.5061 57.6434 32.2056 56.89 32.5102 55.8403C32.8395 54.7082 33.6299 54.3007 34.5314 54.56C34.8091 54.6298 35.0633 54.7718 35.2683 54.9717L35.0501 55.2063C34.8858 55.0375 34.6777 54.9177 34.4491 54.8605C33.7328 54.6547 33.1359 54.9799 32.8724 55.8814C32.8473 55.9723 32.8266 56.0644 32.8107 56.1573C32.9593 56.0011 33.1505 55.8921 33.3606 55.8438C33.5706 55.7955 33.7903 55.81 33.9922 55.8856C34.1377 55.9105 34.2764 55.9658 34.3991 56.048C34.5218 56.1302 34.6258 56.2373 34.7043 56.3624C34.7828 56.4875 34.834 56.6278 34.8546 56.774C34.8751 56.9203 34.8646 57.0692 34.8237 57.2111ZM34.482 57.1205C34.5112 57.0159 34.5178 56.9062 34.5014 56.7988C34.4849 56.6914 34.4458 56.5888 34.3866 56.4976C34.3274 56.4065 34.2495 56.3291 34.1581 56.2704C34.0667 56.2117 33.9638 56.1731 33.8563 56.1573C33.7556 56.1077 33.6453 56.0808 33.5331 56.0786C33.4209 56.0764 33.3096 56.0988 33.207 56.1444C33.1045 56.19 33.0132 56.2575 32.9396 56.3423C32.8661 56.4271 32.8121 56.5269 32.7814 56.6349C32.7508 56.7428 32.7442 56.8562 32.7622 56.967C32.7802 57.0777 32.8223 57.1832 32.8856 57.2759C32.9489 57.3686 33.0317 57.4462 33.1284 57.5033C33.225 57.5604 33.3329 57.5956 33.4446 57.6063C33.5447 57.6504 33.6531 57.6723 33.7624 57.6705C33.8718 57.6688 33.9794 57.6433 34.078 57.596C34.1765 57.5487 34.2637 57.4806 34.3334 57.3964C34.4032 57.3122 34.4539 57.2139 34.482 57.1082V57.1205Z" fill="white"/>
<path d="M38.5616 55.7662L38.4916 56.0091L36.2028 58.689L35.8323 58.5819L38.0799 55.9556L36.3674 55.4616L36.1863 56.0832L35.8487 55.9844L36.1204 55.0581L38.5616 55.7662Z" fill="white"/>
<path d="M43.3163 57.1534L43.2464 57.3963L40.9575 60.0721L40.587 59.9651L42.8347 57.3428L41.1222 56.8447L40.9411 57.4663L40.6035 57.3675L40.8752 56.4413L43.3163 57.1534Z" fill="white"/>
<path d="M45.8933 60.5085C45.7204 61.0971 45.1152 61.3318 44.3207 61.0848C43.5262 60.8378 43.1434 60.3438 43.3163 59.7551C43.3688 59.5651 43.4849 59.3989 43.6452 59.2842C43.8056 59.1696 44.0005 59.1135 44.1972 59.1253C44.056 59.0318 43.9494 58.8947 43.8936 58.7348C43.8379 58.575 43.8361 58.4012 43.8885 58.2402C44.0449 57.701 44.6048 57.4951 45.3087 57.701C46.0127 57.9068 46.3832 58.3802 46.2226 58.9359C46.1779 59.0999 46.081 59.2448 45.9465 59.3488C45.8121 59.4528 45.6475 59.5102 45.4775 59.5123C45.6485 59.6076 45.7825 59.7577 45.8579 59.9384C45.9333 60.119 45.9458 60.3198 45.8933 60.5085ZM45.5434 60.4014C45.6627 59.9898 45.3828 59.6316 44.7941 59.4587C44.2055 59.2858 43.7815 59.4587 43.6621 59.8704C43.5427 60.2821 43.8144 60.6402 44.4072 60.8131C45 60.986 45.4199 60.8131 45.5434 60.4014ZM44.8929 59.187C45.4116 59.3394 45.7904 59.187 45.8933 58.8371C45.9962 58.4872 45.741 58.1373 45.2429 57.9932C44.7447 57.8491 44.3537 57.9932 44.2466 58.3514C44.1396 58.7095 44.3537 59.0388 44.8929 59.187Z" fill="white"/>
<path d="M49.3471 60.6814C49.0178 61.8134 48.2274 62.2251 47.3217 61.9616C47.0447 61.8934 46.7914 61.7511 46.589 61.55L46.8072 61.3153C46.9682 61.4862 47.1757 61.6064 47.4041 61.6611C48.1245 61.8711 48.7173 61.5417 48.9807 60.6402C49.0074 60.5494 49.0294 60.4574 49.0466 60.3644C48.898 60.5205 48.7068 60.6295 48.4967 60.6778C48.2866 60.7261 48.067 60.7116 47.8651 60.6361C47.7205 60.6107 47.5828 60.5551 47.461 60.4729C47.3392 60.3907 47.2362 60.2838 47.1585 60.1591C47.0808 60.0345 47.0303 59.8948 47.0102 59.7493C46.9901 59.6038 47.0009 59.4557 47.0418 59.3146C47.0843 59.171 47.1563 59.0378 47.2533 58.9237C47.3503 58.8095 47.4701 58.7169 47.605 58.6518C47.7399 58.5866 47.887 58.5505 48.0367 58.5455C48.1864 58.5406 48.3355 58.567 48.4744 58.6231C49.3512 58.8783 49.6517 59.6316 49.3471 60.6814ZM49.0672 59.8869C49.0885 59.7789 49.088 59.6677 49.0656 59.5599C49.0432 59.4521 48.9995 59.3499 48.9369 59.2593C48.8744 59.1688 48.7943 59.0916 48.7014 59.0326C48.6085 58.9735 48.5047 58.9336 48.3962 58.9153C48.2976 58.8756 48.1918 58.8571 48.0857 58.861C47.9795 58.8648 47.8753 58.891 47.7799 58.9377C47.6845 58.9845 47.6 59.0507 47.5319 59.1323C47.4638 59.2138 47.4136 59.3087 47.3845 59.4109C47.3555 59.5131 47.3483 59.6203 47.3634 59.7255C47.3785 59.8306 47.4155 59.9314 47.4721 60.0214C47.5287 60.1113 47.6035 60.1883 47.6918 60.2474C47.7801 60.3065 47.8798 60.3463 47.9845 60.3644C48.0868 60.406 48.1964 60.4266 48.3067 60.425C48.4171 60.4234 48.526 60.3996 48.627 60.3551C48.7281 60.3105 48.8191 60.2461 48.8947 60.1657C48.9703 60.0852 49.029 59.9904 49.0672 59.8869Z" fill="white"/>
<path d="M53.1961 60.0309L52.2246 63.3571L51.8829 63.2583L52.7639 60.2368L51.9776 60.0062L52.0682 59.7016L53.1961 60.0309Z" fill="white"/>
<path d="M55.7359 64.0487L55.6454 64.3534L53.3113 63.6947L53.3813 63.4518L55.1596 62.5009C55.6454 62.2416 55.7812 62.0357 55.8471 61.8093C55.9582 61.4265 55.7565 61.1095 55.2502 60.9613C55.0838 60.9012 54.9061 60.8793 54.7301 60.8971C54.5541 60.9149 54.3844 60.972 54.2334 61.0642L54.0523 60.7843C54.2493 60.6683 54.4692 60.5968 54.6968 60.5747C54.9243 60.5527 55.154 60.5806 55.3696 60.6567C56.0447 60.8501 56.3699 61.3194 56.1929 61.8916C56.0982 62.2086 55.9171 62.4639 55.3449 62.7726L53.8876 63.5548L55.7359 64.0487Z" fill="white"/>
<path d="M58.9099 64.2711C58.7453 64.8268 58.2184 65.1355 57.4156 64.9009C56.9714 64.7879 56.5871 64.5096 56.3412 64.1229L56.5882 63.9006C56.7923 64.2412 57.1219 64.4881 57.5062 64.588C58.0578 64.7486 58.4365 64.588 58.5559 64.1764C58.6753 63.7647 58.4695 63.4313 57.852 63.2543L57.6132 63.1843L57.6873 62.9291L58.9429 62.044L57.2427 61.55L57.3333 61.2454L59.4698 61.867L59.3998 62.1098L58.1154 63.0196C58.8153 63.2584 59.0623 63.7359 58.9099 64.2711Z" fill="white"/>
<path d="M32.3564 60.2532L31.9362 61.6958L58.5789 69.4564L58.9991 68.0138L32.3564 60.2532Z" fill="white"/>
<path d="M44.4929 66.9113L44.0715 68.3579L57.7387 72.3389L58.1601 70.8924L44.4929 66.9113Z" fill="white"/>
<path d="M19.8512 38.1691L12.5911 36.053C11.5085 35.7374 10.3751 36.3592 10.0595 37.4419L8.76817 41.8722C8.45261 42.9548 9.07444 44.0883 10.1571 44.4038L17.4171 46.5199C18.4998 46.8355 19.6332 46.2137 19.9488 45.131L21.2401 40.7007C21.5556 39.6181 20.9338 38.4846 19.8512 38.1691Z" fill="#263238"/>
<path d="M8.87683 41.5145L9.03326 40.9793L14.7965 42.6589C15.1164 42.7523 15.4603 42.7147 15.7525 42.5545C16.0447 42.3943 16.2613 42.1246 16.3546 41.8047C16.448 41.4848 16.4104 41.1409 16.2502 40.8487C16.09 40.5565 15.8203 40.3399 15.5004 40.2466L9.7372 38.5711L9.89363 38.036L15.6569 39.7114C16.0986 39.8625 16.4651 40.178 16.6802 40.5922C16.8954 41.0065 16.9428 41.4877 16.8124 41.936C16.6821 42.3843 16.3841 42.7651 15.9803 42.9993C15.5765 43.2336 15.098 43.3034 14.6442 43.1941L8.87683 41.5145Z" fill="white"/>
<path d="M16.6883 41.6025L16.5311 42.1398L20.4823 43.2952L20.6394 42.7579L16.6883 41.6025Z" fill="white"/>
<path d="M42.711 37.3714L13.9592 28.991L13.2404 31.4572L41.9922 39.8375L42.711 37.3714Z" fill="white"/>
<path d="M47.2229 3.48542C46.9231 3.37007 46.6549 3.18533 46.4402 2.94634C46.2256 2.70735 46.0706 2.42091 45.9879 2.11047C45.9138 1.79783 45.9255 1.47095 46.0219 1.16442C46.1183 0.857886 46.2957 0.583107 46.5354 0.369156C46.7819 0.163399 47.085 0.0371418 47.4046 0.00701288C47.7243 -0.0231161 48.0456 0.0442951 48.3262 0.200374C48.7559 0.497358 49.07 0.933582 49.2154 1.43535C49.3505 1.75922 49.3877 2.11559 49.3224 2.46039C49.2402 2.70873 49.0949 2.93147 48.9008 3.10682C48.7067 3.28217 48.4704 3.40411 48.215 3.46072C47.7025 3.56301 47.1762 3.57694 46.659 3.50188" fill="#263238"/>
<path d="M57.8314 10.8212C57.8785 10.6454 57.887 10.4614 57.8561 10.2819C57.8093 10.0784 57.7115 9.88998 57.5721 9.73444C57.3789 9.53412 57.1337 9.39158 56.864 9.32278C56.5315 9.2418 56.1877 9.21814 55.8472 9.25279C55.4726 9.27749 55.0733 9.34336 54.637 9.35159C54.1695 9.38039 53.7039 9.27009 53.2991 9.03462C52.8938 8.73087 52.6094 8.29329 52.4963 7.79964C52.2254 6.92933 51.7769 6.12472 51.179 5.43671C50.69 4.87463 50.1147 4.39386 49.4747 4.01237C48.8704 3.68168 48.2329 3.41538 47.5729 3.21786C47.5729 3.21786 47.6223 3.21786 47.7169 3.21786C47.8116 3.21786 47.9516 3.2508 48.1286 3.3002C48.627 3.42798 49.107 3.61889 49.5571 3.86829C50.2249 4.24097 50.8259 4.72235 51.3354 5.29263C51.9609 5.99147 52.431 6.81509 52.7145 7.70907C52.8113 8.15632 53.0618 8.55547 53.4226 8.83702C53.7965 9.05427 54.2258 9.1573 54.6575 9.13342C55.0692 9.13342 55.4809 9.07167 55.8596 9.0552C56.2196 9.02706 56.5818 9.06189 56.9299 9.15811C57.2238 9.23941 57.4873 9.4055 57.6873 9.63563C57.8351 9.81213 57.932 10.0256 57.9673 10.2531C57.9867 10.3914 57.974 10.5322 57.9302 10.6648C57.8726 10.7842 57.8355 10.8253 57.8314 10.8212Z" fill="#263238"/>
<path d="M50.2446 13.1882C50.2446 13.1677 50.4422 13.3241 50.4422 13.6781C50.4391 13.7821 50.4153 13.8845 50.3722 13.9792C50.3291 14.074 50.2675 14.1591 50.191 14.2297C50.0971 14.3186 49.9842 14.3849 49.8607 14.4234C49.7373 14.4619 49.6067 14.4717 49.4789 14.452C49.3517 14.4294 49.2313 14.3784 49.1265 14.3029C49.0218 14.2273 48.9354 14.1292 48.8737 14.0157C48.8241 13.9245 48.7934 13.8243 48.7835 13.721C48.7736 13.6178 48.7847 13.5135 48.8161 13.4147C48.9273 13.0771 49.1537 13.003 49.1578 13.003C49.1619 13.003 49.0178 13.1553 48.9684 13.4435C48.9386 13.6034 48.9678 13.7687 49.0508 13.9086C49.1019 13.991 49.1697 14.0617 49.2499 14.1163C49.33 14.1709 49.4206 14.2081 49.5159 14.2256C49.6115 14.2395 49.7089 14.2331 49.8018 14.2069C49.8947 14.1807 49.9811 14.1351 50.0552 14.0733C50.1796 13.9688 50.2616 13.8224 50.2857 13.6616C50.3104 13.3776 50.1952 13.2047 50.2446 13.1882Z" fill="#E0E0E0"/>
<path d="M49.1617 4.00409C48.2799 3.12619 47.1561 2.53136 45.9343 2.2957C46.5752 2.27043 47.2113 2.41516 47.7781 2.7152C48.345 3.01524 48.8223 3.45992 49.1617 4.00409Z" fill="#FCD924"/>
<path d="M50.6974 12.6819C50.6974 12.6531 50.8168 12.6448 50.8909 12.7807C50.9094 12.8214 50.919 12.8656 50.919 12.9104C50.919 12.9551 50.9094 12.9993 50.8909 13.04C50.8638 13.0911 50.8236 13.1341 50.7744 13.1645C50.7252 13.1949 50.6688 13.2116 50.611 13.2129C50.5618 13.2164 50.5125 13.2089 50.4665 13.1909C50.4206 13.173 50.3792 13.1452 50.3454 13.1093C50.3115 13.0735 50.286 13.0306 50.2707 12.9838C50.2554 12.9369 50.2507 12.8872 50.2569 12.8383C50.2569 12.6984 50.3557 12.6531 50.3763 12.6695C50.3969 12.686 50.3763 12.7519 50.4134 12.8342C50.4195 12.8793 50.4424 12.9204 50.4775 12.9494C50.5126 12.9784 50.5573 12.9931 50.6027 12.9906C50.6226 12.9916 50.6425 12.9881 50.6609 12.9802C50.6792 12.9724 50.6956 12.9605 50.7087 12.9454C50.7217 12.9304 50.7312 12.9125 50.7364 12.8933C50.7416 12.874 50.7423 12.8538 50.7386 12.8342C50.7386 12.756 50.6892 12.7148 50.6974 12.6819Z" fill="#E0E0E0"/>
<path d="M47.8817 20.8821C47.9237 21.0264 47.939 21.177 47.9269 21.3267C47.9192 21.7371 47.8383 22.1427 47.6882 22.5247C47.4629 23.0969 47.0977 23.6036 46.6261 23.9984C46.035 24.473 45.311 24.7521 44.5543 24.7971C43.7976 24.8421 43.0456 24.6507 42.4025 24.2495C41.885 23.9161 41.4601 23.4573 41.1675 22.9157C40.9724 22.5544 40.8428 22.1614 40.7846 21.7549C40.757 21.6079 40.757 21.4572 40.7846 21.3103C40.8708 21.8467 41.0476 22.3645 41.3075 22.8416C41.6055 23.3421 42.0173 23.7652 42.5095 24.0766C43.121 24.4442 43.8296 24.6178 44.5417 24.5745C45.2539 24.5311 45.9361 24.2728 46.4985 23.8337C46.9521 23.4658 47.3107 22.9942 47.5441 22.4588C47.7437 21.9557 47.8578 21.4228 47.8817 20.8821Z" fill="#455A64"/>
<path d="M47.0171 115.222C47.0038 115.186 46.9955 115.149 46.9924 115.111C46.9924 115.025 46.9636 114.918 46.9472 114.782C46.906 114.477 46.8484 114.053 46.7784 113.518C46.6384 112.419 46.4532 110.83 46.235 108.858C45.7945 104.922 45.2552 99.4803 44.7695 93.4577C44.2837 87.4351 43.9462 81.9683 43.7568 78.0122C43.6539 76.0363 43.588 74.4349 43.551 73.3275C43.5345 72.7787 43.5222 72.3547 43.5139 72.0555C43.5139 71.9197 43.5139 71.8085 43.5139 71.7221C43.5094 71.6852 43.5094 71.6478 43.5139 71.6109C43.5183 71.6478 43.5183 71.6852 43.5139 71.7221C43.5139 71.8085 43.5139 71.9197 43.5386 72.0514C43.5592 72.3601 43.5839 72.7842 43.621 73.3234C43.6868 74.4473 43.7774 76.0404 43.8927 78.004C44.1314 81.9559 44.4937 87.4145 44.9753 93.4371C45.457 99.4597 45.9756 104.906 46.3708 108.841C46.5726 110.801 46.7331 112.39 46.8484 113.51C46.9019 114.045 46.943 114.469 46.9719 114.778C46.9719 114.913 46.9924 115.02 47.0007 115.107C47.0116 115.144 47.0171 115.183 47.0171 115.222Z" fill="#263238"/>
<path d="M53.7354 115.251C53.5851 115.292 53.4302 115.314 53.2743 115.317C52.9779 115.342 52.5457 115.37 52.0146 115.395C50.9484 115.449 49.4747 115.473 47.8486 115.449C46.2226 115.424 44.7488 115.374 43.6868 115.333L42.4271 115.272C42.2705 115.276 42.1141 115.259 41.9619 115.222C42.1147 115.189 42.2711 115.177 42.4271 115.185C42.7235 115.185 43.1557 115.185 43.6909 115.185C44.753 115.185 46.2267 115.21 47.8528 115.235C49.4788 115.259 50.9443 115.259 52.0105 115.235H53.2702C53.4253 115.221 53.5816 115.226 53.7354 115.251Z" fill="#263238"/>
<path d="M56.0778 34.8415L49.0096 30.198C49.0096 30.198 45.5557 40.1437 44.4813 40.2425C38.6193 40.7776 32.3456 38.8305 30.1473 38.0648C29.925 37.8137 29.6698 37.5132 29.3858 37.1427C29.1437 36.8251 28.9572 36.4688 28.8341 36.0888C28.6623 35.6229 28.557 35.1351 28.5213 34.6398C28.5299 34.5448 28.5088 34.4495 28.461 34.367C28.4131 34.2845 28.3409 34.2189 28.2542 34.1792C28.1675 34.1394 28.0706 34.1276 27.9769 34.1452C27.8832 34.1628 27.7972 34.209 27.7309 34.2775C27.4757 34.6069 27.4098 35.8624 27.9902 37.2168C28.5707 38.5711 26.5206 37.4926 25.7673 37.1139C25.0139 36.7351 22.6263 35.6731 22.3258 35.813C21.8894 36.0189 22.0253 36.5252 22.7869 36.8875C23.5484 37.2497 25.7549 38.4888 25.5367 38.8758C25.3186 39.2627 21.5107 37.2785 21.5107 37.2785C21.5107 37.2785 20.7656 36.7269 20.498 37.1674C20.0123 37.9619 24.203 39.765 24.6146 39.9255C24.8946 40.0408 24.6723 40.4689 24.3759 40.3372C24.0795 40.2054 20.6215 38.2789 20.1234 39.0775C19.7406 39.695 23.569 40.5965 24.063 41.391C24.557 42.1855 21.2267 40.4154 20.885 41.0164C20.7574 41.2428 20.6956 41.4281 22.7539 42.1732C24.2606 42.6445 25.7914 43.0347 27.3398 43.3423V43.3629C27.3398 43.3629 48.3591 52.7734 52.3358 43.6963C56.5965 34.0223 56.0778 34.8415 56.0778 34.8415Z" fill="#E5BAAB"/>
<path d="M51.4384 21.2444C51.4384 21.2444 57.8603 22.0019 57.2016 29.6423C56.7716 34.3658 55.4443 38.9639 53.2908 43.19L44.8683 38.7688C46.7643 34.9854 48.1909 30.9847 49.1166 26.8553L51.459 21.2444H51.4384Z" fill="#FCD924"/>
<g opacity="0.2">
<path opacity="0.2" d="M51.4384 21.2444C51.4384 21.2444 57.8603 22.0019 57.2016 29.6423C56.7716 34.3658 55.4443 38.9639 53.2908 43.19L44.8683 38.7688C46.7643 34.9854 48.1909 30.9847 49.1166 26.8553L51.459 21.2444H51.4384Z" fill="white"/>
</g>
<path d="M51.5783 21.265C51.5783 21.3185 50.8826 21.5079 49.8082 21.582L49.8864 21.4338L50.6809 22.7223L51.1831 23.5456L51.3025 23.7473L51.072 23.702C50.3111 23.5894 49.5439 23.5248 48.7749 23.5085C48.9861 23.4391 49.2071 23.4044 49.4294 23.4056C49.9909 23.3699 50.5546 23.4003 51.109 23.4962L51.002 23.6526L50.4915 22.8293L49.7217 21.5285L49.6353 21.3844H49.7999C50.3269 21.3597 50.7756 21.3267 51.0843 21.2979C51.2474 21.2702 51.4129 21.2592 51.5783 21.265Z" fill="#455A64"/>
<path d="M55.3572 24.5295C55.3572 24.5665 54.7603 24.4224 53.7353 24.3977L53.8053 24.3195C54.0481 25.2828 54.3692 26.5672 54.7438 28.0491L54.785 28.222L54.6162 28.1768L51.9981 27.4687L51.2859 27.2711L51.4259 27.16C51.4835 28.5802 51.537 29.8975 51.5823 31.0296V31.1531L51.467 31.1201L48.9518 30.4162L48.2561 30.2104C48.1727 30.1893 48.0925 30.1575 48.0173 30.1157C48.1039 30.1171 48.1899 30.1309 48.2726 30.1568L48.9806 30.3174L51.5041 30.9431L51.3929 31.0378C51.3353 29.9057 51.2694 28.5884 51.1995 27.1723V27.02L51.3477 27.0612L52.0598 27.2588L54.6698 27.9874L54.5421 28.115C54.1963 26.6207 53.8999 25.3281 53.6735 24.3566L53.653 24.2742H53.7435C54.1461 24.2952 54.5465 24.3461 54.9415 24.4265C55.0833 24.446 55.2227 24.4805 55.3572 24.5295Z" fill="#455A64"/>
<path d="M55.8761 34.9691C55.7601 34.8842 55.6598 34.7798 55.5797 34.6604C55.4068 34.4422 55.2174 34.0799 54.9458 33.66H55.0569C54.3906 34.9611 53.6109 36.2009 52.7269 37.365L52.6446 37.4761L52.5581 37.365C52.1465 36.8504 51.7348 36.3029 51.3231 35.7183L50.3763 34.4834H50.5328L49.0096 35.8254L48.3263 36.414L48.0093 36.6899L47.857 36.8216L47.8199 36.8545H47.7993H47.7746C47.7746 36.8916 47.6388 36.8051 47.6676 36.7681C47.6964 36.731 47.6676 36.7681 47.6676 36.7681V36.7434C47.6676 36.7434 47.6964 36.8134 47.7088 36.8092C47.7211 36.8051 47.7088 36.8092 47.7088 36.8092L47.6388 36.8298L47.6141 36.7516C47.3712 35.9283 47.2024 35.2779 47.0995 34.8086C47.0291 34.5697 47.0012 34.3203 47.0172 34.0717C47.0172 34.0717 47.0584 34.3311 47.186 34.788C47.3136 35.2449 47.5071 35.8995 47.7746 36.7022L47.68 36.6446C47.7096 36.6365 47.7409 36.6365 47.7705 36.6446C47.7911 36.6515 47.809 36.6648 47.8216 36.6826C47.8341 36.7003 47.8408 36.7216 47.8405 36.7434C47.8433 36.7625 47.8433 36.7819 47.8405 36.801C47.8405 36.801 47.8405 36.801 47.8199 36.801L47.7623 36.7763C47.7572 36.761 47.7487 36.7469 47.7376 36.7351L47.7129 36.7104H47.7335L47.7664 36.6775L47.9187 36.5417L48.2316 36.2617C48.4456 36.0683 48.6679 35.8501 48.9026 35.6607L50.4052 34.3228L50.4916 34.2446L50.5657 34.3393L51.5125 35.5743C51.9489 36.1424 52.3688 36.694 52.7475 37.2209H52.5787C53.4628 36.069 54.2595 34.8526 54.9622 33.5818L55.0198 33.483L55.0775 33.5777C55.3409 34.0182 55.4891 34.401 55.6579 34.611C55.8267 34.8209 55.8884 34.9568 55.8761 34.9691Z" fill="#455A64"/>
<path d="M48.5979 29.1153C48.5949 29.2552 48.5713 29.3939 48.5279 29.527C48.4662 29.7822 48.3715 30.1445 48.2398 30.5932C47.9804 31.4865 47.577 32.7132 47.0583 34.0347C46.5396 35.3561 45.9962 36.5293 45.5764 37.3609C45.3664 37.7725 45.1894 38.1101 45.0577 38.3365C45.0013 38.46 44.9278 38.575 44.8395 38.6782C45.0109 38.2057 45.2102 37.7438 45.4364 37.295C45.8192 36.447 46.3338 35.2737 46.8525 33.9564C47.3712 32.6391 47.7952 31.4247 48.0875 30.5438C48.2277 30.0574 48.3981 29.5804 48.5979 29.1153Z" fill="#455A64"/>
<path d="M51.5783 21.265C51.5783 21.3185 50.8826 21.5079 49.8082 21.582L49.8864 21.4338L50.6809 22.7223L51.1831 23.5456L51.3025 23.7473L51.072 23.702C50.3111 23.5894 49.5439 23.5248 48.7749 23.5085C48.9861 23.4391 49.2071 23.4044 49.4294 23.4056C49.9909 23.3699 50.5546 23.4003 51.109 23.4962L51.002 23.6526L50.4915 22.8293L49.7217 21.5285L49.6353 21.3844H49.7999C50.3269 21.3597 50.7756 21.3267 51.0843 21.2979C51.2474 21.2702 51.4129 21.2592 51.5783 21.265Z" fill="#455A64"/>
<path d="M55.3572 24.5295C55.3572 24.5665 54.7603 24.4224 53.7353 24.3977L53.8053 24.3195C54.0481 25.2828 54.3692 26.5672 54.7438 28.0491L54.785 28.222L54.6162 28.1768L51.9981 27.4687L51.2859 27.2711L51.4259 27.16C51.4835 28.5802 51.537 29.8975 51.5823 31.0296V31.1531L51.467 31.1201L48.9518 30.4162L48.2561 30.2104C48.1727 30.1893 48.0925 30.1575 48.0173 30.1157C48.1039 30.1171 48.1899 30.1309 48.2726 30.1568L48.9806 30.3174L51.5041 30.9431L51.3929 31.0378C51.3353 29.9057 51.2694 28.5884 51.1995 27.1723V27.02L51.3477 27.0612L52.0598 27.2588L54.6698 27.9874L54.5421 28.115C54.1963 26.6207 53.8999 25.3281 53.6735 24.3566L53.653 24.2742H53.7435C54.1461 24.2952 54.5465 24.3461 54.9415 24.4265C55.0833 24.446 55.2227 24.4805 55.3572 24.5295Z" fill="#455A64"/>
<path d="M55.8761 34.9691C55.7601 34.8842 55.6598 34.7798 55.5797 34.6604C55.4068 34.4422 55.2174 34.0799 54.9458 33.66H55.0569C54.3906 34.9611 53.6109 36.2009 52.7269 37.365L52.6446 37.4761L52.5581 37.365C52.1465 36.8504 51.7348 36.3029 51.3231 35.7183L50.3763 34.4834H50.5328L49.0096 35.8254L48.3263 36.414L48.0093 36.6899L47.857 36.8216L47.8199 36.8545H47.7993H47.7746C47.7746 36.8916 47.6388 36.8051 47.6676 36.7681C47.6964 36.731 47.6676 36.7681 47.6676 36.7681V36.7434C47.6676 36.7434 47.6964 36.8134 47.7088 36.8092C47.7211 36.8051 47.7088 36.8092 47.7088 36.8092L47.6388 36.8298L47.6141 36.7516C47.3712 35.9283 47.2024 35.2779 47.0995 34.8086C47.0291 34.5697 47.0012 34.3203 47.0172 34.0717C47.0172 34.0717 47.0584 34.3311 47.186 34.788C47.3136 35.2449 47.5071 35.8995 47.7746 36.7022L47.68 36.6446C47.7096 36.6365 47.7409 36.6365 47.7705 36.6446C47.7911 36.6515 47.809 36.6648 47.8216 36.6826C47.8341 36.7003 47.8408 36.7216 47.8405 36.7434C47.8433 36.7625 47.8433 36.7819 47.8405 36.801C47.8405 36.801 47.8405 36.801 47.8199 36.801L47.7623 36.7763C47.7572 36.761 47.7487 36.7469 47.7376 36.7351L47.7129 36.7104H47.7335L47.7664 36.6775L47.9187 36.5417L48.2316 36.2617C48.4456 36.0683 48.6679 35.8501 48.9026 35.6607L50.4052 34.3228L50.4916 34.2446L50.5657 34.3393L51.5125 35.5743C51.9489 36.1424 52.3688 36.694 52.7475 37.2209H52.5787C53.4628 36.069 54.2595 34.8526 54.9622 33.5818L55.0198 33.483L55.0775 33.5777C55.3409 34.0182 55.4891 34.401 55.6579 34.611C55.8267 34.8209 55.8884 34.9568 55.8761 34.9691Z" fill="#455A64"/>
<path d="M48.5979 29.1153C48.5949 29.2552 48.5713 29.3939 48.5279 29.527C48.4662 29.7822 48.3715 30.1445 48.2398 30.5932C47.9804 31.4865 47.577 32.7132 47.0583 34.0347C46.5396 35.3561 45.9962 36.5293 45.5764 37.3609C45.3664 37.7725 45.1894 38.1101 45.0577 38.3365C45.0013 38.46 44.9278 38.575 44.8395 38.6782C45.0109 38.2057 45.2102 37.7438 45.4364 37.295C45.8192 36.447 46.3338 35.2737 46.8525 33.9564C47.3712 32.6391 47.7952 31.4247 48.0875 30.5438C48.2277 30.0574 48.3981 29.5804 48.5979 29.1153Z" fill="#455A64"/>
</svg>
