<svg width="158" height="120" viewBox="0 0 158 120" fill="none" xmlns="http://www.w3.org/2000/svg">
<path d="M134.861 34.854L130.112 28.9214C130.112 28.9214 122.448 34.9004 121.605 34.4453C116.793 31.9172 112.904 27.2824 111.586 25.597C111.539 25.2936 111.493 24.9313 111.455 24.5057C111.427 24.1375 111.462 23.7672 111.556 23.4102C111.658 22.969 111.82 22.5438 112.036 22.1462C112.093 22.0781 112.126 21.9942 112.132 21.9062C112.138 21.8182 112.116 21.7306 112.069 21.6557C112.023 21.5807 111.954 21.5223 111.872 21.4886C111.791 21.4549 111.701 21.4476 111.615 21.4678C111.253 21.5942 110.574 22.538 110.351 23.8737C110.128 25.2094 109.087 23.3512 108.666 22.6813C108.244 22.0113 106.955 19.9931 106.652 19.9509C106.209 19.892 106.062 20.3723 106.475 21.017C106.888 21.6616 107.97 23.7431 107.608 23.9327C107.246 24.1223 105.286 20.6799 105.286 20.6799C105.286 20.6799 104.987 19.8793 104.557 20.0858C103.786 20.4608 106.142 23.9622 106.373 24.2993C106.534 24.5268 106.146 24.7459 105.986 24.4931C105.826 24.2403 104.111 21.017 103.319 21.392C102.712 21.6743 105.227 24.2908 105.215 25.1546C105.202 26.0184 103.508 22.9762 102.94 23.2754C102.729 23.3849 102.586 23.4987 103.808 25.104C104.733 26.2234 105.717 27.2924 106.757 28.3063C106.757 28.3063 118.087 45.7206 125.958 41.0731C134.305 36.1181 134.861 34.854 134.861 34.854Z" fill="#EB996E"/>
<path d="M153.257 108.716L150.805 106.812L154.336 102.177L157.955 104.92L157.753 105.223C156.851 106.551 153.063 111.914 152.153 112.567C151.142 113.326 153.257 108.716 153.257 108.716Z" fill="#FCD924"/>
<g opacity="0.4">
<path opacity="0.4" d="M152.292 111.03C152.292 111.03 151.635 112.715 151.993 112.715C152.351 112.715 156.383 107.444 157.955 104.958L157.845 104.891L153.211 111.08C153.211 111.08 152.507 110.768 152.292 111.03Z" fill="white"/>
</g>
<path d="M157.9 104.806L157.845 104.891L157.685 105.131L157.083 105.999C156.564 106.728 155.819 107.722 155.01 108.809C154.201 109.896 153.413 110.857 152.848 111.548C152.583 111.868 152.355 112.138 152.174 112.361L151.984 112.576L151.917 112.652C151.917 112.652 151.917 112.622 151.972 112.567L152.153 112.344L152.81 111.501C153.366 110.806 154.129 109.837 154.955 108.75C155.781 107.663 156.514 106.677 157.062 105.957L157.685 105.114L157.858 104.882C157.875 104.832 157.896 104.802 157.9 104.806Z" fill="#263238"/>
<path d="M153.27 111.126C153.103 111.057 152.929 111.008 152.751 110.979C152.571 110.972 152.39 110.984 152.212 111.017C152.374 110.915 152.567 110.876 152.755 110.907C152.949 110.911 153.133 110.99 153.27 111.126Z" fill="#263238"/>
<path d="M153.628 109.235C153.628 109.235 153.497 109.26 153.341 109.235C153.185 109.209 153.055 109.192 153.059 109.171C153.153 109.151 153.251 109.151 153.345 109.171C153.443 109.17 153.54 109.191 153.628 109.235Z" fill="#263238"/>
<path d="M153.708 108.716C153.708 108.716 153.607 108.771 153.476 108.796C153.345 108.822 153.232 108.826 153.227 108.796C153.223 108.767 153.328 108.742 153.463 108.716C153.598 108.691 153.703 108.691 153.708 108.716Z" fill="#263238"/>
<path d="M153.455 108.139C153.422 108.237 153.369 108.328 153.299 108.405C153.198 108.539 153.105 108.641 153.088 108.628C153.121 108.53 153.174 108.439 153.244 108.362C153.345 108.228 153.438 108.131 153.455 108.139Z" fill="#263238"/>
<path d="M153.206 107.823C153.206 107.823 153.206 107.987 153.08 108.152C152.953 108.316 152.844 108.417 152.831 108.405C152.886 108.302 152.949 108.205 153.021 108.114C153.077 108.013 153.139 107.916 153.206 107.823Z" fill="#263238"/>
<path d="M153.097 109.083C153.039 109.194 152.962 109.294 152.869 109.378C152.774 109.476 152.67 109.565 152.557 109.643C152.492 109.692 152.421 109.733 152.347 109.765C152.298 109.785 152.244 109.785 152.195 109.765C152.17 109.753 152.149 109.733 152.134 109.71C152.12 109.686 152.111 109.659 152.111 109.631C152.131 109.53 152.174 109.436 152.236 109.354C152.297 109.272 152.376 109.205 152.467 109.157C152.558 109.11 152.658 109.083 152.76 109.079C152.863 109.075 152.965 109.093 153.059 109.133C153.118 109.159 153.147 109.184 153.143 109.188C153.028 109.149 152.906 109.132 152.785 109.138C152.656 109.143 152.531 109.187 152.427 109.264C152.363 109.306 152.307 109.36 152.265 109.424C152.222 109.488 152.193 109.559 152.178 109.635C152.178 109.711 152.246 109.736 152.317 109.706C152.387 109.676 152.454 109.638 152.515 109.593C152.626 109.519 152.732 109.437 152.831 109.348C153 109.188 153.088 109.079 153.097 109.083Z" fill="#263238"/>
<path d="M153.055 109.171C152.965 109.161 152.882 109.117 152.823 109.049C152.75 108.982 152.696 108.896 152.667 108.801C152.642 108.742 152.632 108.678 152.638 108.614C152.645 108.551 152.668 108.49 152.705 108.438C152.733 108.413 152.77 108.399 152.808 108.399C152.846 108.399 152.883 108.413 152.911 108.438C152.953 108.482 152.984 108.533 153.004 108.59C153.041 108.679 153.065 108.772 153.076 108.868C153.098 108.954 153.098 109.044 153.076 109.129C153.076 109.129 153.076 109.032 153.038 108.876C153.018 108.787 152.99 108.699 152.953 108.615C152.924 108.527 152.831 108.413 152.76 108.48C152.737 108.526 152.726 108.575 152.726 108.626C152.726 108.676 152.737 108.726 152.76 108.771C152.783 108.857 152.827 108.936 152.886 109.003C152.936 109.065 152.993 109.121 153.055 109.171Z" fill="#263238"/>
<path d="M156.577 103.934C156.577 103.934 156.463 104.056 156.328 104.284C156.153 104.581 156.061 104.92 156.063 105.265C156.074 105.609 156.179 105.942 156.366 106.23C156.51 106.454 156.64 106.563 156.628 106.572C156.594 106.552 156.563 106.528 156.535 106.5C156.457 106.427 156.387 106.346 156.324 106.26C156.12 105.968 156.006 105.622 155.996 105.265C155.989 104.908 156.09 104.557 156.286 104.258C156.342 104.168 156.408 104.084 156.484 104.01C156.526 103.955 156.577 103.93 156.577 103.934Z" fill="#263238"/>
<path d="M154.272 102.944C154.613 103.152 154.941 103.382 155.254 103.631C155.582 103.857 155.894 104.105 156.189 104.372C156.189 104.372 155.743 104.077 155.212 103.685C154.885 103.456 154.572 103.208 154.272 102.944Z" fill="#263238"/>
<path d="M155.734 106.837C155.617 107.097 155.467 107.34 155.288 107.562C155.127 107.798 154.934 108.011 154.715 108.194C154.715 108.194 154.951 107.895 155.229 107.52C155.507 107.145 155.734 106.824 155.734 106.837Z" fill="#263238"/>
<path d="M156.434 105.927C156.455 105.927 156.48 106.003 156.526 106.087C156.573 106.171 156.619 106.235 156.607 106.247C156.594 106.26 156.514 106.218 156.463 106.121C156.413 106.024 156.417 105.931 156.434 105.927Z" fill="#263238"/>
<path d="M156.27 105.261C156.291 105.261 156.316 105.329 156.328 105.413C156.341 105.497 156.328 105.569 156.328 105.569C156.328 105.569 156.286 105.506 156.274 105.421C156.261 105.337 156.253 105.265 156.27 105.261Z" fill="#263238"/>
<path d="M156.451 104.625C156.451 104.625 156.413 104.701 156.387 104.789C156.362 104.878 156.358 104.954 156.337 104.954C156.316 104.954 156.282 104.874 156.337 104.768C156.392 104.663 156.438 104.612 156.451 104.625Z" fill="#263238"/>
<path d="M156.623 104.208C156.623 104.208 156.623 104.258 156.623 104.309C156.623 104.36 156.581 104.393 156.56 104.389C156.539 104.385 156.539 104.338 156.56 104.288C156.581 104.237 156.602 104.204 156.623 104.208Z" fill="#263238"/>
<g opacity="0.3">
<path opacity="0.3" d="M156.434 103.846L152.831 108.405L152.279 107.971L156.168 103.584L156.434 103.846Z" fill="black"/>
</g>
<path d="M134.208 117.809L133.816 114.729L139.58 113.962L140.199 118.462L139.845 118.534C138.265 118.833 131.798 119.95 130.69 119.768C129.455 119.566 134.208 117.809 134.208 117.809Z" fill="#FCD924"/>
<g opacity="0.4">
<path opacity="0.4" d="M131.899 118.753C131.899 118.753 130.247 119.478 130.5 119.73C130.753 119.983 137.33 119.103 140.191 118.466L140.166 118.34L132.497 119.431C132.497 119.431 132.236 118.723 131.899 118.753Z" fill="white"/>
</g>
<path d="M140.262 118.319L140.166 118.344L139.883 118.399L138.843 118.584C137.962 118.732 136.736 118.926 135.392 119.107C134.048 119.288 132.813 119.427 131.924 119.528L130.871 119.625L130.584 119.646H130.483H130.584L130.866 119.612L131.92 119.494C132.805 119.393 134.027 119.25 135.379 119.073C136.732 118.896 137.949 118.706 138.834 118.567L139.879 118.403L140.161 118.361C140.193 118.342 140.227 118.328 140.262 118.319Z" fill="#263238"/>
<path d="M132.518 119.515C132.448 119.35 132.36 119.191 132.257 119.044C132.13 118.91 131.989 118.791 131.836 118.69C132.024 118.732 132.19 118.841 132.303 118.997C132.437 119.137 132.514 119.322 132.518 119.515Z" fill="#263238"/>
<path d="M134.102 118.428C134.019 118.378 133.947 118.311 133.892 118.23C133.791 118.108 133.719 117.999 133.736 117.986C133.753 117.973 133.845 118.062 133.946 118.184C134.048 118.306 134.119 118.407 134.102 118.428Z" fill="#263238"/>
<path d="M134.536 118.117C134.536 118.117 134.427 118.083 134.317 118.007C134.208 117.931 134.123 117.86 134.136 117.843C134.149 117.826 134.246 117.876 134.355 117.952C134.465 118.028 134.549 118.1 134.536 118.117Z" fill="#263238"/>
<path d="M134.76 117.535C134.668 117.582 134.567 117.608 134.465 117.611C134.364 117.636 134.258 117.636 134.157 117.611C134.25 117.565 134.352 117.539 134.456 117.535C134.556 117.51 134.66 117.51 134.76 117.535Z" fill="#263238"/>
<path d="M134.81 117.143C134.72 117.224 134.606 117.274 134.486 117.287C134.372 117.325 134.249 117.325 134.136 117.287C134.246 117.253 134.359 117.23 134.473 117.219C134.583 117.185 134.696 117.16 134.81 117.143Z" fill="#263238"/>
<path d="M133.824 117.948C133.705 117.987 133.579 118.004 133.454 117.999C133.312 118 133.171 117.987 133.032 117.961C132.95 117.952 132.869 117.932 132.792 117.902C132.746 117.88 132.708 117.843 132.687 117.796C132.676 117.77 132.674 117.741 132.68 117.713C132.686 117.686 132.7 117.66 132.72 117.641C132.806 117.585 132.904 117.55 133.005 117.536C133.106 117.522 133.21 117.531 133.307 117.561C133.405 117.592 133.495 117.644 133.57 117.713C133.646 117.782 133.705 117.866 133.744 117.961C133.759 117.991 133.766 118.024 133.765 118.058C133.711 117.949 133.64 117.849 133.555 117.763C133.457 117.677 133.337 117.622 133.209 117.603C133.063 117.576 132.911 117.608 132.788 117.691C132.733 117.742 132.767 117.809 132.834 117.839C132.907 117.865 132.982 117.884 133.058 117.898C133.187 117.925 133.318 117.942 133.449 117.948C133.698 117.957 133.824 117.94 133.824 117.948Z" fill="#263238"/>
<path d="M133.748 117.986C133.694 117.914 133.667 117.824 133.673 117.733C133.668 117.635 133.69 117.538 133.736 117.451C133.759 117.391 133.797 117.339 133.847 117.298C133.896 117.258 133.955 117.231 134.018 117.219C134.057 117.222 134.093 117.24 134.119 117.269C134.145 117.298 134.158 117.336 134.157 117.375C134.156 117.435 134.141 117.494 134.115 117.548C134.077 117.636 134.029 117.72 133.972 117.796C133.871 117.927 133.782 117.982 133.778 117.973C133.774 117.965 133.841 117.898 133.93 117.767C133.979 117.691 134.022 117.611 134.056 117.527C134.094 117.438 134.111 117.295 134.018 117.291C133.925 117.287 133.841 117.4 133.795 117.48C133.75 117.558 133.724 117.644 133.719 117.733C133.72 117.818 133.73 117.903 133.748 117.986Z" fill="#263238"/>
<path d="M139.934 116.76C139.934 116.76 139.765 116.76 139.512 116.831C139.179 116.916 138.876 117.091 138.636 117.337C138.4 117.588 138.237 117.898 138.164 118.235C138.109 118.496 138.126 118.656 138.109 118.656C138.104 118.618 138.104 118.58 138.109 118.542C138.098 118.436 138.098 118.328 138.109 118.222C138.166 117.869 138.329 117.541 138.576 117.282C138.824 117.024 139.145 116.848 139.496 116.777C139.6 116.756 139.705 116.744 139.812 116.743C139.853 116.74 139.895 116.746 139.934 116.76Z" fill="#263238"/>
<path d="M139.015 114.438C139.175 115.219 139.29 116.008 139.361 116.802C139.271 116.414 139.202 116.022 139.154 115.626C139.083 115.234 139.037 114.837 139.015 114.438Z" fill="#263238"/>
<path d="M137.3 118.23C137.029 118.333 136.746 118.4 136.458 118.428C136.18 118.481 135.896 118.495 135.615 118.471C135.615 118.471 135.994 118.424 136.458 118.357C136.921 118.289 137.296 118.209 137.3 118.23Z" fill="#263238"/>
<path d="M138.43 118.079C138.43 118.079 138.43 118.163 138.383 118.251C138.337 118.34 138.345 118.424 138.328 118.424C138.312 118.424 138.286 118.34 138.328 118.235C138.371 118.129 138.417 118.066 138.43 118.079Z" fill="#263238"/>
<path d="M138.788 117.493C138.788 117.493 138.788 117.569 138.72 117.636C138.653 117.704 138.615 117.75 138.598 117.737C138.581 117.725 138.598 117.662 138.666 117.594C138.733 117.527 138.771 117.48 138.788 117.493Z" fill="#263238"/>
<path d="M139.365 117.169C139.365 117.169 139.285 117.198 139.205 117.24C139.125 117.282 139.07 117.333 139.053 117.32C139.036 117.308 139.074 117.223 139.171 117.177C139.268 117.131 139.365 117.143 139.365 117.169Z" fill="#263238"/>
<path d="M139.782 116.996C139.782 116.996 139.782 117.046 139.715 117.072C139.647 117.097 139.626 117.101 139.618 117.072C139.609 117.042 139.618 117.021 139.681 116.996C139.744 116.971 139.774 116.979 139.782 116.996Z" fill="#263238"/>
<g opacity="0.3">
<path opacity="0.3" d="M139.904 116.604L134.136 117.278L134.052 116.583L139.841 115.85L139.904 116.604Z" fill="black"/>
</g>
<path d="M142.298 24.8427C143.201 24.7781 144.108 24.9041 144.959 25.2126C145.811 25.5211 146.588 26.0052 147.24 26.6335L148.428 32.4902L146.393 40.6981C145.795 43.0997 147.543 46.4537 148.011 50.3891L131.932 53.2163L131.886 43.5801L130.201 38.4523L127.555 40.1672L121.904 33.6194L127.146 29.4438C129.665 26.9913 132.972 25.5105 136.479 25.2641" fill="#FCD924"/>
<path d="M131.886 32.9832C131.886 33.0169 131.536 33.1433 131.043 33.5099C130.426 33.9914 129.972 34.6523 129.746 35.4018C129.541 36.1587 129.581 36.9609 129.859 37.6939C130.07 38.2585 130.314 38.5577 130.281 38.5787C130.018 38.3537 129.82 38.0628 129.708 37.736C129.368 36.9764 129.309 36.1211 129.54 35.322C129.772 34.5228 130.279 33.8315 130.972 33.3709C131.239 33.1666 131.553 33.0332 131.886 32.9832Z" fill="#263238"/>
<path d="M135.998 25.2135C136.044 25.7449 136.187 26.2633 136.42 26.743C136.681 27.2508 137.065 27.6853 137.536 28.0071C138.123 28.3851 138.816 28.5653 139.513 28.5213C140.209 28.4773 140.874 28.2115 141.409 27.7627C141.837 27.385 142.163 26.9053 142.357 26.368C142.521 25.8625 142.592 25.3315 142.567 24.8006C142.619 24.9352 142.648 25.0777 142.651 25.2219C142.677 25.6237 142.627 26.0267 142.504 26.4102C142.32 26.9853 141.987 27.5015 141.539 27.9059C140.977 28.3953 140.269 28.6856 139.524 28.7321C138.78 28.7785 138.042 28.5785 137.423 28.163C136.929 27.816 136.535 27.3452 136.281 26.7978C136.11 26.4341 136.011 26.0405 135.99 25.6391C135.963 25.4982 135.966 25.3532 135.998 25.2135Z" fill="#263238"/>
<path d="M120.564 46.6433C120.114 46.0155 116.962 45.4804 117.232 44.9579C117.577 44.2669 120.493 45.6658 120.75 45.7669C121.007 45.8681 121.146 45.4973 120.91 45.4172C120.573 45.3077 117.059 44.0436 117.396 43.3653C117.581 42.9903 118.239 43.4074 118.239 43.4074C118.239 43.4074 121.445 44.8315 121.609 44.5071C121.774 44.1827 119.903 43.2726 119.254 43.0155C118.605 42.7585 118.47 42.3498 118.812 42.1728C119.043 42.0422 121.041 42.788 121.673 43.0619C122.305 43.3358 124.036 44.1068 123.476 43.024L123.451 42.9734C122.873 41.9242 122.776 40.9257 122.945 40.6181C122.989 40.5559 123.05 40.507 123.12 40.4765C123.19 40.4461 123.267 40.4353 123.343 40.4452C123.419 40.4552 123.49 40.4855 123.55 40.533C123.61 40.5806 123.656 40.6434 123.682 40.715C123.71 40.7657 123.725 40.8218 123.729 40.8793C123.729 40.9088 123.729 40.9425 123.729 40.972C123.845 41.365 124.002 41.7448 124.196 42.1054C124.366 42.4317 124.588 42.7278 124.854 42.9818C125.166 43.2726 125.444 43.5127 125.696 43.7065C127.803 44.0858 133.812 44.9369 139.074 43.5928C140.026 43.3484 143.397 32.6841 143.397 32.6841L149.831 35.8147C149.57 37.0787 148.411 40.2389 146.734 45.5815C143.991 54.3035 123.982 48.1855 123.982 48.1855L123.805 48.1644C122.387 47.9774 120.98 47.7144 119.591 47.3765C117.88 46.8751 117.906 46.7192 118.007 46.5338C118.234 45.9903 121.019 47.2754 120.564 46.6433Z" fill="#FFBE9D"/>
<path d="M139.534 41.722C139.626 41.2784 139.754 40.843 139.917 40.42L140.916 37.3147C141.278 36.1265 141.607 35.0521 141.872 34.1925C141.982 33.7615 142.122 33.339 142.293 32.9285C142.237 33.3777 142.144 33.8215 142.015 34.2557C141.809 35.0689 141.501 36.1813 141.118 37.399C140.734 38.6167 140.351 39.7122 140.052 40.4917C139.913 40.9151 139.739 41.3266 139.534 41.722Z" fill="#263238"/>
<path d="M145.458 25.441C145.458 25.441 149.873 26.229 150.05 33.4467C150.141 37.84 149.202 42.1936 147.307 46.1587L139.534 42.0885C141.279 38.5967 142.592 34.9051 143.444 31.0955L145.454 25.4368L145.458 25.441Z" fill="#FCD924"/>
<path d="M139.373 41.9832C139.77 42.1489 140.155 42.3432 140.524 42.5647C141.227 42.9355 142.209 43.4453 143.288 43.9762C144.366 44.5071 145.395 44.9495 146.111 45.2697C146.513 45.421 146.903 45.6027 147.278 45.8133C146.858 45.7186 146.447 45.5846 146.052 45.413C145.306 45.1307 144.286 44.7009 143.191 44.1742C142.095 43.6475 141.13 43.1082 140.448 42.6995C140.068 42.4959 139.708 42.2561 139.373 41.9832Z" fill="#263238"/>
<path d="M149.886 37.1082C149.871 37.5465 149.815 37.9825 149.718 38.4102C149.574 39.2065 149.334 40.302 149.01 41.4945C148.685 42.6869 148.344 43.7571 148.087 44.5239C147.967 44.9454 147.81 45.3556 147.619 45.7501C147.69 45.3204 147.797 44.8976 147.939 44.486L148.782 41.4439C149.107 40.2557 149.372 39.1728 149.553 38.3849C149.633 37.9518 149.744 37.5251 149.886 37.1082Z" fill="#263238"/>
<path d="M144.185 11.4102C144.678 11.6035 145.091 11.9596 145.353 12.4194C145.616 12.8793 145.714 13.4152 145.63 13.9382C146.168 13.9822 146.678 14.193 147.089 14.5413C147.5 14.8896 147.792 15.3578 147.924 15.8803C148.056 16.4029 148.021 16.9536 147.824 17.4554C147.628 17.9571 147.279 18.3848 146.827 18.6784C147.216 19.2143 147.398 19.8723 147.341 20.5318C147.284 21.1913 146.99 21.808 146.515 22.2689C146.04 22.7297 145.415 23.0038 144.754 23.0409C144.093 23.0779 143.441 22.8754 142.917 22.4705C142.658 22.9461 142.261 23.3315 141.777 23.5754C141.294 23.8193 140.748 23.9101 140.212 23.8357C139.134 23.6644 138.163 23.0869 137.498 22.2219C137.046 22.7728 136.414 23.1458 135.713 23.2751C135.013 23.4044 134.289 23.2815 133.67 22.9282C133.052 22.575 132.578 22.0141 132.333 21.345C132.088 20.6759 132.088 19.9417 132.333 19.2725C131.903 19.2183 131.505 19.0172 131.206 18.7031C130.907 18.3891 130.726 17.9814 130.694 17.5492C130.674 17.1157 130.767 16.6844 130.962 16.297C131.158 15.9096 131.45 15.579 131.81 15.3371C131.81 15.3371 129.703 11.8315 133.694 12.0801" fill="#263238"/>
<path d="M142.576 25.5676L143.094 13.2768L138.164 9.5437L133.685 11.7347C133.685 11.7347 133.538 17.3597 133.685 19.7993C133.833 22.2389 136.293 22.4959 136.293 22.4959C136.293 22.4959 136.222 23.8442 136.146 25.26C136.103 26.1005 136.391 26.9243 136.949 27.5546C137.507 28.1848 138.29 28.5712 139.129 28.6308C139.558 28.6628 139.989 28.6083 140.396 28.4705C140.804 28.3328 141.179 28.1146 141.501 27.8288C141.822 27.5431 142.083 27.1957 142.268 26.8073C142.452 26.4188 142.557 25.9973 142.576 25.5676Z" fill="#FFBE9D"/>
<path d="M134.191 15.7459C134.191 15.8075 134.209 15.8678 134.243 15.9191C134.278 15.9704 134.326 16.0103 134.383 16.0339C134.44 16.0575 134.503 16.0637 134.563 16.0517C134.624 16.0397 134.68 16.01 134.723 15.9664C134.767 15.9227 134.796 15.8672 134.808 15.8067C134.82 15.7462 134.814 15.6835 134.791 15.6266C134.767 15.5696 134.727 15.5209 134.676 15.4866C134.625 15.4524 134.564 15.4341 134.503 15.4341C134.42 15.4341 134.341 15.4669 134.282 15.5254C134.224 15.5839 134.191 15.6632 134.191 15.7459Z" fill="#263238"/>
<path d="M133.888 15.4045C133.93 15.4467 134.161 15.2528 134.494 15.2318C134.827 15.2107 135.084 15.375 135.118 15.3329C135.152 15.2908 135.093 15.236 134.983 15.1601C134.835 15.0634 134.659 15.0175 134.482 15.0295C134.306 15.0409 134.138 15.1072 134.001 15.2191C133.9 15.3118 133.871 15.3877 133.888 15.4045Z" fill="#263238"/>
<path d="M137.806 15.7459C137.805 15.8086 137.823 15.8701 137.857 15.9226C137.891 15.9751 137.94 16.0163 137.998 16.0408C138.056 16.0654 138.119 16.0722 138.181 16.0605C138.243 16.0488 138.299 16.0191 138.344 15.975C138.389 15.931 138.419 15.8747 138.432 15.8133C138.444 15.7519 138.438 15.6881 138.414 15.6302C138.391 15.5722 138.35 15.5226 138.298 15.4876C138.246 15.4527 138.185 15.4341 138.122 15.4341C138.039 15.4341 137.959 15.4668 137.9 15.5251C137.841 15.5835 137.807 15.6628 137.806 15.7459Z" fill="#263238"/>
<path d="M137.616 15.4931C137.658 15.5352 137.89 15.3372 138.223 15.3203C138.556 15.3035 138.813 15.4636 138.847 15.4172C138.88 15.3709 138.847 15.3245 138.712 15.2487C138.564 15.1514 138.387 15.1055 138.21 15.1181C138.034 15.1295 137.866 15.1958 137.73 15.3077C137.616 15.3962 137.616 15.4762 137.616 15.4931Z" fill="#263238"/>
<path d="M136.31 22.4959C137.47 22.4491 138.591 22.0703 139.542 21.4046C139.542 21.4046 138.724 23.1995 136.276 23.09L136.31 22.4959Z" fill="#EB996E"/>
<path d="M136.403 18.333C136.222 18.2899 136.037 18.2672 135.851 18.2656C135.767 18.2656 135.683 18.2656 135.666 18.1855C135.653 18.0916 135.669 17.996 135.712 17.9116C135.784 17.6925 135.86 17.4608 135.944 17.2164C136.104 16.7192 136.239 16.2684 136.331 15.9523C136.394 15.778 136.436 15.597 136.458 15.413C136.363 15.5722 136.291 15.7438 136.243 15.9229C136.125 16.2473 135.973 16.6897 135.822 17.1869L135.602 17.8863C135.553 17.9974 135.541 18.1218 135.569 18.2403C135.582 18.2696 135.602 18.2954 135.627 18.3159C135.652 18.3363 135.681 18.3508 135.712 18.3583C135.759 18.3664 135.808 18.3664 135.855 18.3583C136.038 18.3722 136.222 18.3637 136.403 18.333Z" fill="#263238"/>
<path d="M134.755 9.36666C134.587 9.32642 134.417 9.29687 134.246 9.27817C134.054 9.27364 133.865 9.32495 133.701 9.42586C133.538 9.52676 133.408 9.67292 133.326 9.84656C133.245 10.0202 133.215 10.2138 133.241 10.4039C133.268 10.594 133.349 10.7723 133.474 10.9172C133.673 11.149 133.871 11.2122 133.858 11.2459C133.845 11.2796 133.626 11.2459 133.365 11.0225C133.236 10.8978 133.138 10.7438 133.081 10.5734C133.024 10.4031 133.009 10.2215 133.037 10.0441C133.065 9.86671 133.136 9.6987 133.243 9.55435C133.35 9.41 133.49 9.29359 133.651 9.21497C133.84 9.12934 134.049 9.09867 134.254 9.12648C134.616 9.17705 134.772 9.3498 134.755 9.36666Z" fill="#263238"/>
<path d="M130.925 19.6476C130.925 19.6476 130.959 19.576 130.955 19.458C130.953 19.3793 130.924 19.3036 130.874 19.2432C130.823 19.1828 130.754 19.1412 130.677 19.1251C130.621 19.1187 130.565 19.1235 130.511 19.1392C130.457 19.1548 130.407 19.1811 130.363 19.2164C130.32 19.2517 130.284 19.2954 130.257 19.3448C130.231 19.3943 130.214 19.4485 130.209 19.5043C130.204 19.6498 130.248 19.7926 130.335 19.9096C130.421 20.0267 130.545 20.111 130.685 20.149C130.829 20.1925 130.981 20.1999 131.128 20.1705C131.275 20.1411 131.412 20.0758 131.528 19.9805C131.723 19.8156 131.854 19.5875 131.899 19.3358C131.924 19.2552 131.931 19.1702 131.92 19.0866C131.909 19.003 131.88 18.9227 131.836 18.8512C131.764 18.7543 131.688 18.7417 131.692 18.7248C131.696 18.708 131.781 18.6911 131.899 18.7923C131.967 18.8676 132.017 18.9579 132.044 19.056C132.071 19.154 132.075 19.2571 132.055 19.3569C132.023 19.6557 131.884 19.9329 131.663 20.1364C131.521 20.2597 131.351 20.3446 131.167 20.383C130.983 20.4213 130.793 20.4119 130.614 20.3555C130.427 20.3017 130.265 20.1851 130.154 20.0254C130.043 19.8657 129.991 19.6727 130.007 19.4791C130.019 19.3942 130.049 19.3129 130.095 19.2403C130.141 19.1678 130.201 19.1056 130.272 19.0577C130.398 18.9791 130.549 18.9533 130.694 18.9861C130.755 19.0016 130.812 19.0299 130.861 19.0692C130.911 19.1084 130.951 19.1576 130.98 19.2136C131.022 19.2939 131.037 19.3855 131.022 19.4748C131.014 19.6139 130.934 19.6602 130.925 19.6476Z" fill="#263238"/>
<path d="M146.591 17.5071C146.658 17.6334 146.747 17.7474 146.852 17.8442C146.978 17.9505 147.132 18.0179 147.295 18.038C147.51 18.0616 147.727 18.0111 147.91 17.8947C148.141 17.7292 148.322 17.5033 148.434 17.2417C148.545 16.9802 148.583 16.693 148.542 16.4116C148.523 16.0741 148.421 15.7468 148.243 15.4593C148.15 15.3106 148.027 15.1828 147.882 15.0841C147.737 14.9855 147.573 14.9181 147.4 14.8863C147.239 14.8501 147.071 14.8542 146.911 14.8983C146.752 14.9424 146.606 15.0251 146.486 15.1391L145.951 15.6911L146.313 15.0169C146.617 14.5101 146.754 13.9205 146.705 13.3315C146.681 13.1051 146.601 12.8884 146.471 12.7013C146.342 12.5142 146.167 12.3629 145.963 12.2613C145.825 12.1999 145.675 12.1681 145.523 12.1681C145.371 12.1681 145.221 12.1999 145.083 12.2613C144.889 12.3582 144.817 12.4677 144.8 12.4551C144.784 12.4425 144.847 12.3245 145.045 12.1981C145.189 12.1115 145.352 12.059 145.52 12.0444C145.688 12.0298 145.857 12.0535 146.014 12.1138C146.249 12.2167 146.453 12.3786 146.607 12.5839C146.76 12.7892 146.858 13.0308 146.89 13.2852C146.956 13.9109 146.82 14.5413 146.503 15.0843L146.33 14.9621C146.474 14.8221 146.651 14.7194 146.844 14.6629C147.037 14.6064 147.241 14.5977 147.438 14.6377C147.64 14.6754 147.832 14.7553 148.001 14.8722C148.17 14.9891 148.313 15.1403 148.42 15.3161C148.616 15.6339 148.727 15.9964 148.744 16.3694C148.766 16.7058 148.707 17.0425 148.571 17.3512C148.452 17.6251 148.246 17.8528 147.986 18C147.771 18.1263 147.519 18.1726 147.274 18.1307C147.092 18.095 146.925 18.0071 146.793 17.8779C146.578 17.7051 146.583 17.5029 146.591 17.5071Z" fill="#263238"/>
<path d="M144.156 15.8723C144.466 15.0855 144.559 14.2298 144.425 13.3948C144.372 12.6959 144.124 12.026 143.709 11.4608C143.497 11.1823 143.212 10.9684 142.885 10.8434C142.558 10.7183 142.203 10.687 141.859 10.7529C141.851 10.2936 141.701 9.84795 141.432 9.47613C141.162 9.10432 140.784 8.8242 140.35 8.67356C139.916 8.52292 139.447 8.509 139.004 8.63369C138.562 8.75839 138.169 9.01568 137.878 9.37088C137.339 8.86711 136.645 8.56109 135.91 8.5029C135.545 8.47781 135.18 8.54135 134.846 8.6881C134.511 8.83485 134.217 9.06045 133.989 9.3456C133.767 9.6374 133.644 9.9916 133.635 10.3578C133.627 10.7239 133.734 11.0834 133.942 11.3849C133.724 11.4595 133.528 11.5881 133.373 11.7587C133.218 11.9294 133.109 12.1365 133.056 12.3609C133.002 12.5852 133.007 12.8194 133.068 13.0416C133.13 13.2638 133.247 13.4667 133.408 13.6315C133.569 13.7963 133.77 13.9176 133.99 13.984C134.211 14.0505 134.445 14.0599 134.671 14.0114C134.896 13.963 135.106 13.8582 135.28 13.7069C135.454 13.5556 135.586 13.3627 135.666 13.1462C135.735 13.4631 135.919 13.7431 136.183 13.9316C136.447 14.1201 136.772 14.2036 137.094 14.1658C137.415 14.1135 137.717 13.9793 137.971 13.7764C138.224 13.5734 138.422 13.3085 138.543 13.0071C138.558 13.4765 138.738 13.9257 139.052 14.275C139.366 14.6244 139.793 14.8514 140.258 14.9158C140.489 14.9378 140.723 14.9149 140.945 14.8484C140.767 15.0361 140.635 15.2636 140.563 15.5122C140.49 15.7607 140.478 16.023 140.527 16.2773C140.576 16.5316 140.685 16.7705 140.845 16.9742C141.005 17.1778 141.211 17.3403 141.447 17.4481C141.267 17.515 141.109 17.6282 140.987 17.7762C140.866 17.9242 140.786 18.1018 140.755 18.2908C140.694 18.667 140.729 19.0525 140.857 19.4116C141.168 20.4565 141.906 22.0787 142.917 22.4874C143.928 22.8962 145.213 21.9439 145.74 20.9874L144.156 15.8723Z" fill="#263238"/>
<path d="M137.616 18.7501C137.549 18.6912 137.47 18.6469 137.384 18.6201C137.298 18.5932 137.208 18.5844 137.119 18.5942C137.03 18.6055 136.944 18.6354 136.867 18.6818C136.79 18.7283 136.724 18.7903 136.672 18.8639C136.603 18.9554 136.57 19.0695 136.58 19.1841C136.591 19.2562 136.618 19.325 136.658 19.3855C136.699 19.4459 136.753 19.4966 136.816 19.5338C136.905 19.5937 137.008 19.6315 137.115 19.6439C137.222 19.6564 137.33 19.6432 137.431 19.6054C137.531 19.5661 137.618 19.5002 137.684 19.4148C137.749 19.3294 137.79 19.2278 137.802 19.1209C137.811 19.025 137.787 18.9288 137.735 18.8483C137.682 18.7678 137.603 18.7079 137.511 18.6785" fill="#EB996E"/>
<path d="M137.798 18.5015C137.852 18.5225 137.722 18.9228 137.326 19.1756C136.93 19.4284 136.521 19.42 136.525 19.361C136.529 19.302 136.862 19.2262 137.203 18.9902C137.545 18.7543 137.743 18.472 137.798 18.5015Z" fill="#263238"/>
<path d="M132.695 53.0731C132.695 53.0731 126.64 83.8905 127.302 85.3526C127.963 86.8147 150.383 110.633 150.383 110.633L157.125 102.455C157.125 102.455 138.468 81.6321 138.586 81.0717C138.704 80.5113 145.196 50.8105 145.196 50.8105L132.695 53.0731Z" fill="#263238"/>
<path d="M148.744 109.513C148.81 109.377 148.894 109.251 148.993 109.138L149.709 108.185C150.316 107.385 151.159 106.277 152.064 105.042C152.97 103.808 153.779 102.674 154.361 101.853C154.635 101.478 154.866 101.153 155.056 100.888C155.134 100.763 155.228 100.648 155.334 100.546C155.283 100.684 155.214 100.815 155.128 100.934C154.984 101.174 154.765 101.52 154.491 101.941C153.939 102.784 153.152 103.934 152.241 105.173C151.331 106.412 150.472 107.507 149.831 108.282C149.511 108.67 149.246 108.982 149.056 109.192C148.967 109.313 148.862 109.421 148.744 109.513Z" fill="#455A64"/>
<path d="M134.503 52.4958L133.635 52.7191L134.014 57.7374C132.489 65.9789 129.438 83.3848 129.83 88.6643C130.348 95.6671 131.574 117.118 131.574 117.118L141.594 115.58L140.844 89.6671L143.001 79.0576L148.736 59.8399C149.708 56.5774 149.385 53.0655 147.834 50.0351L147.307 48.9944" fill="#263238"/>
<path d="M141.35 51.7122C141.388 51.7122 141.409 52.0492 141.59 52.5549C141.826 53.215 142.238 53.7979 142.782 54.2402C143.265 54.6157 143.832 54.8686 144.434 54.9776C144.776 55.0354 145.123 55.058 145.47 55.045C145.542 55.045 145.571 55.0745 145.571 55.0872C145.571 55.0998 145.534 55.0872 145.466 55.0872C145.117 55.1694 144.755 55.1851 144.4 55.1335C143.715 55.0482 143.069 54.763 142.545 54.3134C142.02 53.8639 141.64 53.2698 141.451 52.6054C141.344 52.3205 141.309 52.0137 141.35 51.7122Z" fill="#455A64"/>
<path d="M131.397 114.788C131.52 114.73 131.648 114.688 131.781 114.662C132.029 114.59 132.392 114.501 132.843 114.4C133.74 114.194 134.992 113.937 136.382 113.709C137.772 113.482 139.036 113.322 139.955 113.229C140.414 113.183 140.798 113.153 141.042 113.14C141.182 113.122 141.324 113.122 141.463 113.14C140.979 113.259 140.486 113.342 139.989 113.389C139.079 113.52 137.819 113.705 136.433 113.933C135.046 114.16 133.795 114.388 132.889 114.556C132.397 114.665 131.899 114.743 131.397 114.788Z" fill="#455A64"/>
<path d="M134.014 57.7332C134.013 57.8368 134 57.94 133.976 58.0408C133.938 58.2641 133.887 58.5548 133.828 58.9214C133.685 59.7051 133.487 60.8006 133.243 62.1447C132.75 64.8709 132.071 68.6293 131.452 72.8048C130.833 76.9804 130.428 80.781 130.188 83.5408C130.074 84.9186 129.994 86.0352 129.944 86.8062C129.914 87.177 129.893 87.472 129.876 87.6953C129.874 87.7988 129.862 87.9019 129.838 88.0029C129.831 87.8991 129.831 87.7949 129.838 87.6911C129.838 87.4678 129.838 87.1728 129.864 86.802C129.864 86.0267 129.944 84.9102 130.041 83.5281C130.226 80.7641 130.609 76.9551 131.229 72.7753C131.848 68.5956 132.552 64.8329 133.083 62.1152C133.348 60.7585 133.571 59.663 133.736 58.9046C133.812 58.5422 133.879 58.2557 133.925 58.0324C133.946 57.9301 133.975 57.83 134.014 57.7332Z" fill="#455A64"/>
<path d="M143.119 78.67C143.116 78.7454 143.104 78.8202 143.086 78.8933C143.048 79.0618 143.005 79.2683 142.951 79.5253C142.828 80.1026 142.664 80.8863 142.466 81.8427C142.045 83.8062 141.539 86.5239 140.983 89.5239C140.983 89.5829 140.983 89.6377 140.953 89.6882L140.844 89.5576C140.861 89.5584 140.877 89.5625 140.892 89.5698C140.908 89.577 140.921 89.5872 140.932 89.5998C140.935 89.608 140.935 89.6168 140.932 89.625V89.6587C140.934 89.6742 140.934 89.6897 140.932 89.7051V89.7851V89.9284L140.958 90.2107L140.996 90.7669C141.012 91.1349 141.029 91.4972 141.046 91.854C141.046 92.5618 141.088 93.2486 141.109 93.9017C141.135 95.1995 141.16 96.3708 141.177 97.3652C141.194 98.3596 141.177 99.118 141.198 99.6995C141.198 99.9523 141.198 100.163 141.198 100.331C141.208 100.406 141.208 100.481 141.198 100.555C141.179 100.483 141.17 100.41 141.173 100.336C141.173 100.163 141.152 99.9565 141.139 99.6995C141.114 99.118 141.084 98.3301 141.05 97.3694C140.983 95.3764 140.89 92.6714 140.789 89.6756L140.68 89.6503L140.713 89.486C141.269 86.4818 141.821 83.7683 142.26 81.8132C142.479 80.8357 142.681 80.0436 142.812 79.5043C142.883 79.2304 142.946 79.0239 142.989 78.8807C143.02 78.8038 143.064 78.7326 143.119 78.67Z" fill="#455A64"/>
<path d="M64.7779 17.8063C64.8156 18.2285 64.7944 18.654 64.7148 19.0703C64.6658 19.4083 64.5573 19.735 64.3945 20.0352C64.1576 20.4865 63.8931 20.9227 63.6024 21.3414C63.6024 21.3414 52.8201 27.1729 50.8398 27.7838C48.8594 28.3948 39.7541 24.413 39.7541 24.413C38.9077 26.6985 37.7751 28.8674 36.3833 30.8681C36.3833 30.8681 44.5111 33.8681 50.8018 34.3863C54.8046 34.7192 67.0027 24.9566 67.0153 24.9481C68.2636 24.4773 69.4859 23.94 70.6768 23.3386C72.3117 22.4285 72.2316 22.2768 72.0925 22.1082C71.7175 21.6448 69.1431 23.604 69.4633 22.8625C69.7836 22.1209 72.8763 20.8316 72.4675 20.3639C71.9324 19.7571 69.2906 21.8554 69.0504 22.0198C68.8102 22.1841 68.5743 21.8428 68.7934 21.708C69.1136 21.5141 72.4086 19.4074 71.8903 18.8049C71.6038 18.472 71.0476 19.0408 71.0476 19.0408C71.0476 19.0408 68.0982 21.2403 67.8749 20.9495C67.6515 20.6588 69.3159 19.3021 69.9142 18.8891C70.5125 18.4762 70.5546 18.0465 70.1544 17.9158C69.8805 17.84 68.0181 19.0703 67.4324 19.4917C66.8468 19.913 65.2709 21.1097 65.5701 19.8877C65.8692 18.6658 65.6417 17.6167 65.3847 17.3597C65.1277 17.1026 64.7232 17.4229 64.7779 17.8063Z" fill="#B78876"/>
<path d="M113.528 51.4509L43.6222 33.4214L52.0702 1.38208L121.942 19.5253L113.528 51.4509Z" fill="#E0E0E0"/>
<path d="M111.767 31.6307L111.619 31.597L111.198 31.4917L109.546 31.0703L103.462 29.4228L83.4101 23.979C75.5731 21.8723 68.4734 19.9636 63.3287 18.6153L57.236 17.0184L55.5801 16.597L55.1588 16.479L55.0155 16.4327C55.0655 16.4355 55.1149 16.4439 55.163 16.458L55.5843 16.5549L57.2697 16.9552C58.7149 17.3007 60.8006 17.8273 63.3793 18.4804C68.5366 19.795 75.6405 21.6658 83.4776 23.7852C91.3146 25.9046 98.3722 27.8175 103.487 29.2543L109.551 30.9692L111.194 31.4453L111.615 31.5759C111.668 31.5881 111.719 31.6065 111.767 31.6307Z" fill="#263238"/>
<path d="M109.61 37.5422L109.462 37.5127L109.041 37.4032L107.385 36.9818L101.305 35.3343L81.2402 29.8737C73.4032 27.7669 66.3034 25.8624 61.1588 24.5099L55.0661 22.9172L53.4102 22.4959L52.9888 22.3779C52.9391 22.3674 52.8909 22.3504 52.8456 22.3273C52.8952 22.3328 52.9444 22.3413 52.9931 22.3526L53.4144 22.4537L55.0998 22.8498C56.545 23.1953 58.6307 23.722 61.2093 24.3751C66.3666 25.6897 73.4706 27.5647 81.3076 29.6799C89.1447 31.795 96.2276 33.7543 101.347 35.1869L107.41 36.8975L109.053 37.3779L109.475 37.5085C109.521 37.5143 109.566 37.5256 109.61 37.5422Z" fill="#263238"/>
<path d="M73.0408 33.9523C72.9662 33.9509 72.8923 33.9382 72.8217 33.9144L72.2023 33.7711L69.9228 33.1939L62.4059 31.2093L54.8933 29.1658L52.618 28.5211L52.0029 28.3357C51.9282 28.318 51.856 28.2911 51.788 28.2557C51.8608 28.2565 51.9332 28.2678 52.0029 28.2894L52.6265 28.4369L54.9059 29.0141L62.4228 30.9944L69.9312 33.0422L72.2065 33.6869L72.8259 33.8722C72.9002 33.891 72.9723 33.9179 73.0408 33.9523Z" fill="#263238"/>
<path d="M85.719 18.9354C85.6134 18.9264 85.5089 18.9066 85.4072 18.8764L84.5224 18.6658L81.2822 17.8484L70.6221 15.0801L59.9662 12.2486L56.7176 11.3849L55.8454 11.1321C55.7412 11.1084 55.6396 11.0745 55.5421 11.0309C55.6474 11.0423 55.7516 11.0621 55.8539 11.0899L56.7387 11.3006L59.9788 12.118L70.6516 14.8905L81.3244 17.7051L84.5477 18.5857L85.4198 18.8385C85.5227 18.8602 85.623 18.8927 85.719 18.9354Z" fill="#263238"/>
<path d="M5.59971 112.053L8.12779 109.698L3.74578 104.899L0 108.295L0.252799 108.611C1.38622 110.001 6.12639 115.605 7.20504 116.246C8.40588 116.97 5.59971 112.053 5.59971 112.053Z" fill="#FCD924"/>
<g opacity="0.4">
<path opacity="0.4" d="M6.89747 114.522C6.89747 114.522 7.79072 116.326 7.39465 116.364C6.99859 116.402 1.99298 110.92 0 108.295L0.113759 108.202L5.89465 114.649C5.89465 114.649 6.63202 114.253 6.89747 114.522Z" fill="white"/>
</g>
<path d="M0.0463867 108.139C0.0668853 108.17 0.0894078 108.2 0.113804 108.228L0.316056 108.48L1.07448 109.386C1.71914 110.149 2.62925 111.19 3.65312 112.336C4.677 113.482 5.62925 114.442 6.32869 115.176L7.17138 116.018L7.39892 116.246L7.48318 116.317C7.46266 116.287 7.43862 116.258 7.41155 116.233L7.19245 115.997L6.37925 115.155C5.68824 114.43 4.74442 113.427 3.72054 112.298C2.69667 111.169 1.78234 110.14 1.12504 109.386L0.349758 108.497L0.134866 108.257L0.0463867 108.139Z" fill="#263238"/>
<path d="M5.81885 114.729C5.99881 114.636 6.18806 114.563 6.38345 114.51C6.58501 114.486 6.78864 114.486 6.99019 114.51C6.79842 114.409 6.57615 114.384 6.36659 114.438C6.15369 114.462 5.95784 114.566 5.81885 114.729Z" fill="#263238"/>
<path d="M5.24582 112.656C5.35113 112.681 5.46075 112.681 5.56605 112.656C5.7388 112.626 5.87784 112.584 5.87363 112.563C5.76861 112.536 5.65843 112.536 5.55341 112.563C5.37645 112.593 5.24161 112.635 5.24582 112.656Z" fill="#263238"/>
<path d="M5.09412 112.087C5.09412 112.087 5.21209 112.138 5.36377 112.155C5.51546 112.171 5.63343 112.155 5.63765 112.155C5.64186 112.155 5.51968 112.104 5.36799 112.087C5.2163 112.07 5.09833 112.058 5.09412 112.087Z" fill="#263238"/>
<path d="M5.31311 111.421C5.31311 111.421 5.38474 111.56 5.50693 111.699C5.62912 111.839 5.7471 111.94 5.76396 111.927C5.78081 111.914 5.69233 111.788 5.56592 111.649C5.43952 111.51 5.33839 111.405 5.31311 111.421Z" fill="#263238"/>
<path d="M5.56592 111.042C5.58544 111.175 5.64581 111.299 5.73867 111.396C5.87772 111.573 6.0294 111.67 6.04204 111.653C6.05468 111.636 5.93249 111.514 5.80187 111.35C5.67125 111.185 5.58699 111.034 5.56592 111.042Z" fill="#263238"/>
<path d="M5.81033 112.437C5.88984 112.553 5.98643 112.657 6.09684 112.744C6.21173 112.843 6.3359 112.931 6.46763 113.006C6.54541 113.055 6.62889 113.094 6.71622 113.124C6.74215 113.135 6.77012 113.141 6.79839 113.141C6.82665 113.141 6.85462 113.135 6.88055 113.124C6.90833 113.108 6.93079 113.084 6.94505 113.056C6.95932 113.027 6.96473 112.995 6.96061 112.963C6.91145 112.793 6.8047 112.646 6.65864 112.546C6.51258 112.446 6.33632 112.4 6.16005 112.416C6.05545 112.425 5.95375 112.455 5.86089 112.504C5.82545 112.52 5.79381 112.543 5.76819 112.572C5.89253 112.517 6.02485 112.483 6.16005 112.47C6.30824 112.465 6.45487 112.503 6.5814 112.58C6.73267 112.665 6.84463 112.805 6.89319 112.972C6.89319 113.052 6.82578 113.086 6.74151 113.06C6.66125 113.032 6.58368 112.997 6.50977 112.955C6.37935 112.884 6.25529 112.803 6.13898 112.711C5.9283 112.546 5.82297 112.428 5.81033 112.437Z" fill="#263238"/>
<path d="M5.86947 112.529C5.86947 112.529 5.99166 112.529 6.11385 112.369C6.18816 112.287 6.24035 112.187 6.26554 112.079C6.29114 112.008 6.29721 111.931 6.28313 111.857C6.26905 111.783 6.23533 111.714 6.18548 111.657C6.15018 111.632 6.10652 111.623 6.06395 111.63C6.02137 111.637 5.9833 111.66 5.95795 111.695C5.91483 111.746 5.8845 111.807 5.86947 111.872C5.83697 111.975 5.81854 112.081 5.8147 112.188C5.79956 112.287 5.81271 112.388 5.85262 112.479C5.85262 112.479 5.85262 112.365 5.85262 112.192C5.86523 112.091 5.88781 111.991 5.92003 111.893C5.94531 111.792 6.03801 111.657 6.12228 111.72C6.15465 111.767 6.17633 111.821 6.18579 111.877C6.19526 111.933 6.19227 111.99 6.17705 112.045C6.15707 112.143 6.11532 112.235 6.05487 112.315C5.96638 112.475 5.86105 112.508 5.86947 112.529Z" fill="#263238"/>
<path d="M1.44946 107.031C1.44946 107.031 1.58852 107.157 1.76127 107.398C1.98615 107.709 2.12032 108.076 2.1489 108.459C2.17162 108.844 2.08857 109.227 1.90874 109.567C1.7697 109.829 1.63486 109.964 1.6475 109.989C1.66014 110.014 1.68542 109.964 1.74441 109.9C1.82522 109.813 1.8959 109.717 1.95509 109.614C2.15971 109.27 2.25518 108.873 2.22884 108.474C2.20251 108.075 2.05561 107.694 1.80761 107.381C1.7331 107.286 1.64987 107.199 1.55902 107.119C1.4916 107.06 1.45368 107.031 1.44946 107.031Z" fill="#263238"/>
<path d="M3.90166 105.712C3.54415 105.973 3.20227 106.254 2.87779 106.555C2.53676 106.84 2.21315 107.145 1.90869 107.469C2.26573 107.208 2.60757 106.927 2.93256 106.626C3.27299 106.341 3.59656 106.035 3.90166 105.712Z" fill="#263238"/>
<path d="M2.64612 110.191C2.8008 110.469 2.9921 110.726 3.21493 110.954C3.41888 111.201 3.65399 111.42 3.91437 111.607C3.91437 111.607 3.62364 111.291 3.27392 110.903C2.9242 110.515 2.66297 110.178 2.64612 110.191Z" fill="#263238"/>
<path d="M1.78662 109.247C1.76555 109.247 1.74448 109.336 1.70235 109.433C1.66021 109.53 1.61387 109.605 1.62651 109.622C1.63915 109.639 1.72763 109.576 1.77398 109.462C1.82033 109.348 1.80769 109.247 1.78662 109.247Z" fill="#263238"/>
<path d="M1.90443 108.489C1.88336 108.489 1.86229 108.565 1.85807 108.662C1.85386 108.758 1.85808 108.834 1.88757 108.838C1.91706 108.843 1.9297 108.763 1.93813 108.666C1.94656 108.569 1.94235 108.493 1.90443 108.489Z" fill="#263238"/>
<path d="M1.64319 107.798C1.64319 107.819 1.68953 107.882 1.73167 107.975C1.7738 108.067 1.77802 108.152 1.79909 108.156C1.82015 108.16 1.85386 108.055 1.79909 107.941C1.74431 107.827 1.65583 107.781 1.64319 107.798Z" fill="#263238"/>
<path d="M1.41143 107.351C1.39036 107.351 1.39036 107.41 1.41143 107.461C1.4325 107.511 1.46622 107.553 1.48728 107.545C1.50835 107.537 1.48728 107.486 1.48728 107.435C1.48728 107.385 1.4325 107.343 1.41143 107.351Z" fill="#263238"/>
<g opacity="0.3">
<path opacity="0.3" d="M1.58423 106.926L6.0421 111.653L6.61091 111.118L2.18255 106.327L1.58423 106.926Z" fill="black"/>
</g>
<path d="M55.1881 115.9L53.7682 112.732L47.8145 115.34L49.8328 120L50.2162 119.861C51.9016 119.233 58.7274 116.545 59.6797 115.728C60.7457 114.822 55.1881 115.9 55.1881 115.9Z" fill="#FCD924"/>
<g opacity="0.4">
<path opacity="0.4" d="M57.9396 115.458C57.9396 115.458 59.9368 115.192 59.8441 115.58C59.7514 115.968 52.9508 118.951 49.8371 119.996L49.7907 119.857L57.75 116.452C57.75 116.452 57.6025 115.626 57.9396 115.458Z" fill="white"/>
</g>
<path d="M49.6938 119.899C49.7317 119.893 49.7685 119.881 49.8033 119.865L50.1025 119.756L51.2064 119.334C52.1334 118.968 53.4101 118.445 54.809 117.834C56.2078 117.223 57.455 116.646 58.3567 116.212L59.4185 115.694L59.705 115.546C59.7724 115.513 59.8061 115.496 59.8019 115.492L59.7008 115.534L59.4059 115.664L58.3314 116.162C57.4255 116.583 56.1741 117.152 54.7753 117.763C53.3764 118.374 52.1081 118.904 51.1854 119.284L50.0941 119.735L49.7949 119.861C49.7595 119.868 49.7254 119.881 49.6938 119.899Z" fill="#263238"/>
<path d="M57.7879 116.553C57.7592 116.352 57.7521 116.149 57.7668 115.947C57.8071 115.748 57.8692 115.554 57.9522 115.369C57.7972 115.518 57.7026 115.719 57.6868 115.934C57.6471 116.146 57.6829 116.365 57.7879 116.553Z" fill="#263238"/>
<path d="M55.6432 116.427C55.6643 116.427 55.7022 116.292 55.7317 116.119C55.7565 116.013 55.7565 115.902 55.7317 115.795C55.7106 115.795 55.6685 115.93 55.6432 116.107C55.6183 116.212 55.6183 116.322 55.6432 116.427Z" fill="#263238"/>
<path d="M55.0323 116.385C55.0323 116.385 55.1166 116.292 55.1798 116.153C55.243 116.014 55.2767 115.896 55.2556 115.888C55.2345 115.879 55.1713 115.985 55.1081 116.119C55.0449 116.254 55.0323 116.376 55.0323 116.385Z" fill="#263238"/>
<path d="M54.4971 115.955C54.6129 115.95 54.7257 115.917 54.8258 115.858C54.9985 115.787 55.1291 115.711 55.1207 115.69C55.0071 115.7 54.8968 115.733 54.7963 115.787C54.6865 115.823 54.5848 115.88 54.4971 115.955Z" fill="#263238"/>
<path d="M54.2191 115.605C54.3517 115.631 54.489 115.613 54.6109 115.555C54.7411 115.523 54.8585 115.452 54.948 115.353C54.8231 115.382 54.7017 115.424 54.5856 115.479C54.4604 115.512 54.3378 115.554 54.2191 115.605Z" fill="#263238"/>
<path d="M55.618 115.82C55.7529 115.786 55.8811 115.729 55.9972 115.652C56.1287 115.573 56.2528 115.483 56.368 115.382C56.4384 115.323 56.502 115.257 56.5576 115.184C56.5916 115.138 56.6067 115.081 56.5997 115.024C56.5931 114.993 56.5776 114.964 56.5552 114.942C56.5327 114.92 56.5043 114.904 56.4733 114.897C56.2961 114.89 56.1218 114.944 55.9803 115.051C55.8388 115.158 55.739 115.311 55.698 115.483C55.6756 115.584 55.6756 115.689 55.698 115.791C55.7013 115.829 55.7128 115.867 55.7317 115.9C55.7192 115.759 55.7306 115.616 55.7654 115.479C55.8071 115.341 55.8876 115.218 55.9972 115.125C56.0607 115.067 56.1352 115.022 56.2162 114.993C56.2972 114.964 56.3832 114.952 56.4691 114.956C56.5491 114.956 56.5533 115.058 56.507 115.125C56.4546 115.193 56.3953 115.255 56.33 115.31C56.2207 115.412 56.1037 115.505 55.9803 115.588C55.757 115.744 55.6095 115.808 55.618 115.82Z" fill="#263238"/>
<path d="M55.7233 115.795C55.7337 115.695 55.7083 115.595 55.6516 115.513C55.5954 115.417 55.5174 115.336 55.4241 115.277C55.365 115.231 55.2949 115.202 55.2208 115.192C55.1468 115.183 55.0715 115.193 55.0027 115.222C54.9687 115.248 54.9458 115.286 54.9388 115.328C54.9317 115.37 54.941 115.414 54.9648 115.449C54.999 115.508 55.0467 115.557 55.1039 115.593C55.1901 115.657 55.2852 115.708 55.3862 115.744C55.475 115.788 55.5737 115.809 55.6727 115.803C55.6727 115.803 55.5674 115.77 55.4072 115.694C55.3146 115.65 55.227 115.596 55.146 115.534C55.0575 115.479 54.9606 115.348 55.0491 115.289C55.1028 115.273 55.1595 115.269 55.215 115.278C55.2705 115.287 55.3232 115.308 55.3693 115.34C55.4564 115.39 55.5312 115.459 55.5884 115.542C55.6415 115.622 55.6866 115.706 55.7233 115.795Z" fill="#263238"/>
<path d="M49.1038 118.218C49.1038 118.218 49.2681 118.125 49.5504 118.041C49.9185 117.924 50.3122 117.915 50.6854 118.014C51.0585 118.114 51.3956 118.317 51.6572 118.601C51.8594 118.816 51.9437 118.985 51.9563 118.976C51.946 118.933 51.9289 118.892 51.9058 118.854C51.8455 118.751 51.7764 118.654 51.6993 118.563C51.4408 118.263 51.0982 118.048 50.7157 117.945C50.3333 117.842 49.9288 117.856 49.5546 117.986C49.4418 118.026 49.3332 118.077 49.2302 118.138C49.1333 118.184 49.0996 118.214 49.1038 118.218Z" fill="#263238"/>
<path d="M48.6362 115.458C48.7721 115.889 48.934 116.311 49.1207 116.722C49.2814 117.137 49.4671 117.543 49.6769 117.935C49.3768 117.096 49.0294 116.275 48.6362 115.475V115.458Z" fill="#263238"/>
<path d="M52.4704 118.096C52.7853 118.04 53.0914 117.942 53.3805 117.805C53.6798 117.692 53.9631 117.54 54.2232 117.354C54.2232 117.333 53.8355 117.527 53.351 117.729C52.8664 117.931 52.4662 118.074 52.4704 118.096Z" fill="#263238"/>
<path d="M51.3033 118.605C51.3033 118.605 51.3708 118.673 51.4508 118.749C51.5309 118.824 51.5856 118.888 51.6067 118.879C51.6278 118.871 51.6067 118.77 51.5056 118.69C51.4045 118.61 51.3118 118.584 51.3033 118.605Z" fill="#263238"/>
<path d="M50.625 118.251C50.625 118.272 50.684 118.319 50.7725 118.353C50.861 118.386 50.941 118.399 50.9452 118.382C50.9494 118.365 50.8904 118.315 50.802 118.281C50.7135 118.247 50.6334 118.23 50.625 118.251Z" fill="#263238"/>
<path d="M49.8876 118.277C49.8876 118.277 49.9761 118.277 50.0772 118.251C50.1783 118.226 50.2626 118.251 50.271 118.251C50.2795 118.251 50.1952 118.171 50.073 118.184C49.9508 118.197 49.8708 118.26 49.8876 118.277Z" fill="#263238"/>
<path d="M49.3862 118.357C49.3862 118.378 49.4367 118.39 49.4915 118.39C49.5463 118.39 49.5968 118.39 49.5968 118.344C49.5968 118.298 49.5463 118.31 49.4915 118.31C49.4367 118.31 49.3862 118.331 49.3862 118.357Z" fill="#263238"/>
<g opacity="0.3">
<path opacity="0.3" d="M49.0407 118.053L54.948 115.353L54.6236 114.636L48.6657 117.295L49.0407 118.053Z" fill="black"/>
</g>
<path d="M19.8665 8.94951C20.0351 7.79502 19.2977 6.08013 19.6095 5.02676C19.7064 4.6939 19.3399 4.37788 19.2935 4.03238C19.2581 3.86153 19.2683 3.68438 19.323 3.51871C19.3777 3.35305 19.4751 3.20469 19.6053 3.08856C19.6725 3.03967 19.7495 3.00619 19.8311 2.99052C19.9127 2.97484 19.9967 2.97736 20.0772 2.99788C20.1577 3.0184 20.2326 3.05643 20.2967 3.10925C20.3608 3.16206 20.4125 3.22838 20.448 3.30345C20.5128 2.76328 20.6635 2.23696 20.8946 1.74446C21.0118 1.49517 21.1883 1.27841 21.4087 1.11313C21.629 0.947862 21.8866 0.839118 22.1587 0.796423C22.4282 0.762134 22.7005 0.833294 22.9188 0.995035C23.137 1.15678 23.2844 1.39659 23.33 1.6644C23.6355 1.09374 24.0954 0.620638 24.6573 0.299235C24.8888 0.145866 25.1527 0.0481776 25.4283 0.0138209C25.7039 -0.0205359 25.9837 0.00937144 26.2457 0.101201C26.7514 0.328729 27.0337 1.04081 26.6671 1.46637C26.9887 1.15 27.3639 0.89321 27.7752 0.707943C27.9803 0.620073 28.2046 0.587074 28.4262 0.612192C28.6479 0.63731 28.8591 0.719678 29.0393 0.8512C29.1244 0.923097 29.1933 1.01213 29.2416 1.11247C29.2899 1.21282 29.3166 1.32222 29.3197 1.43356C29.3229 1.54489 29.3026 1.65564 29.2601 1.75858C29.2176 1.86152 29.1538 1.95434 29.073 2.03098C29.5189 1.81158 29.9944 1.65829 30.4845 1.57592C30.7298 1.53445 30.981 1.5449 31.2219 1.60659C31.4629 1.66828 31.6882 1.77985 31.8834 1.93407C32.0731 2.09521 32.202 2.31635 32.2487 2.56082C32.2955 2.8053 32.2573 3.0584 32.1404 3.27816C31.8984 3.56676 31.5845 3.78626 31.2303 3.9144C31.054 3.9808 30.8956 4.08733 30.7676 4.22555C30.6396 4.36377 30.5456 4.52989 30.4929 4.71075C30.4677 4.90457 30.5267 5.10682 30.4929 5.29642C30.4559 5.42296 30.3861 5.5375 30.2907 5.62849C30.1953 5.71948 30.0776 5.7837 29.9494 5.81468C29.6937 5.87237 29.4297 5.88379 29.1699 5.84839C27.8511 5.73462 26.5407 5.51974 25.2177 5.53238C23.8816 5.49346 22.5634 5.84646 21.4255 6.54783" fill="#263238"/>
<path d="M18.6362 58.1545C18.6362 58.1545 21.4213 72.9017 20.9115 80.9958C20.4017 89.0899 14.8104 92.309 11.4733 95.6377C8.29213 98.8188 0.985962 105.131 0.985962 105.131L7.5337 112.184C7.5337 112.184 28.2598 97.2388 30.3623 87.611C31.9761 80.2163 32.6081 67.1461 32.6081 67.1461L18.6362 58.1545Z" fill="#263238"/>
<path d="M18.9396 47.0983C18.7374 47.0983 16.4832 53.7388 18.6363 58.1461C18.8511 58.5674 20.5408 61.0197 20.5408 61.0197C26.507 68.0772 34.3652 83.0815 35.1657 85.323C37.4832 91.8244 46.875 118.218 46.875 118.218L56.6714 114.038L46.6812 81.4171L33.6952 52.4916L18.9396 47.0983Z" fill="#263238"/>
<path d="M31.2008 52.4916C31.3189 52.7898 31.3623 53.1124 31.3272 53.4312C31.3002 54.2147 31.0181 54.9679 30.5238 55.5764C30.0294 56.1848 29.3498 56.6152 28.5885 56.802C28.2837 56.8998 27.9597 56.9215 27.6447 56.8652C27.6447 56.8273 28.0028 56.823 28.5463 56.6503C29.2501 56.4288 29.8758 56.0107 30.3497 55.4452C30.8154 54.8687 31.1077 54.1717 31.1924 53.4354C31.2345 52.8539 31.1671 52.5 31.2008 52.4916Z" fill="#455A64"/>
<path d="M46.8749 118.218L56.6712 114.038L56.1867 112.449L46.403 116.89L46.8749 118.218Z" fill="#455A64"/>
<path d="M23.6293 23.8526C24.0893 23.8881 24.5518 23.8304 24.989 23.683C25.4263 23.5355 25.8293 23.3014 26.1739 22.9945C26.5185 22.6877 26.7976 22.3144 26.9946 21.8972C27.1916 21.4799 27.3024 21.0272 27.3203 20.5661C27.3919 18.6995 27.4551 16.8161 27.4551 16.8161C27.4551 16.8161 30.2866 16.5507 30.493 13.7529C30.6995 10.9552 30.375 4.8414 30.375 4.8414L30.611 4.49168C27.4551 2.89899 23.9495 3.42146 21.0211 5.4018L20.4102 6.56472L20.4649 20.4692C20.473 21.3269 20.8025 22.1504 21.3885 22.7769C21.9744 23.4034 22.774 23.7873 23.6293 23.8526Z" fill="#B78876"/>
<path d="M29.6839 9.39609C29.6281 9.36326 29.5807 9.31802 29.5452 9.26388C29.5098 9.20975 29.4872 9.14816 29.4794 9.08392C29.4716 9.01967 29.4787 8.95449 29.5001 8.89342C29.5215 8.83235 29.5568 8.77705 29.603 8.73179C29.6493 8.68653 29.7054 8.65254 29.7669 8.63245C29.8284 8.61236 29.8937 8.60671 29.9578 8.61594C30.0218 8.62518 30.0829 8.64905 30.1363 8.68569C30.1896 8.72234 30.2338 8.77078 30.2654 8.82727C30.3376 8.90518 30.3778 9.00752 30.3778 9.11379C30.3778 9.22005 30.3376 9.32239 30.2654 9.4003C30.1865 9.47444 30.0821 9.51536 29.9738 9.51457C29.8655 9.51379 29.7617 9.47136 29.6839 9.39609Z" fill="#263238"/>
<path d="M30.3666 8.94529C30.3203 8.99164 30.059 8.7599 29.6714 8.73462C29.2838 8.70934 28.993 8.89052 28.9551 8.83995C28.9172 8.78939 28.9846 8.7304 29.111 8.64613C29.2837 8.53812 29.4863 8.48805 29.6894 8.5032C29.8925 8.51836 30.0855 8.59795 30.2402 8.7304C30.354 8.83152 30.3877 8.92422 30.3666 8.94529Z" fill="#263238"/>
<path d="M26.0266 8.88628C26.097 8.93295 26.1518 8.9997 26.1837 9.07786C26.2157 9.15602 26.2235 9.24198 26.206 9.32461C26.1886 9.40724 26.1466 9.48271 26.0858 9.54123C26.0249 9.59976 25.9478 9.63863 25.8646 9.65281C25.7813 9.667 25.6957 9.65583 25.6189 9.62077C25.542 9.58572 25.4775 9.52838 25.4337 9.4562C25.3898 9.38402 25.3687 9.30033 25.373 9.21598C25.3773 9.13164 25.4068 9.05053 25.4578 8.98319C25.5225 8.89771 25.6173 8.84009 25.723 8.82209C25.8287 8.80408 25.9373 8.82704 26.0266 8.88628Z" fill="#263238"/>
<path d="M26.1573 9.02955C26.1109 9.0759 25.8497 8.84837 25.4621 8.82309C25.0744 8.79781 24.7837 8.97899 24.7458 8.92842C24.7078 8.87786 24.7752 8.81888 24.9017 8.73461C25.0722 8.62263 25.2758 8.5721 25.4789 8.59134C25.682 8.60516 25.8753 8.68339 26.0309 8.81466C26.1446 8.92 26.1826 9.0127 26.1573 9.02955Z" fill="#263238"/>
<path d="M27.5266 12.0295C27.7293 11.958 27.9437 11.9251 28.1586 11.9326C28.2597 11.9326 28.3398 11.9116 28.3524 11.8568C28.3601 11.7567 28.3412 11.6564 28.2976 11.5661L28.0406 10.7613C27.7928 10.0785 27.6136 9.37279 27.5055 8.65454C27.8227 9.30724 28.0725 9.99054 28.2513 10.6939C28.3355 10.972 28.4114 11.2374 28.4914 11.4986C28.5477 11.6319 28.558 11.7801 28.5209 11.92C28.5036 11.9572 28.4778 11.99 28.4456 12.0156C28.4134 12.0411 28.3758 12.0589 28.3355 12.0675C28.2782 12.0753 28.2201 12.0753 28.1628 12.0675C27.9501 12.0906 27.735 12.0778 27.5266 12.0295Z" fill="#263238"/>
<path d="M26.2458 12.3751C26.4775 12.4804 27.316 13.0324 28.1039 13.045C27.9623 13.2357 27.7607 13.3734 27.5316 13.436C27.3024 13.4986 27.0589 13.4826 26.8399 13.3905C26.0014 13.0324 26.2458 12.3751 26.2458 12.3751Z" fill="white"/>
<path d="M27.4634 16.774C26.168 16.7176 24.9185 16.2777 23.8735 15.5099C23.8735 15.5099 24.6151 17.5788 27.4255 17.4987L27.4634 16.774Z" fill="#A36957"/>
<path d="M20.4817 8.85683C20.4817 8.74509 20.4373 8.63791 20.3583 8.5589C20.2793 8.47988 20.1721 8.43549 20.0604 8.43549C19.5379 8.43549 18.6826 8.62931 18.6025 10.0703C18.4887 12.1307 20.4691 11.6167 20.4775 11.5577C20.4859 11.4987 20.4817 9.67425 20.4817 8.85683Z" fill="#B78876"/>
<path d="M20.031 10.7613C20.031 10.7613 19.993 10.7866 19.9341 10.8118C19.8472 10.8449 19.7512 10.8449 19.6644 10.8118C19.5357 10.7208 19.4339 10.597 19.3694 10.4532C19.3049 10.3094 19.2802 10.151 19.2978 9.99442C19.3022 9.81728 19.3454 9.64326 19.4242 9.48459C19.4476 9.42128 19.4858 9.36451 19.5356 9.31905C19.5855 9.27359 19.6456 9.24077 19.7107 9.22335C19.7525 9.21514 19.7958 9.22154 19.8334 9.24149C19.871 9.26144 19.9006 9.29372 19.9172 9.3329C19.9425 9.39189 19.9172 9.43403 19.9172 9.43824C19.9172 9.44245 19.9635 9.40453 19.9509 9.32026C19.9409 9.26829 19.9143 9.22097 19.8751 9.18543C19.8212 9.13981 19.7516 9.11712 19.6812 9.12223C19.596 9.13489 19.5153 9.16897 19.4468 9.22129C19.3782 9.27361 19.3241 9.34245 19.2894 9.42138C19.1906 9.59494 19.137 9.79053 19.1335 9.9902C19.1133 10.1727 19.1473 10.3572 19.2312 10.5205C19.3151 10.6838 19.4453 10.8189 19.6054 10.9087C19.6601 10.928 19.7185 10.9346 19.7762 10.9281C19.8338 10.9215 19.8893 10.9019 19.9383 10.8708C20.0267 10.8118 20.0604 10.7655 20.031 10.7613Z" fill="#A36957"/>
<path d="M14.9157 32.8737C15.257 35.6124 16.1797 38.0141 16.205 42.5015L15.9943 52.9046L35.6502 54.0127L34.5842 41.3006L33.8763 30.472L38.2668 31.6096L40.0996 24.2908C40.0996 24.2908 35.4648 22.0535 33.8721 21.3414C28.66 18.9734 28.6895 19.9467 27.7879 19.8329C25.4567 20.5673 22.9561 20.5673 20.6249 19.8329C20.6249 19.8329 16.7528 18.7627 14.7724 23.4565C13.7401 25.8709 14.9157 32.8737 14.9157 32.8737Z" fill="#455A64"/>
<path d="M16.1799 21.1559C16.1799 21.1559 16.2346 21.1559 16.3358 21.1559C16.4797 21.1752 16.621 21.2106 16.7571 21.2613C17.2934 21.4432 17.7513 21.803 18.0549 22.2809C18.277 22.6389 18.4105 23.0447 18.4442 23.4646C18.4779 23.8846 18.4109 24.3065 18.2487 24.6953C18.0376 25.1058 17.9428 25.5662 17.9748 26.0267C18.0675 26.4818 18.4973 26.7936 18.8807 27.1686C19.0841 27.3556 19.245 27.5841 19.3526 27.8385C19.455 28.0869 19.5052 28.3536 19.5001 28.6222C19.4864 29.1259 19.3268 29.6147 19.0408 30.0295C18.9092 30.2202 18.755 30.3942 18.5816 30.5478C18.4087 30.683 18.2206 30.7976 18.0212 30.8891C17.6692 31.0426 17.302 31.1584 16.9257 31.2346C16.3862 31.3492 15.8378 31.4169 15.2866 31.4368C15.0865 31.4603 14.8842 31.4603 14.6841 31.4368C14.8817 31.4002 15.0816 31.3777 15.2824 31.3694C15.8241 31.3161 16.3618 31.2275 16.892 31.104C17.5366 30.927 18.3962 30.7037 18.8723 29.9326C19.1325 29.5501 19.2787 29.1015 19.2936 28.6391C19.2998 28.3951 19.2528 28.1527 19.1561 27.9286C19.0593 27.7046 18.915 27.5042 18.7332 27.3413C18.5521 27.1602 18.3498 26.9916 18.1686 26.7936C17.9748 26.598 17.8379 26.3533 17.7726 26.0857C17.7321 25.5858 17.8344 25.0846 18.0675 24.6405C18.2023 24.3384 18.2748 24.0123 18.2805 23.6815C18.2862 23.3508 18.225 23.0223 18.1007 22.7158C17.9763 22.4093 17.7914 22.1311 17.5569 21.8978C17.3224 21.6645 17.0432 21.481 16.736 21.3582C16.3948 21.1939 16.1757 21.177 16.1799 21.1559Z" fill="#FAFAFA"/>
<path d="M39.1811 23.288C39.1802 23.3581 39.1689 23.4277 39.1474 23.4945C39.0976 23.6899 39.0299 23.8803 38.9452 24.0633C38.6315 24.7455 38.1284 25.3232 37.4957 25.7276C37.0253 26.0294 36.4948 26.2252 35.9412 26.3016C35.3875 26.378 34.8239 26.3331 34.2893 26.17C33.6527 25.9858 33.073 25.6437 32.6039 25.1757C32.1193 24.708 31.7022 24.1223 31.0828 23.8611C30.7754 23.7392 30.4364 23.7214 30.1179 23.8105C29.7977 23.9022 29.4873 24.025 29.191 24.1771C28.6068 24.4873 27.9564 24.6521 27.2949 24.6574C26.7353 24.6625 26.1817 24.5412 25.6754 24.3027C25.1691 24.0641 24.7231 23.7144 24.3708 23.2796C23.9015 22.693 23.617 21.9803 23.5533 21.2318C23.533 21.0301 23.533 20.8268 23.5533 20.6251C23.5583 20.5551 23.571 20.4858 23.5913 20.4186C23.6165 20.4186 23.5618 20.7094 23.6292 21.2234C23.7211 21.9425 24.0131 22.6214 24.4719 23.1827C24.8172 23.5876 25.248 23.9109 25.7332 24.1295C26.2184 24.348 26.746 24.4564 27.2781 24.4467C27.9085 24.4373 28.5272 24.2754 29.0814 23.9748C29.3897 23.8157 29.7129 23.6873 30.0463 23.5914C30.4091 23.4895 30.7952 23.5088 31.146 23.6462C31.8539 23.9495 32.2668 24.5605 32.7387 25.0113C33.34 25.6147 34.126 25.9994 34.9714 26.104C35.8168 26.2086 36.6728 26.0272 37.403 25.5886C38.0205 25.2054 38.5228 24.6624 38.8567 24.0169C39.1053 23.5661 39.1601 23.2796 39.1811 23.288Z" fill="#FAFAFA"/>
<path d="M38.1025 31.302C37.8869 30.7263 37.5654 30.196 37.1544 29.7388C36.7077 29.261 36.1148 28.9453 35.469 28.8413C35.0752 28.7948 34.676 28.8407 34.303 28.9752C33.9301 29.1098 33.5935 29.3294 33.3202 29.6166C33.0391 29.9149 32.8579 30.2934 32.8019 30.6995C32.7772 31.1098 32.6788 31.5123 32.5112 31.8877C32.3052 32.2109 32.0134 32.4706 31.6685 32.6377C31.3693 32.802 31.0744 32.9242 30.8258 33.059C30.4205 33.2436 30.0842 33.5519 29.8651 33.9396C29.8056 34.0912 29.766 34.2498 29.7471 34.4115C29.7305 34.37 29.7219 34.3257 29.7218 34.2809C29.7196 34.1531 29.741 34.026 29.785 33.9059C29.986 33.4787 30.3263 33.1325 30.7499 32.9242C31.007 32.7767 31.2935 32.6503 31.5926 32.4818C31.8994 32.3255 32.1574 32.0879 32.3384 31.795C32.4877 31.4376 32.5732 31.0569 32.5912 30.67C32.6544 30.2224 32.8529 29.8049 33.16 29.4733C33.4556 29.1569 33.8222 28.9155 34.2296 28.7689C34.637 28.6224 35.0734 28.575 35.5027 28.6306C36.1946 28.7449 36.8257 29.0947 37.2893 29.6208C37.6006 29.9652 37.8436 30.3655 38.0055 30.8006C38.0685 30.9603 38.1014 31.1303 38.1025 31.302Z" fill="#FAFAFA"/>
<path d="M31.8919 43.5844C31.903 43.6499 31.903 43.7169 31.8919 43.7824C31.8666 43.9729 31.8141 44.1588 31.736 44.3344C31.4737 44.8816 31.051 45.336 30.5241 45.6371C29.9972 45.9382 29.3911 46.0717 28.7865 46.0198C28.2214 45.9672 27.6777 45.7778 27.2023 45.4678C26.6755 45.1316 26.2272 44.6862 25.8876 44.1616C25.5169 43.6181 25.3483 42.9608 24.9607 42.4467C24.7735 42.1973 24.5148 42.0107 24.2191 41.9116C23.9176 41.8269 23.6086 41.7719 23.2964 41.7473C22.6988 41.7116 22.1202 41.5241 21.6152 41.2027C21.1102 40.8813 20.6955 40.4365 20.4101 39.9102C20.1771 39.4748 20.046 38.9922 20.0267 38.4987C20.0001 37.7861 20.1943 37.0826 20.5829 36.4847C20.6865 36.3251 20.8065 36.1768 20.941 36.0422C20.9858 35.9924 21.0368 35.9485 21.0927 35.9116C21.0927 35.9116 20.9031 36.1097 20.6714 36.531C20.3252 37.1236 20.1611 37.805 20.1994 38.4903C20.2256 38.9578 20.3582 39.4132 20.5871 39.8217C20.8642 40.3152 21.2611 40.731 21.7412 41.0307C22.2214 41.3304 22.7692 41.5044 23.3343 41.5366C23.6639 41.5572 23.9903 41.6137 24.3076 41.7052C24.645 41.8166 24.9395 42.0301 25.1503 42.3161C25.5716 42.8807 25.736 43.5338 26.0857 44.0436C26.4039 44.5498 26.828 44.981 27.3287 45.3077C27.7755 45.605 28.2869 45.7914 28.8202 45.8512C29.2861 45.9013 29.757 45.8332 30.1896 45.6532C30.8262 45.3992 31.3519 44.9274 31.6728 44.3217C31.7639 44.0817 31.8372 43.8352 31.8919 43.5844Z" fill="#FAFAFA"/>
<path d="M32.8693 53.7051C32.9255 53.4447 32.9326 53.1761 32.8904 52.913C32.8085 52.5614 32.641 52.2355 32.4029 51.9643C32.1647 51.6931 31.8632 51.4849 31.5252 51.3582C31.0561 51.1873 30.5576 51.1114 30.0589 51.1349C29.4795 51.1624 28.9039 51.2442 28.3398 51.3793C27.7063 51.5355 27.0608 51.6384 26.41 51.6869C25.6907 51.7389 24.9721 51.5761 24.3454 51.2192C23.7632 50.8001 23.3117 50.2244 23.0435 49.5591C22.7802 48.9785 22.4261 48.4437 21.9943 47.9748C21.2495 47.1863 20.2695 46.66 19.2008 46.4748C18.4786 46.3561 17.7396 46.3891 17.0308 46.5717C16.5294 46.7023 16.2682 46.8329 16.2598 46.8119C16.3169 46.769 16.3792 46.7336 16.4452 46.7065C16.6283 46.6221 16.8169 46.5504 17.0098 46.4916C17.7269 46.2718 18.4839 46.2142 19.226 46.3231C20.3372 46.4922 21.3618 47.0223 22.1418 47.8315C22.5916 48.3123 22.9602 48.863 23.2331 49.4621C23.4876 50.0911 23.9139 50.6357 24.4634 51.0338C25.0545 51.3604 25.7283 51.5069 26.4016 51.4551C27.0405 51.4102 27.6746 51.3129 28.2977 51.1644C28.8748 51.0323 29.4631 50.9547 30.0547 50.9326C30.5773 50.9164 31.0977 51.0067 31.5842 51.1981C31.9876 51.3623 32.3366 51.6368 32.5912 51.9902C32.7865 52.2522 32.9165 52.557 32.9704 52.8793C33.0037 53.0825 32.9951 53.2904 32.9451 53.4902C32.9348 53.5663 32.909 53.6394 32.8693 53.7051Z" fill="#FAFAFA"/>
<path d="M50.9452 33.1264C50.822 33.5325 50.6434 33.9196 50.4143 34.2767C50.2411 34.5708 50.0188 34.833 49.757 35.052C49.3678 35.3802 48.9598 35.6855 48.5351 35.9663C48.5351 35.9663 36.3539 37.3483 34.2851 37.1756C32.2163 37.0028 25.2598 29.9242 25.2598 29.9242C23.6215 31.7285 21.7629 33.3196 19.7275 34.6601C19.7275 34.6601 26.1447 40.4748 31.7865 43.3062C35.3764 45.1096 50.3258 40.6138 50.3511 40.6096C51.6853 40.6387 53.02 40.5965 54.3497 40.4832C56.2079 40.2472 56.1868 40.0618 56.1236 39.868C55.9508 39.2992 52.8413 40.163 53.4017 39.5899C53.9621 39.0169 57.3286 38.979 57.1222 38.3933C56.8525 37.6264 53.6166 38.5913 53.33 38.6503C53.0435 38.7093 52.9508 38.309 53.2079 38.2669C53.5744 38.2079 57.4213 37.4832 57.1643 36.729C57.0211 36.3076 56.2963 36.6363 56.2963 36.6363C56.2963 36.6363 52.7486 37.5801 52.639 37.2219C52.5295 36.8638 54.5941 36.2318 55.302 36.0717C56.0098 35.9115 56.2163 35.5113 55.8876 35.2627C55.6643 35.0899 53.4733 35.5323 52.7739 35.7051C52.0744 35.8778 50.1657 36.3961 50.8989 35.3764C51.632 34.3568 51.8132 33.295 51.6615 32.9748C51.6185 32.9081 51.5562 32.856 51.4829 32.8255C51.4096 32.795 51.3288 32.7875 51.2511 32.804C51.1735 32.8204 51.1027 32.86 51.048 32.9176C50.9934 32.9752 50.9575 33.048 50.9452 33.1264Z" fill="#B78876"/>
<path d="M20.1826 9.3456C20.2673 9.4978 20.4076 9.61132 20.5741 9.66237C20.7406 9.71342 20.9204 9.69805 21.0759 9.61947C21.3919 9.46357 21.7627 9.21919 21.8174 8.87369C21.8722 8.52818 21.8933 8.08577 21.927 7.73605C21.9659 7.33965 22.0406 6.9476 22.1503 6.5647C23.4143 6.81751 24.257 6.46779 25.0997 5.5029C25.5268 5.90791 26.0615 6.18131 26.6398 6.29041C27.2182 6.3995 27.8157 6.33967 28.361 6.11807C28.6199 5.97102 28.9072 5.88055 29.2037 5.85262C29.6503 5.85262 30.0464 6.24448 30.4677 6.24448C30.6969 6.22073 30.9093 6.11362 31.0647 5.9435C31.22 5.77338 31.3075 5.5521 31.3104 5.32172C31.3021 5.08881 31.2381 4.86127 31.1237 4.6582C31.0094 4.45512 30.848 4.28243 30.6531 4.15459C30.2583 3.90584 29.8166 3.74091 29.3553 3.67004C27.7425 3.38859 26.0948 3.37009 24.4761 3.61526C23.7084 3.68744 22.9541 3.86465 22.2346 4.14195C21.5116 4.42579 20.8997 4.93568 20.4902 5.5956C19.9087 6.61947 20.0393 7.88352 20.191 9.05487" fill="#263238"/>
<path d="M35.1657 85.323C35.1023 85.2364 35.0486 85.1432 35.0056 85.0449L34.5842 84.2317C34.2303 83.5196 33.6952 82.5042 33.021 81.257C31.6685 78.7626 29.6966 75.3581 27.3792 71.7135C25.0617 68.0688 22.896 64.7865 21.3244 62.4143L19.4957 59.5913C19.2935 59.271 19.1292 59.014 19.007 58.816C18.9467 58.7282 18.8945 58.6351 18.8511 58.5379C18.9237 58.6172 18.9886 58.7033 19.0449 58.7949L19.5632 59.5449L21.455 62.3258C23.0435 64.6812 25.2471 67.9297 27.5519 71.5955C29.8567 75.2612 31.8581 78.6657 33.1643 81.1854C33.8216 82.4494 34.3356 83.4733 34.6643 84.1938L35.0477 85.0365C35.0968 85.1276 35.1364 85.2237 35.1657 85.323Z" fill="#455A64"/>
<path d="M0.985962 105.122L7.9382 112.449L9.55196 111.43L2.14887 104.111L0.985962 105.122Z" fill="#455A64"/>
<path d="M25.778 29.1742C25.531 29.5329 25.2487 29.8661 24.9353 30.1686C24.3918 30.7585 23.6123 31.5506 22.7106 32.3764C21.8089 33.2023 20.9494 33.9101 20.3089 34.3989C19.9802 34.6823 19.6229 34.9308 19.2429 35.1405C19.5465 34.838 19.8703 34.5564 20.212 34.2978C20.823 33.7795 21.6615 33.059 22.5631 32.2374C23.4648 31.4158 24.2485 30.6447 24.8258 30.0843C25.1205 29.7581 25.4388 29.4539 25.778 29.1742Z" fill="#263238"/>
<path d="M19.2472 19.7402C19.3932 19.7914 19.5288 19.8684 19.6475 19.9678C19.9793 20.2203 20.2755 20.5166 20.5281 20.8484C21.1727 21.6911 21.9522 22.8919 22.7949 24.2444C23.6376 25.597 24.3497 26.7725 24.9017 27.7206L25.5463 28.7739C25.6333 28.8985 25.7054 29.0329 25.7612 29.1742C25.6513 29.0687 25.5551 28.9498 25.4747 28.8203C25.302 28.5843 25.0534 28.2388 24.7711 27.8048C24.1938 26.9326 23.4312 25.6981 22.5927 24.3582C21.7542 23.0183 20.9916 21.7838 20.389 20.9411C20.0653 20.4904 19.681 20.0863 19.2472 19.7402Z" fill="#263238"/>
<path d="M15.1558 26.4186C15.1895 26.4186 15.2737 26.9411 15.4633 27.7838C15.7157 28.8785 16.0567 29.9509 16.483 30.9903C16.9167 32.0269 17.4324 33.0272 18.0251 33.9818C18.4844 34.715 18.8004 35.1448 18.7751 35.17C18.7499 35.1953 18.6698 35.0773 18.5139 34.8919C18.358 34.7066 18.1431 34.4243 17.8987 34.0493C17.2572 33.1109 16.7149 32.1083 16.2808 31.0577C15.8481 30.0077 15.5234 28.9164 15.3117 27.8007C15.2358 27.3793 15.1853 27.0212 15.1684 26.7768C15.1466 26.6587 15.1423 26.538 15.1558 26.4186Z" fill="#263238"/>
</svg>
