<svg width="131" height="150" viewBox="0 0 131 150" fill="none" xmlns="http://www.w3.org/2000/svg">
<path d="M110.388 117.562L31.8513 107.575L45.5301 0L126.02 10.2373C126.442 10.2908 126.826 10.5097 127.087 10.846C127.347 11.1824 127.464 11.6085 127.411 12.0307L114.382 114.469C114.323 114.935 114.173 115.384 113.94 115.791C113.708 116.199 113.397 116.556 113.026 116.844C112.655 117.131 112.231 117.342 111.779 117.466C111.326 117.589 110.854 117.622 110.388 117.562Z" fill="#455A64"/>
<path d="M120.831 28.2668L120.165 33.4994L129.903 34.7382L130.569 29.5056L120.831 28.2668Z" fill="#FCD924"/>
<path opacity="0.3" d="M120.831 28.2668L120.165 33.4994L129.903 34.7382L130.569 29.5056L120.831 28.2668Z" fill="black"/>
<path d="M124.495 13.0032L48.5447 3.34119L35.5309 105.638L111.481 115.3L124.495 13.0032Z" fill="#E0E0E0"/>
<path d="M121.269 11.3207L45.3193 1.65863L32.3056 103.955L108.256 113.617L121.269 11.3207Z" fill="#FAFAFA"/>
<path d="M46.501 11.6023L46.4552 11.9624L122.139 21.5906L122.184 21.2304L46.501 11.6023Z" fill="#E0E0E0"/>
<path d="M46.3295 16.7516L46.2837 17.1118L121.967 26.7399L122.013 26.3798L46.3295 16.7516Z" fill="#E0E0E0"/>
<path d="M45.6845 21.8358L45.6387 22.1959L121.322 31.8241L121.368 31.464L45.6845 21.8358Z" fill="#E0E0E0"/>
<path d="M45.4497 27.1963L45.4025 27.5557L120.933 37.4738L120.98 37.1144L45.4497 27.1963Z" fill="#E0E0E0"/>
<path d="M44.7884 32.3017L44.7412 32.6611L120.272 42.5793L120.319 42.2199L44.7884 32.3017Z" fill="#E0E0E0"/>
<path d="M44.1271 37.4034L44.08 37.7628L119.61 47.681L119.658 47.3216L44.1271 37.4034Z" fill="#E0E0E0"/>
<path d="M43.4696 42.5089L43.4224 42.8683L118.953 52.7864L119 52.427L43.4696 42.5089Z" fill="#E0E0E0"/>
<path d="M42.4483 47.269L42.4025 47.6292L118.086 57.2573L118.132 56.8972L42.4483 47.269Z" fill="#E0E0E0"/>
<path d="M41.8033 52.3569L41.7574 52.717L117.441 62.3451L117.487 61.985L41.8033 52.3569Z" fill="#E0E0E0"/>
<path d="M41.4925 57.8255L41.4453 58.1849L116.976 68.1031L117.023 67.7437L41.4925 57.8255Z" fill="#E0E0E0"/>
<path d="M40.8313 62.9273L40.7841 63.2867L116.315 73.2049L116.362 72.8455L40.8313 62.9273Z" fill="#E0E0E0"/>
<path d="M40.1701 68.0328L40.1229 68.3922L115.653 78.3104L115.701 77.951L40.1701 68.0328Z" fill="#E0E0E0"/>
<path d="M39.5119 73.1418L39.4647 73.5012L114.995 83.4193L115.042 83.0599L39.5119 73.1418Z" fill="#E0E0E0"/>
<path d="M38.1929 83.3493L38.1458 83.7087L113.676 93.6269L113.723 93.2675L38.1929 83.3493Z" fill="#E0E0E0"/>
<path d="M37.5354 88.4548L37.4882 88.8142L113.019 98.7324L113.066 98.373L37.5354 88.4548Z" fill="#E0E0E0"/>
<path d="M36.8742 93.5566L36.827 93.916L112.358 103.834L112.405 103.475L36.8742 93.5566Z" fill="#E0E0E0"/>
<path d="M35.9794 98.1399L35.9336 98.5001L111.617 108.128L111.663 107.768L35.9794 98.1399Z" fill="#E0E0E0"/>
<path d="M57.2244 3.71315L44.1843 105.648L44.5444 105.694L57.5845 3.75922L57.2244 3.71315Z" fill="#FCD924"/>
<path d="M51.934 7.96845C51.895 8.27386 51.7663 8.56086 51.5643 8.79317C51.3622 9.02549 51.0958 9.1927 50.7988 9.27368C50.5017 9.35465 50.1873 9.34576 49.8953 9.24813C49.6033 9.15049 49.3468 8.9685 49.1582 8.72513C48.9696 8.48177 48.8573 8.18796 48.8357 7.88083C48.814 7.5737 48.8838 7.26703 49.0363 6.99958C49.1889 6.73213 49.4173 6.51589 49.6927 6.37818C49.968 6.24048 50.2781 6.1875 50.5835 6.22592C50.7867 6.25148 50.9828 6.31685 51.1607 6.4183C51.3386 6.51974 51.4947 6.65527 51.6201 6.81712C51.7456 6.97897 51.8379 7.16397 51.8917 7.36153C51.9456 7.55909 51.9599 7.76533 51.934 7.96845Z" fill="#455A64"/>
<path d="M50.4892 19.3166C50.4508 19.6224 50.3225 19.91 50.1205 20.1428C49.9186 20.3756 49.6521 20.5433 49.3549 20.6246C49.0576 20.706 48.7429 20.6972 48.4505 20.5996C48.1582 20.5019 47.9014 20.3198 47.7127 20.0761C47.524 19.8324 47.4118 19.5382 47.3904 19.2308C47.3689 18.9233 47.4392 18.6164 47.5923 18.3489C47.7453 18.0814 47.9743 17.8654 48.2503 17.7281C48.5262 17.5908 48.8367 17.5385 49.1424 17.5778C49.5509 17.6312 49.9218 17.844 50.1741 18.1697C50.4263 18.4955 50.5396 18.9077 50.4892 19.3166Z" fill="#455A64"/>
<path d="M49.0443 30.6684C49.0046 30.9728 48.8756 31.2586 48.6736 31.4898C48.4716 31.721 48.2056 31.8871 47.9093 31.9673C47.6129 32.0475 47.2995 32.038 47.0085 31.9402C46.7175 31.8424 46.462 31.6605 46.2742 31.4176C46.0865 31.1747 45.9749 30.8817 45.9536 30.5754C45.9323 30.2691 46.0021 29.9634 46.1544 29.6968C46.3067 29.4303 46.5345 29.2148 46.8091 29.0775C47.0837 28.9403 47.3929 28.8875 47.6975 28.9258C47.9005 28.9514 48.0965 29.0168 48.2742 29.1183C48.4519 29.2198 48.6078 29.3554 48.7329 29.5173C48.8581 29.6792 48.95 29.8642 49.0034 30.0618C49.0569 30.2593 49.0707 30.4654 49.0443 30.6684Z" fill="#455A64"/>
<path d="M47.603 42.0166C47.5647 42.3222 47.4366 42.6097 47.2349 42.8425C47.0332 43.0754 46.7669 43.2432 46.4698 43.3247C46.1728 43.4062 45.8582 43.3978 45.5659 43.3005C45.2736 43.2032 45.0167 43.0214 44.8277 42.7781C44.6388 42.5348 44.5262 42.2409 44.5043 41.9336C44.4824 41.6263 44.5521 41.3194 44.7046 41.0518C44.8572 40.7841 45.0856 40.5677 45.3612 40.4299C45.6367 40.2921 45.9469 40.2391 46.2526 40.2777C46.6618 40.3302 47.0335 40.5427 47.2866 40.8685C47.5396 41.1943 47.6534 41.6071 47.603 42.0166Z" fill="#455A64"/>
<path d="M46.1583 53.3684C46.1198 53.6742 45.9915 53.9617 45.7896 54.1946C45.5877 54.4274 45.3212 54.5951 45.0239 54.6764C44.7267 54.7577 44.4119 54.749 44.1196 54.6513C43.8273 54.5537 43.5705 54.3715 43.3818 54.1278C43.1931 53.8842 43.0809 53.59 43.0594 53.2825C43.038 52.9751 43.1083 52.6682 43.2613 52.4007C43.4144 52.1332 43.6434 51.9171 43.9194 51.7798C44.1953 51.6426 44.5058 51.5902 44.8114 51.6295C45.0141 51.6551 45.2098 51.7203 45.3872 51.8216C45.5647 51.9229 45.7204 52.0581 45.8455 52.2196C45.9706 52.3811 46.0626 52.5657 46.1163 52.7629C46.1699 52.96 46.1842 53.1658 46.1583 53.3684Z" fill="#455A64"/>
<path d="M44.7133 64.7201C44.6736 65.0245 44.5447 65.3104 44.3427 65.5416C44.1407 65.7727 43.8747 65.9389 43.5783 66.0191C43.282 66.0992 42.9685 66.0898 42.6775 65.992C42.3865 65.8941 42.131 65.7123 41.9433 65.4694C41.7556 65.2265 41.644 64.9334 41.6227 64.6272C41.6013 64.3209 41.6712 64.0152 41.8235 63.7486C41.9757 63.482 42.2035 63.2665 42.4782 63.1293C42.7528 62.9921 43.0619 62.9393 43.3665 62.9776C43.5696 63.0031 43.7656 63.0685 43.9433 63.17C44.1209 63.2715 44.2768 63.4071 44.402 63.569C44.5271 63.7309 44.6191 63.916 44.6725 64.1135C44.7259 64.3111 44.7398 64.5172 44.7133 64.7201Z" fill="#455A64"/>
<path d="M43.2722 76.0684C43.2337 76.3743 43.1052 76.6619 42.9031 76.8947C42.7009 77.1276 42.4342 77.2951 42.1367 77.3763C41.8393 77.4574 41.5244 77.4483 41.2321 77.3503C40.9397 77.2523 40.683 77.0698 40.4946 76.8258C40.3061 76.5817 40.1943 76.2873 40.1733 75.9797C40.1523 75.672 40.2231 75.3651 40.3768 75.0978C40.5304 74.8304 40.7599 74.6147 41.0362 74.4779C41.3126 74.3412 41.6233 74.2895 41.929 74.3295C42.3373 74.3829 42.7078 74.5958 42.9596 74.9217C43.2113 75.2476 43.3237 75.6599 43.2722 76.0684Z" fill="#455A64"/>
<path d="M41.8272 87.4202C41.7881 87.7257 41.6593 88.0128 41.457 88.2451C41.2547 88.4774 40.9881 88.6445 40.6909 88.7253C40.3936 88.8061 40.0791 88.7969 39.7871 88.6989C39.495 88.6009 39.2386 88.4185 39.0503 88.1748C38.8619 87.9311 38.75 87.637 38.7288 87.3297C38.7076 87.0224 38.778 86.7157 38.931 86.4484C39.0841 86.1811 39.313 85.9652 39.5888 85.8281C39.8646 85.6909 40.1749 85.6385 40.4804 85.6777C40.6835 85.7032 40.8795 85.7686 41.0572 85.8701C41.2349 85.9716 41.3907 86.1072 41.5159 86.2691C41.641 86.431 41.733 86.616 41.7864 86.8136C41.8398 87.0111 41.8537 87.2173 41.8272 87.4202Z" fill="#455A64"/>
<path d="M40.3861 98.7683C40.3478 99.074 40.2197 99.3615 40.018 99.5943C39.8162 99.8271 39.55 99.9949 39.2529 100.076C38.9558 100.158 38.6412 100.15 38.3489 100.052C38.0567 99.9549 37.7998 99.7732 37.6108 99.5298C37.4219 99.2865 37.3093 98.9927 37.2874 98.6854C37.2655 98.3781 37.3352 98.0712 37.4877 97.8035C37.6402 97.5359 37.8687 97.3195 38.1443 97.1817C38.4198 97.0439 38.73 96.9909 39.0357 97.0294C39.4449 97.082 39.8166 97.2944 40.0697 97.6203C40.3227 97.9461 40.4365 98.3589 40.3861 98.7683Z" fill="#455A64"/>
<path d="M44.2233 12.4736C44.2233 12.4917 44.1616 12.4917 44.0527 12.4736C43.893 12.4476 43.7362 12.4063 43.5844 12.3502C43.342 12.2546 43.1107 12.1328 42.8947 11.9871C42.6067 11.7905 42.3497 11.5519 42.1323 11.2792C41.8734 10.9433 41.6722 10.5667 41.537 10.1647C41.3834 9.70463 41.3037 9.22309 41.301 8.73805C41.2804 8.18595 41.3924 7.63697 41.6277 7.1371C41.9042 6.61089 42.3087 6.16271 42.8039 5.83384C43.2892 5.50717 43.8388 5.28809 44.4158 5.19129C44.9458 5.10412 45.4866 5.10412 46.0167 5.19129C46.8962 5.34583 47.7349 5.67811 48.4816 6.16782C48.9762 6.48453 49.4383 6.84933 49.8611 7.2569C50.1552 7.54732 50.2968 7.72884 50.2713 7.75788C50.2459 7.78692 50.0535 7.66349 49.7196 7.42752C49.2524 7.0943 48.7677 6.78649 48.2675 6.50544C47.5459 6.09556 46.7543 5.8235 45.9332 5.70315C45.459 5.63867 44.9777 5.64847 44.5065 5.73219C44.0076 5.82216 43.5328 6.01503 43.1125 6.29851C42.6958 6.57567 42.3521 6.94926 42.1105 7.38759C41.9111 7.80824 41.8105 8.26893 41.8165 8.73442C41.8091 9.16721 41.8641 9.5988 41.9798 10.0159C42.0821 10.3782 42.2401 10.7223 42.4481 11.036C42.6265 11.2935 42.839 11.5255 43.0798 11.7257C43.2647 11.8796 43.4627 12.0168 43.6715 12.136C43.8422 12.2376 43.9874 12.2921 44.0818 12.3502C44.1762 12.4082 44.2306 12.4554 44.2233 12.4736Z" fill="#FCD924"/>
<path d="M42.7821 23.8326C42.7821 23.8544 42.7168 23.8326 42.6079 23.8326C42.4482 23.8046 42.2915 23.7621 42.1396 23.7055C41.8973 23.6121 41.667 23.4902 41.4535 23.3425C41.1631 23.1503 40.9057 22.9125 40.6911 22.6382C40.4295 22.3041 40.2281 21.927 40.0957 21.5238C39.9422 21.0624 39.8626 20.5797 39.8598 20.0934C39.8363 19.5415 39.9472 18.9921 40.1829 18.4925C40.4617 17.9689 40.8657 17.5224 41.3591 17.1929C41.8452 16.8644 42.396 16.6441 42.9745 16.5467C43.5046 16.4595 44.0454 16.4595 44.5755 16.5467C45.4543 16.6996 46.2922 17.032 47.0368 17.5232C47.5314 17.8399 47.9934 18.2047 48.4163 18.6123C48.714 18.9027 48.8555 19.0842 48.8301 19.1133C48.8047 19.1423 48.6123 19.0153 48.2747 18.7829C47.8086 18.4481 47.3238 18.1403 46.8226 17.8608C46.101 17.4502 45.3096 17.177 44.4883 17.0549C44.0129 16.9904 43.5304 17.0002 43.058 17.084C42.5631 17.1785 42.0933 17.3751 41.6785 17.6612C41.2618 17.9383 40.9181 18.3119 40.6766 18.7502C40.4762 19.1706 40.3755 19.6315 40.3825 20.0971C40.3725 20.531 40.4263 20.964 40.5423 21.3822C40.644 21.7453 40.8033 22.0897 41.0142 22.4023C41.1893 22.6601 41.4009 22.8912 41.6422 23.0884C41.8267 23.2427 42.0248 23.38 42.234 23.4986C42.4046 23.6039 42.5534 23.6584 42.6442 23.7164C42.7349 23.7745 42.7858 23.8036 42.7821 23.8326Z" fill="#FCD924"/>
<path d="M41.3372 35.1735C41.3372 35.1735 41.2719 35.1735 41.163 35.1735C41.0046 35.147 40.849 35.1057 40.6983 35.0501C40.1274 34.8345 39.6255 34.4682 39.2462 33.9901C38.9854 33.6541 38.784 33.2759 38.6508 32.8719C38.4973 32.4118 38.4176 31.9303 38.4149 31.4453C38.3943 30.8932 38.5063 30.3442 38.7416 29.8443C39.0159 29.3187 39.4194 28.8715 39.9142 28.5447C40.4009 28.2174 40.9515 27.9972 41.5296 27.8985C42.0597 27.8113 42.6005 27.8113 43.1306 27.8985C44.0108 28.0526 44.8499 28.3862 45.5955 28.8787C46.0891 29.1952 46.55 29.56 46.9714 29.9677C47.2691 30.2545 47.4107 30.4361 47.3852 30.4651C47.3598 30.4941 47.1674 30.3707 46.8334 30.1347C46.3656 29.8038 45.8809 29.4972 45.3813 29.2163C44.6607 28.8036 43.8688 28.5302 43.0471 28.4104C42.5729 28.3458 42.0916 28.3556 41.6204 28.4394C41.1214 28.5294 40.6467 28.7222 40.2264 29.0057C39.8097 29.2829 39.466 29.6565 39.2244 30.0948C39.025 30.5155 38.9244 30.9761 38.9304 31.4416C38.9194 31.8746 38.9745 32.3067 39.0937 32.7231C39.1943 33.086 39.3524 33.4304 39.562 33.7432C39.7393 34.0005 39.9505 34.2325 40.1901 34.433C40.3762 34.5851 40.574 34.7223 40.7818 34.8432C40.9561 34.9448 41.1013 35.0029 41.192 35.061C41.2828 35.1191 41.3445 35.1554 41.3372 35.1735Z" fill="#FCD924"/>
<path d="M39.8924 46.5254C39.8924 46.5435 39.8307 46.5435 39.7218 46.5254C39.5621 46.4978 39.4053 46.4553 39.2535 46.3983C39.0106 46.3064 38.7801 46.1844 38.5674 46.0353C38.2766 45.8423 38.0181 45.6046 37.8014 45.331C37.5425 44.9951 37.3413 44.6185 37.206 44.2166C37.0557 43.7544 36.9761 43.2722 36.9701 42.7862C36.95 42.2342 37.062 41.6853 37.2968 41.1853C37.5756 40.6616 37.9797 40.2152 38.473 39.8857C38.9575 39.5575 39.5074 39.3383 40.0848 39.2431C40.6149 39.1559 41.1557 39.1559 41.6858 39.2431C42.5659 39.3954 43.4051 39.7278 44.1507 40.2196C44.6453 40.5364 45.1074 40.9011 45.5302 41.3087C45.8243 41.5991 45.9658 41.7807 45.9441 41.8097C45.9223 41.8387 45.7226 41.7153 45.3886 41.4793C44.922 41.1454 44.4372 40.8376 43.9365 40.5573C43.2142 40.1482 42.4231 39.8751 41.6023 39.7513C41.1268 39.6887 40.6445 39.6985 40.1719 39.7804C39.6733 39.8733 39.1989 40.0672 38.7779 40.3503C38.3666 40.6055 38.0301 40.9648 37.8025 41.392C37.5749 41.8192 37.4643 42.2989 37.4819 42.7826C37.4748 43.2166 37.5298 43.6493 37.6453 44.0677C37.7476 44.43 37.9056 44.7741 38.1136 45.0878C38.291 45.345 38.5036 45.5759 38.7453 45.7739C38.9297 45.9282 39.1278 46.0655 39.337 46.1842C39.5076 46.2894 39.6528 46.3439 39.7472 46.402C39.8416 46.4601 39.8997 46.5036 39.8924 46.5254Z" fill="#FCD924"/>
<path d="M38.4513 57.8736C38.4513 57.8736 38.386 57.8736 38.2771 57.8736C38.1178 57.8438 37.9612 57.8013 37.8088 57.7465C37.5672 57.6515 37.337 57.5298 37.1226 57.3835C36.8323 57.1912 36.5749 56.9534 36.3603 56.6792C36.0987 56.3437 35.8973 55.9654 35.7649 55.5611C35.6114 55.101 35.5317 54.6194 35.529 54.1344C35.5087 53.5827 35.6195 53.0341 35.852 52.5335C36.1298 52.0091 36.5341 51.5624 37.0283 51.2338C37.5147 50.906 38.0654 50.6857 38.6437 50.5876C39.1738 50.5004 39.7146 50.5004 40.2447 50.5876C41.1235 50.7406 41.9614 51.073 42.706 51.5642C43.2006 51.8809 43.6626 52.2457 44.0855 52.6533C44.3832 52.9437 44.5247 53.1252 44.4993 53.1506C44.4739 53.176 44.2815 53.0562 43.9475 52.8239C43.4807 52.4902 42.996 52.1824 42.4954 51.9018C41.7738 51.4912 40.9824 51.2179 40.1612 51.0959C39.687 51.0313 39.2056 51.0411 38.7345 51.1249C38.2355 51.2149 37.7608 51.4077 37.3405 51.6912C36.9237 51.9684 36.58 52.342 36.3385 52.7803C36.1374 53.2004 36.0367 53.6615 36.0445 54.1271C36.0344 54.561 36.0882 54.994 36.2042 55.4122C36.3082 55.7734 36.4674 56.1162 36.6761 56.4287C36.8514 56.6875 37.0629 56.9198 37.3042 57.1185C37.4896 57.2715 37.6876 57.4087 37.8959 57.5287C38.0665 57.6303 38.2153 57.6884 38.3061 57.7465C38.3969 57.8046 38.4549 57.8554 38.4513 57.8736Z" fill="#FCD924"/>
<path d="M37.0063 69.2108C37.0063 69.229 36.9446 69.229 36.8357 69.2108C36.6764 69.1831 36.5197 69.1418 36.3674 69.0874C36.1244 68.993 35.893 68.8712 35.6776 68.7244C35.3888 68.5302 35.1317 68.2926 34.9153 68.0201C34.6564 67.6842 34.4552 67.3076 34.3199 66.9056C34.1663 66.4455 34.0867 65.964 34.084 65.4789C34.0633 64.9268 34.1754 64.3778 34.4107 63.878C34.6872 63.3518 35.0917 62.9036 35.5869 62.5747C36.0762 62.2515 36.6298 62.0385 37.2096 61.9503C37.7397 61.8632 38.2805 61.8632 38.8105 61.9503C39.69 62.1049 40.5288 62.4371 41.2755 62.9269C41.7701 63.2436 42.2321 63.6084 42.655 64.0159C42.949 64.3064 43.0906 64.4879 43.0652 64.5169C43.0398 64.546 42.8474 64.4225 42.5134 64.1866C42.0463 63.8533 41.5615 63.5455 41.0613 63.2645C40.3397 62.8546 39.5482 62.5825 38.727 62.4622C38.2531 62.3965 37.7717 62.405 37.3004 62.4876C36.8017 62.5805 36.3273 62.7744 35.9063 63.0575C35.4937 63.3122 35.1562 63.6719 34.9284 64.1C34.7007 64.528 34.5909 65.009 34.6103 65.4934C34.6012 65.9263 34.6562 66.3582 34.7737 66.7749C34.8743 67.1378 35.0324 67.4822 35.242 67.795C35.4203 68.0525 35.6328 68.2845 35.8737 68.4848C36.057 68.6378 36.2538 68.7739 36.4618 68.8914C36.636 68.9966 36.7812 69.0511 36.8756 69.1092C36.97 69.1673 37.0136 69.2108 37.0063 69.2108Z" fill="#FCD924"/>
<path d="M35.5652 80.5735C35.5652 80.5953 35.4999 80.5916 35.391 80.5735C35.2317 80.5437 35.0751 80.5012 34.9227 80.4464C34.6804 80.353 34.4501 80.2311 34.2365 80.0834C33.9455 79.8892 33.687 79.6503 33.4706 79.3755C33.2115 79.0403 33.0114 78.6634 32.8788 78.261C32.7256 77.7996 32.646 77.3169 32.6429 76.8307C32.6194 76.2787 32.7302 75.7294 32.9659 75.2297C33.2447 74.7061 33.6488 74.2596 34.1422 73.9301C34.6282 73.6017 35.1791 73.3813 35.7576 73.2839C36.2877 73.1967 36.8285 73.1967 37.3586 73.2839C38.2374 73.4369 39.0752 73.7693 39.8199 74.2605C40.3144 74.5772 40.7765 74.942 41.1994 75.3495C41.497 75.64 41.6386 75.8215 41.6132 75.8505C41.5878 75.8796 41.3918 75.7525 41.0578 75.5202C40.5917 75.1854 40.1069 74.8775 39.6057 74.5981C38.8841 74.1875 38.0926 73.9142 37.2714 73.7922C36.796 73.7277 36.3135 73.7375 35.8411 73.8212C35.3432 73.911 34.8697 74.1039 34.4507 74.3875C34.034 74.6647 33.6903 75.0383 33.4488 75.4766C33.248 75.8968 33.1473 76.3578 33.1547 76.8234C33.1447 77.2573 33.1985 77.6903 33.3145 78.1085C33.4162 78.4716 33.5755 78.816 33.7864 79.1286C33.9615 79.3865 34.173 79.6176 34.4144 79.8148C34.6071 79.9765 34.8136 80.121 35.0316 80.2468C35.2022 80.3484 35.351 80.4065 35.4418 80.4646C35.5325 80.5227 35.5688 80.5553 35.5652 80.5735Z" fill="#FCD924"/>
<path d="M34.1203 91.9253C34.1203 91.9434 34.055 91.9434 33.9461 91.9253C33.7877 91.8988 33.6321 91.8575 33.4814 91.8019C33.239 91.7063 33.0077 91.5846 32.7916 91.4388C32.5029 91.2432 32.2458 91.0044 32.0293 90.7309C31.7677 90.3968 31.5663 90.0197 31.4339 89.6165C31.2804 89.1563 31.2007 88.6748 31.198 88.1898C31.1773 87.6377 31.2894 87.0887 31.5247 86.5888C31.7999 86.0629 32.2032 85.6147 32.6973 85.2856C33.1842 84.9594 33.7348 84.7404 34.3127 84.643C34.8428 84.5558 35.3836 84.5558 35.9137 84.643C36.7932 84.7976 37.6319 85.1298 38.3786 85.6195C38.8722 85.9361 39.3331 86.3009 39.7545 86.7086C40.0522 86.999 40.1937 87.1805 40.1683 87.2096C40.1429 87.2386 39.9505 87.1152 39.6165 86.8792C39.1489 86.5468 38.6642 86.2391 38.1644 85.9572C37.4428 85.5473 36.6513 85.2752 35.8302 85.1549C35.356 85.0903 34.8746 85.1001 34.4035 85.1839C33.9045 85.2739 33.4298 85.4667 33.0095 85.7502C32.5927 86.0274 32.249 86.401 32.0075 86.8393C31.8081 87.26 31.7075 87.7206 31.7135 88.1861C31.7025 88.6191 31.7576 89.0512 31.8768 89.4676C31.9774 89.8305 32.1355 90.1749 32.3451 90.4877C32.5223 90.745 32.7335 90.9771 32.9732 91.1775C33.1592 91.3296 33.3571 91.4668 33.5649 91.5877C33.7355 91.6893 33.8844 91.7438 33.9751 91.8019C34.0659 91.86 34.1276 91.9071 34.1203 91.9253Z" fill="#FCD924"/>
<path d="M32.6754 103.273C32.6754 103.295 32.6137 103.292 32.5048 103.273C32.3451 103.246 32.1883 103.203 32.0365 103.146C31.7927 103.054 31.5611 102.932 31.3468 102.783C31.058 102.589 30.8008 102.352 30.5844 102.079C30.3255 101.743 30.1243 101.367 29.989 100.965C29.839 100.502 29.7594 100.02 29.7531 99.5343C29.7327 98.9822 29.8448 98.4333 30.0798 97.9334C30.3586 97.4097 30.7627 96.9632 31.256 96.6337C31.7411 96.306 32.2907 96.0857 32.8678 95.9875C33.3979 95.9003 33.9387 95.9003 34.4688 95.9875C35.3489 96.1398 36.1881 96.4723 36.9337 96.9641C37.4283 97.2808 37.8904 97.6456 38.3132 98.0532C38.6073 98.3436 38.7488 98.5251 38.7234 98.5541C38.698 98.5832 38.5056 98.4561 38.1716 98.2238C37.705 97.8898 37.2202 97.582 36.7195 97.3017C35.9969 96.8906 35.2041 96.6173 34.3817 96.4958C33.9075 96.4313 33.4261 96.4411 32.955 96.5248C32.456 96.6148 31.9813 96.8076 31.5609 97.0911C31.1443 97.3673 30.8016 97.7412 30.5626 98.1802C30.3611 98.6003 30.2592 99.0612 30.2649 99.527C30.2578 99.961 30.3128 100.394 30.4283 100.812C30.5306 101.174 30.6886 101.519 30.8966 101.832C31.074 102.089 31.2866 102.32 31.5283 102.518C31.7128 102.673 31.9108 102.81 32.12 102.929C32.2906 103.034 32.4358 103.088 32.5302 103.146C32.6246 103.204 32.6827 103.255 32.6754 103.273Z" fill="#FCD924"/>
<g opacity="0.2">
<path opacity="0.2" d="M44.2233 12.4736C44.2233 12.4917 44.1616 12.4917 44.0527 12.4736C43.893 12.4476 43.7362 12.4063 43.5844 12.3502C43.342 12.2546 43.1107 12.1328 42.8947 11.9871C42.6067 11.7905 42.3497 11.5519 42.1323 11.2792C41.8734 10.9433 41.6722 10.5667 41.537 10.1647C41.3834 9.70463 41.3037 9.22309 41.301 8.73805C41.2804 8.18595 41.3924 7.63697 41.6277 7.1371C41.9042 6.61089 42.3087 6.16271 42.8039 5.83384C43.2892 5.50717 43.8388 5.28809 44.4158 5.19129C44.9458 5.10412 45.4866 5.10412 46.0167 5.19129C46.8962 5.34583 47.7349 5.67811 48.4816 6.16782C48.9762 6.48453 49.4383 6.84933 49.8611 7.2569C50.1552 7.54732 50.2968 7.72884 50.2713 7.75788C50.2459 7.78692 50.0535 7.66349 49.7196 7.42752C49.2524 7.0943 48.7677 6.78649 48.2675 6.50544C47.5459 6.09556 46.7543 5.8235 45.9332 5.70315C45.459 5.63867 44.9777 5.64847 44.5065 5.73219C44.0076 5.82216 43.5328 6.01503 43.1125 6.29851C42.6958 6.57567 42.3521 6.94926 42.1105 7.38759C41.9111 7.80824 41.8105 8.26893 41.8165 8.73442C41.8091 9.16721 41.8641 9.5988 41.9798 10.0159C42.0821 10.3782 42.2401 10.7223 42.4481 11.036C42.6265 11.2935 42.839 11.5255 43.0798 11.7257C43.2647 11.8796 43.4627 12.0168 43.6715 12.136C43.8422 12.2376 43.9874 12.2921 44.0818 12.3502C44.1762 12.4082 44.2306 12.4554 44.2233 12.4736Z" fill="black"/>
<path opacity="0.2" d="M42.7821 23.8326C42.7821 23.8544 42.7168 23.8326 42.6079 23.8326C42.4482 23.8046 42.2915 23.7621 42.1396 23.7055C41.8973 23.6121 41.667 23.4902 41.4535 23.3425C41.1631 23.1503 40.9057 22.9125 40.6911 22.6382C40.4295 22.3041 40.2281 21.927 40.0957 21.5238C39.9422 21.0624 39.8626 20.5797 39.8598 20.0934C39.8363 19.5415 39.9472 18.9921 40.1829 18.4925C40.4617 17.9689 40.8657 17.5224 41.3591 17.1929C41.8452 16.8644 42.396 16.6441 42.9745 16.5467C43.5046 16.4595 44.0454 16.4595 44.5755 16.5467C45.4543 16.6996 46.2922 17.032 47.0368 17.5232C47.5314 17.8399 47.9934 18.2047 48.4163 18.6123C48.714 18.9027 48.8555 19.0842 48.8301 19.1133C48.8047 19.1423 48.6123 19.0153 48.2747 18.7829C47.8086 18.4481 47.3238 18.1403 46.8226 17.8608C46.101 17.4502 45.3096 17.177 44.4883 17.0549C44.0129 16.9904 43.5304 17.0002 43.058 17.084C42.5631 17.1785 42.0933 17.3751 41.6785 17.6612C41.2618 17.9383 40.9181 18.3119 40.6766 18.7502C40.4762 19.1706 40.3755 19.6315 40.3825 20.0971C40.3725 20.531 40.4263 20.964 40.5423 21.3822C40.644 21.7453 40.8033 22.0897 41.0142 22.4023C41.1893 22.6601 41.4009 22.8912 41.6422 23.0884C41.8267 23.2427 42.0248 23.38 42.234 23.4986C42.4046 23.6039 42.5534 23.6584 42.6442 23.7164C42.7349 23.7745 42.7858 23.8036 42.7821 23.8326Z" fill="black"/>
<path opacity="0.2" d="M41.3372 35.1735C41.3372 35.1735 41.2719 35.1735 41.163 35.1735C41.0046 35.147 40.849 35.1057 40.6983 35.0501C40.1274 34.8345 39.6255 34.4682 39.2462 33.9901C38.9854 33.6541 38.784 33.2759 38.6508 32.8719C38.4973 32.4118 38.4176 31.9303 38.4149 31.4453C38.3943 30.8932 38.5063 30.3442 38.7416 29.8443C39.0159 29.3187 39.4194 28.8715 39.9142 28.5447C40.4009 28.2174 40.9515 27.9972 41.5296 27.8985C42.0597 27.8113 42.6005 27.8113 43.1306 27.8985C44.0108 28.0526 44.8499 28.3862 45.5955 28.8787C46.0891 29.1952 46.55 29.56 46.9714 29.9677C47.2691 30.2545 47.4107 30.4361 47.3852 30.4651C47.3598 30.4941 47.1674 30.3707 46.8334 30.1347C46.3656 29.8038 45.8809 29.4972 45.3813 29.2163C44.6607 28.8036 43.8688 28.5302 43.0471 28.4104C42.5729 28.3458 42.0916 28.3556 41.6204 28.4394C41.1214 28.5294 40.6467 28.7222 40.2264 29.0057C39.8097 29.2829 39.466 29.6565 39.2244 30.0948C39.025 30.5155 38.9244 30.9761 38.9304 31.4416C38.9194 31.8746 38.9745 32.3067 39.0937 32.7231C39.1943 33.086 39.3524 33.4304 39.562 33.7432C39.7393 34.0005 39.9505 34.2325 40.1901 34.433C40.3762 34.5851 40.574 34.7223 40.7818 34.8432C40.9561 34.9448 41.1013 35.0029 41.192 35.061C41.2828 35.1191 41.3445 35.1554 41.3372 35.1735Z" fill="black"/>
<path opacity="0.2" d="M39.8924 46.5254C39.8924 46.5435 39.8307 46.5435 39.7218 46.5254C39.5621 46.4978 39.4053 46.4553 39.2535 46.3983C39.0106 46.3064 38.7801 46.1844 38.5674 46.0353C38.2766 45.8423 38.0181 45.6046 37.8014 45.331C37.5425 44.9951 37.3413 44.6185 37.206 44.2166C37.0557 43.7544 36.9761 43.2722 36.9701 42.7862C36.95 42.2342 37.062 41.6853 37.2968 41.1853C37.5756 40.6616 37.9797 40.2152 38.473 39.8857C38.9575 39.5575 39.5074 39.3383 40.0848 39.2431C40.6149 39.1559 41.1557 39.1559 41.6858 39.2431C42.5659 39.3954 43.4051 39.7278 44.1507 40.2196C44.6453 40.5364 45.1074 40.9011 45.5302 41.3087C45.8243 41.5991 45.9658 41.7807 45.9441 41.8097C45.9223 41.8387 45.7226 41.7153 45.3886 41.4793C44.922 41.1454 44.4372 40.8376 43.9365 40.5573C43.2142 40.1482 42.4231 39.8751 41.6023 39.7513C41.1268 39.6887 40.6445 39.6985 40.1719 39.7804C39.6733 39.8733 39.1989 40.0672 38.7779 40.3503C38.3666 40.6055 38.0301 40.9648 37.8025 41.392C37.5749 41.8192 37.4643 42.2989 37.4819 42.7826C37.4748 43.2166 37.5298 43.6493 37.6453 44.0677C37.7476 44.43 37.9056 44.7741 38.1136 45.0878C38.291 45.345 38.5036 45.5759 38.7453 45.7739C38.9297 45.9282 39.1278 46.0655 39.337 46.1842C39.5076 46.2894 39.6528 46.3439 39.7472 46.402C39.8416 46.4601 39.8997 46.5036 39.8924 46.5254Z" fill="black"/>
<path opacity="0.2" d="M38.4513 57.8736C38.4513 57.8736 38.386 57.8736 38.2771 57.8736C38.1178 57.8438 37.9612 57.8013 37.8088 57.7465C37.5672 57.6515 37.337 57.5298 37.1226 57.3835C36.8323 57.1912 36.5749 56.9534 36.3603 56.6792C36.0987 56.3437 35.8973 55.9654 35.7649 55.5611C35.6114 55.101 35.5317 54.6194 35.529 54.1344C35.5087 53.5827 35.6195 53.0341 35.852 52.5335C36.1298 52.0091 36.5341 51.5624 37.0283 51.2338C37.5147 50.906 38.0654 50.6857 38.6437 50.5876C39.1738 50.5004 39.7146 50.5004 40.2447 50.5876C41.1235 50.7406 41.9614 51.073 42.706 51.5642C43.2006 51.8809 43.6626 52.2457 44.0855 52.6533C44.3832 52.9437 44.5247 53.1252 44.4993 53.1506C44.4739 53.176 44.2815 53.0562 43.9475 52.8239C43.4807 52.4902 42.996 52.1824 42.4954 51.9018C41.7738 51.4912 40.9824 51.2179 40.1612 51.0959C39.687 51.0313 39.2056 51.0411 38.7345 51.1249C38.2355 51.2149 37.7608 51.4077 37.3405 51.6912C36.9237 51.9684 36.58 52.342 36.3385 52.7803C36.1374 53.2004 36.0367 53.6615 36.0445 54.1271C36.0344 54.561 36.0882 54.994 36.2042 55.4122C36.3082 55.7734 36.4674 56.1162 36.6761 56.4287C36.8514 56.6875 37.0629 56.9198 37.3042 57.1185C37.4896 57.2715 37.6876 57.4087 37.8959 57.5287C38.0665 57.6303 38.2153 57.6884 38.3061 57.7465C38.3969 57.8046 38.4549 57.8554 38.4513 57.8736Z" fill="black"/>
<path opacity="0.2" d="M37.0063 69.2108C37.0063 69.229 36.9446 69.229 36.8357 69.2108C36.6764 69.1831 36.5197 69.1418 36.3674 69.0874C36.1244 68.993 35.893 68.8712 35.6776 68.7244C35.3888 68.5302 35.1317 68.2926 34.9153 68.0201C34.6564 67.6842 34.4552 67.3076 34.3199 66.9056C34.1663 66.4455 34.0867 65.964 34.084 65.4789C34.0633 64.9268 34.1754 64.3778 34.4107 63.878C34.6872 63.3518 35.0917 62.9036 35.5869 62.5747C36.0762 62.2515 36.6298 62.0385 37.2096 61.9503C37.7397 61.8632 38.2805 61.8632 38.8105 61.9503C39.69 62.1049 40.5288 62.4371 41.2755 62.9269C41.7701 63.2436 42.2321 63.6084 42.655 64.0159C42.949 64.3064 43.0906 64.4879 43.0652 64.5169C43.0398 64.546 42.8474 64.4225 42.5134 64.1866C42.0463 63.8533 41.5615 63.5455 41.0613 63.2645C40.3397 62.8546 39.5482 62.5825 38.727 62.4622C38.2531 62.3965 37.7717 62.405 37.3004 62.4876C36.8017 62.5805 36.3273 62.7744 35.9063 63.0575C35.4937 63.3122 35.1562 63.6719 34.9284 64.1C34.7007 64.528 34.5909 65.009 34.6103 65.4934C34.6012 65.9263 34.6562 66.3582 34.7737 66.7749C34.8743 67.1378 35.0324 67.4822 35.242 67.795C35.4203 68.0525 35.6328 68.2845 35.8737 68.4848C36.057 68.6378 36.2538 68.7739 36.4618 68.8914C36.636 68.9966 36.7812 69.0511 36.8756 69.1092C36.97 69.1673 37.0136 69.2108 37.0063 69.2108Z" fill="black"/>
<path opacity="0.2" d="M35.5652 80.5735C35.5652 80.5953 35.4999 80.5916 35.391 80.5735C35.2317 80.5437 35.0751 80.5012 34.9227 80.4464C34.6804 80.353 34.4501 80.2311 34.2365 80.0834C33.9455 79.8892 33.687 79.6503 33.4706 79.3755C33.2115 79.0403 33.0114 78.6634 32.8788 78.261C32.7256 77.7996 32.646 77.3169 32.6429 76.8307C32.6194 76.2787 32.7302 75.7294 32.9659 75.2297C33.2447 74.7061 33.6488 74.2596 34.1422 73.9301C34.6282 73.6017 35.1791 73.3813 35.7576 73.2839C36.2877 73.1967 36.8285 73.1967 37.3586 73.2839C38.2374 73.4369 39.0752 73.7693 39.8199 74.2605C40.3144 74.5772 40.7765 74.942 41.1994 75.3495C41.497 75.64 41.6386 75.8215 41.6132 75.8505C41.5878 75.8796 41.3918 75.7525 41.0578 75.5202C40.5917 75.1854 40.1069 74.8775 39.6057 74.5981C38.8841 74.1875 38.0926 73.9142 37.2714 73.7922C36.796 73.7277 36.3135 73.7375 35.8411 73.8212C35.3432 73.911 34.8697 74.1039 34.4507 74.3875C34.034 74.6647 33.6903 75.0383 33.4488 75.4766C33.248 75.8968 33.1473 76.3578 33.1547 76.8234C33.1447 77.2573 33.1985 77.6903 33.3145 78.1085C33.4162 78.4716 33.5755 78.816 33.7864 79.1286C33.9615 79.3865 34.173 79.6176 34.4144 79.8148C34.6071 79.9765 34.8136 80.121 35.0316 80.2468C35.2022 80.3484 35.351 80.4065 35.4418 80.4646C35.5325 80.5227 35.5688 80.5553 35.5652 80.5735Z" fill="black"/>
<path opacity="0.2" d="M34.1203 91.9253C34.1203 91.9434 34.055 91.9434 33.9461 91.9253C33.7877 91.8988 33.6321 91.8575 33.4814 91.8019C33.239 91.7063 33.0077 91.5846 32.7916 91.4388C32.5029 91.2432 32.2458 91.0044 32.0293 90.7309C31.7677 90.3968 31.5663 90.0197 31.4339 89.6165C31.2804 89.1563 31.2007 88.6748 31.198 88.1898C31.1773 87.6377 31.2894 87.0887 31.5247 86.5888C31.7999 86.0629 32.2032 85.6147 32.6973 85.2856C33.1842 84.9594 33.7348 84.7404 34.3127 84.643C34.8428 84.5558 35.3836 84.5558 35.9137 84.643C36.7932 84.7976 37.6319 85.1298 38.3786 85.6195C38.8722 85.9361 39.3331 86.3009 39.7545 86.7086C40.0522 86.999 40.1937 87.1805 40.1683 87.2096C40.1429 87.2386 39.9505 87.1152 39.6165 86.8792C39.1489 86.5468 38.6642 86.2391 38.1644 85.9572C37.4428 85.5473 36.6513 85.2752 35.8302 85.1549C35.356 85.0903 34.8746 85.1001 34.4035 85.1839C33.9045 85.2739 33.4298 85.4667 33.0095 85.7502C32.5927 86.0274 32.249 86.401 32.0075 86.8393C31.8081 87.26 31.7075 87.7206 31.7135 88.1861C31.7025 88.6191 31.7576 89.0512 31.8768 89.4676C31.9774 89.8305 32.1355 90.1749 32.3451 90.4877C32.5223 90.745 32.7335 90.9771 32.9732 91.1775C33.1592 91.3296 33.3571 91.4668 33.5649 91.5877C33.7355 91.6893 33.8844 91.7438 33.9751 91.8019C34.0659 91.86 34.1276 91.9071 34.1203 91.9253Z" fill="black"/>
<path opacity="0.2" d="M32.6754 103.273C32.6754 103.295 32.6137 103.292 32.5048 103.273C32.3451 103.246 32.1883 103.203 32.0365 103.146C31.7927 103.054 31.5611 102.932 31.3468 102.783C31.058 102.589 30.8008 102.352 30.5844 102.079C30.3255 101.743 30.1243 101.367 29.989 100.965C29.839 100.502 29.7594 100.02 29.7531 99.5343C29.7327 98.9822 29.8448 98.4333 30.0798 97.9334C30.3586 97.4097 30.7627 96.9632 31.256 96.6337C31.7411 96.306 32.2907 96.0857 32.8678 95.9875C33.3979 95.9003 33.9387 95.9003 34.4688 95.9875C35.3489 96.1398 36.1881 96.4723 36.9337 96.9641C37.4283 97.2808 37.8904 97.6456 38.3132 98.0532C38.6073 98.3436 38.7488 98.5251 38.7234 98.5541C38.698 98.5832 38.5056 98.4561 38.1716 98.2238C37.705 97.8898 37.2202 97.582 36.7195 97.3017C35.9969 96.8906 35.2041 96.6173 34.3817 96.4958C33.9075 96.4313 33.4261 96.4411 32.955 96.5248C32.456 96.6148 31.9813 96.8076 31.5609 97.0911C31.1443 97.3673 30.8016 97.7412 30.5626 98.1802C30.3611 98.6003 30.2592 99.0612 30.2649 99.527C30.2578 99.961 30.3128 100.394 30.4283 100.812C30.5306 101.174 30.6886 101.519 30.8966 101.832C31.074 102.089 31.2866 102.32 31.5283 102.518C31.7128 102.673 31.9108 102.81 32.12 102.929C32.2906 103.034 32.4358 103.088 32.5302 103.146C32.6246 103.204 32.6827 103.255 32.6754 103.273Z" fill="black"/>
</g>
<path d="M121.338 24.2867L120.672 29.5193L129.434 30.6339L130.099 25.4013L121.338 24.2867Z" fill="#FCD924"/>
<path d="M114.45 28.2288C114.402 28.2337 114.354 28.2337 114.305 28.2288L113.881 28.1889L112.254 27.9929L106.268 27.2305L86.5375 24.6421L80.9142 23.8943C79.0991 23.6547 77.3457 23.4078 75.6794 23.2045C74.1054 22.9834 72.5094 22.9663 70.931 23.1537C69.4607 23.3607 68.0704 23.6765 66.778 23.5168C66.1671 23.4477 65.5747 23.2642 65.0318 22.9758C64.52 22.7072 64.0734 22.3986 63.6451 22.1336C63.2542 21.8768 62.8397 21.658 62.4072 21.4802C62.0406 21.3453 61.6541 21.2729 61.2636 21.266C60.7182 21.238 60.1816 21.4125 59.7571 21.7561C59.6193 21.8851 59.4974 22.0302 59.394 22.1881C59.4125 22.1423 59.4356 22.0985 59.463 22.0574C59.4915 22.0043 59.5255 21.9544 59.5647 21.9085C59.6144 21.8417 59.6717 21.7808 59.7353 21.727C60.1595 21.3608 60.7073 21.17 61.2673 21.1934C61.668 21.1946 62.0656 21.2633 62.4435 21.3967C62.8846 21.5629 63.3088 21.7707 63.7104 22.0175C64.1424 22.2825 64.5926 22.5838 65.0972 22.8452C65.6294 23.1203 66.2078 23.295 66.8034 23.3607C68.0667 23.5022 69.439 23.1864 70.9201 22.9686C72.5108 22.7711 74.1205 22.7821 75.7084 23.0013C77.3856 23.2009 79.1317 23.4478 80.9505 23.6801L86.5738 24.4062L106.297 27.049L112.272 27.8731L113.899 28.1054L114.32 28.1707C114.365 28.1851 114.409 28.2046 114.45 28.2288Z" fill="#263238"/>
<path d="M112.915 33.5109H112.781L112.385 33.4673L110.86 33.293L105.266 32.6105L86.8134 30.2944L68.3644 27.9203L62.7774 27.1942L61.26 26.98L60.8643 26.9219C60.8189 26.917 60.774 26.9085 60.73 26.8965C60.7757 26.8901 60.8222 26.8901 60.8679 26.8965L61.2636 26.9365L62.7847 27.1107L68.3826 27.7932L86.8388 30.1129L105.284 32.4871L110.871 33.2132L112.389 33.4237L112.784 33.4818C112.829 33.4855 112.873 33.4952 112.915 33.5109Z" fill="#263238"/>
<path d="M106.715 63.9904H106.587L106.224 63.9505L104.772 63.7835L99.454 63.1373L81.9163 60.9374L64.3676 58.683L59.0566 57.957L57.6045 57.7573L57.2414 57.6992L57.1144 57.6738C57.1566 57.6698 57.1992 57.6698 57.2414 57.6738L57.6045 57.7101L59.0566 57.8771L64.3749 58.5233L81.9163 60.7268L99.4504 62.9849L104.761 63.6891L106.214 63.8924L106.577 63.9469C106.625 63.9535 106.671 63.9683 106.715 63.9904Z" fill="#263238"/>
<path d="M105.404 74.2932H105.277L104.914 74.2569L103.462 74.0899L98.1435 73.4437L80.6021 71.2401L63.068 68.9821L57.7569 68.2778L56.3048 68.0745L55.9418 68.0201L55.8147 67.9947C55.8581 67.9892 55.902 67.9892 55.9454 67.9947L56.3084 68.0346L57.7605 68.2016L63.0752 68.8478L80.6166 71.0513L98.1471 73.3057L103.462 74.0318L104.914 74.2314L105.277 74.2895C105.319 74.2872 105.362 74.2884 105.404 74.2932Z" fill="#263238"/>
<path d="M105.041 68.9096C104.999 68.9136 104.956 68.9136 104.914 68.9096L104.551 68.8733L103.135 68.7099L97.9257 68.0782L80.7509 65.9219L63.5834 63.711L58.3813 63.0176L56.9691 62.8216L56.6061 62.7672L56.4827 62.7417C56.5248 62.7361 56.5676 62.7361 56.6097 62.7417L56.9728 62.7817L58.3922 62.9414L63.598 63.5731L80.7727 65.7258L97.9402 67.9403L103.139 68.63L104.551 68.8261L104.914 68.8841L105.041 68.9096Z" fill="#263238"/>
<path d="M77.5055 75.4221C77.4295 75.4309 77.3527 75.4309 77.2768 75.4221L76.6269 75.3568L74.2346 75.0809L66.357 74.108L58.4866 73.077L56.1015 72.7466L55.4553 72.645C55.3788 72.6375 55.3033 72.6217 55.2302 72.5978C55.3062 72.5882 55.383 72.5882 55.4589 72.5978L56.1124 72.6631L58.5011 72.9354L66.3678 73.9301L74.2382 74.9429L76.6233 75.2769L77.2695 75.3749C77.3498 75.3809 77.4291 75.3967 77.5055 75.4221Z" fill="#263238"/>
<path d="M67.4061 32.3383C67.4061 32.3891 65.5293 32.1931 63.2313 31.9027C60.9334 31.6123 59.0783 31.3291 59.0856 31.2783C59.0929 31.2275 60.9588 31.4199 63.2568 31.7139C65.5547 32.008 67.4098 32.2839 67.4061 32.3383Z" fill="#263238"/>
<path d="M107.433 58.3491C107.391 58.3547 107.349 58.3547 107.306 58.3491L106.943 58.3128C106.624 58.2765 106.152 58.2257 105.546 58.1748C104.939 58.124 104.192 58.0659 103.328 58.0151C102.464 57.9643 101.476 57.9135 100.384 57.8663C98.2054 57.7682 95.6025 57.7029 92.7201 57.5323C91.2679 57.4452 89.765 57.3362 88.2004 57.1329C86.6357 56.9297 85.0384 56.6646 83.3903 56.4069L66.5169 53.8258L61.4055 53.0199L60.0187 52.7912L59.6557 52.7258C59.6145 52.7221 59.5742 52.7123 59.5359 52.6968H59.6593L60.0223 52.744L61.4164 52.9364L66.5314 53.6842L83.4121 56.2254C85.0602 56.4686 86.6793 56.7264 88.2222 56.9514C89.765 57.1765 91.2861 57.2673 92.7273 57.358C95.6061 57.5359 98.2054 57.6194 100.387 57.7211C101.476 57.7791 102.464 57.8336 103.331 57.8989C104.199 57.9643 104.939 58.026 105.549 58.0913C106.159 58.1567 106.638 58.2148 106.947 58.2656L107.31 58.32C107.352 58.3272 107.393 58.3369 107.433 58.3491Z" fill="#263238"/>
<path d="M14.7022 89.3371C14.7022 89.3371 59.1257 45.411 64.179 38.4518L61.1368 35.6565L11.0393 85.4781L14.7022 89.3371Z" fill="#E0E0E0"/>
<path d="M1.16489 98.6159C3.16516 98.6523 8.56698 97.8899 16.1724 90.034L22.8847 83.9788L17.7515 79.0126C17.7515 79.0126 27.9852 69.5303 27.4988 69.0112C27.0123 68.4921 21.5669 73.5672 17.2687 77.2737C13.3589 80.6607 0.30815 92.597 0.00320894 97.3345C-0.00863858 97.4958 0.0123967 97.6578 0.0650417 97.8107C0.117687 97.9636 0.200844 98.1043 0.30947 98.2241C0.418096 98.3439 0.549928 98.4405 0.696971 98.5078C0.844014 98.5752 1.0032 98.612 1.16489 98.6159Z" fill="#FCD924"/>
<path opacity="0.2" d="M27.4988 69.0221C27.0087 68.503 21.567 73.5527 17.2687 77.2737C16.9311 77.5678 16.5173 77.9271 16.0562 78.341L21.1567 83.2273L14.4553 89.2971C7.5578 96.4342 2.47545 97.7375 0.108521 97.8936C0.197025 98.1027 0.343505 98.2822 0.530684 98.4109C0.717862 98.5395 0.937929 98.6119 1.16492 98.6196C3.16519 98.6559 8.56701 97.8935 16.1724 90.0377L22.8847 83.9824L17.7516 79.0126C17.7516 79.0126 27.9852 69.5413 27.4988 69.0221Z" fill="black"/>
<path d="M23.5962 77.7929L58.61 42.6012L57.1288 41.2362L22.1731 76.2899L23.5962 77.7929Z" fill="#263238"/>
<path d="M64.1534 38.499C64.1534 38.499 67.4751 33.2678 66.5458 32.9919C65.6164 32.716 61.144 35.6565 61.144 35.6565L62.0007 36.5387L56.9183 41.4322L58.6282 42.6012L63.2531 37.7185L64.1534 38.499Z" fill="#455A64"/>
<path d="M30.0291 62.3135C30.4668 62.3465 30.9066 62.291 31.3224 62.1502C31.7382 62.0095 32.1213 61.7864 32.4489 61.4944C32.7766 61.2023 33.042 60.8472 33.2294 60.4503C33.4168 60.0534 33.5223 59.6228 33.5396 59.1842C33.6085 57.4054 33.6703 55.6084 33.6703 55.6084C33.6703 55.6084 36.3639 55.3579 36.5563 52.7042C36.7487 50.0505 36.6652 43.8863 36.6652 43.8863C35.1886 43.1413 33.5398 42.8044 31.8893 42.9103C30.2388 43.0163 28.6466 43.5612 27.2774 44.4889L26.8635 44.7684L27.0124 59.1079C27.0254 59.9221 27.3419 60.702 27.8999 61.295C28.4579 61.8879 29.2173 62.2511 30.0291 62.3135Z" fill="#FFBE9D"/>
<path d="M29.9056 40.4012C28.2828 40.354 26.8126 41.4141 26.0575 42.7173C25.3024 44.0206 25.1427 45.5344 25.0737 47.0047C24.9872 49.8935 25.0551 52.7849 25.277 55.6665C25.2667 55.885 25.3321 56.1004 25.4621 56.2763C25.6615 56.4394 25.909 56.5325 26.1664 56.5414C31.0931 57.2202 36.0891 57.2275 41.0178 56.5631C41.3409 55.975 40.8835 55.278 40.3607 54.8279C39.8379 54.3777 39.1845 53.9675 38.9957 53.3322C38.6944 52.3339 39.6855 51.2666 39.3007 50.2937C39.0102 49.5676 38.0482 49.2046 37.7106 48.4786C37.1443 47.2806 38.6073 45.8321 37.9575 44.6668C37.6199 44.0605 36.8285 43.7919 36.3275 43.2873C35.8846 42.8408 35.6958 42.2345 35.3147 41.7444C34.6305 40.9795 33.674 40.5129 32.65 40.4448C31.7425 40.2968 30.8186 40.2773 29.9056 40.3867" fill="#FCD924"/>
<path d="M26.1049 43.4362C25.4188 43.7701 25.1211 44.5942 25.0158 45.3529C24.9105 46.1117 24.9432 46.9103 24.6274 47.6073C24.3115 48.3043 23.5855 48.9215 23.4003 49.7165C23.1607 50.7548 23.8432 51.9745 23.2261 52.8421C22.8304 53.3976 22.0499 53.5392 21.5598 54.0183C20.8846 54.6827 20.9426 55.7681 21.0516 56.712L29.9529 56.6321" fill="#FCD924"/>
<path d="M28.0688 42.0348C27.988 41.6018 27.803 41.1948 27.5298 40.8492C27.2566 40.5036 26.9034 40.2296 26.5007 40.0509C26.0979 39.8723 25.6578 39.7943 25.2182 39.8237C24.7786 39.8531 24.3528 39.989 23.9775 40.2197C22.5581 41.0982 22.0535 43.1929 20.4561 43.6793C20.0387 43.8064 19.5268 43.8427 19.3053 44.2203C19.0839 44.5978 19.3634 45.1423 19.77 45.3384C20.1985 45.4952 20.6618 45.5316 21.1096 45.4436C20.9791 45.4302 20.8473 45.447 20.7243 45.4928C20.6014 45.5385 20.4907 45.612 20.4007 45.7076C20.3108 45.8031 20.2442 45.9181 20.2059 46.0435C20.1677 46.169 20.1589 46.3016 20.1802 46.4311C20.2526 46.6888 20.4173 46.9108 20.643 47.0548C20.8687 47.1987 21.1394 47.2546 21.4036 47.2116C21.6665 47.1557 21.9098 47.0308 22.1083 46.8495C22.3067 46.6683 22.4532 46.4374 22.5326 46.1806C22.3366 46.7396 22.143 47.2987 21.9518 47.8578C23.059 48.0538 24.0029 47.0555 24.562 46.0826C25.121 45.1097 25.651 43.9698 26.6711 43.5414C27.1322 43.349 27.6658 43.3127 28.0615 43.0077C28.4572 42.7028 28.5371 41.9404 28.0615 41.7952" fill="#FCD924"/>
<path d="M28.5298 42.0675C28.5298 42.0675 28.7367 42.1474 28.9182 42.4305C29.0398 42.6223 29.1148 42.84 29.1371 43.066C29.1593 43.292 29.1282 43.5201 29.0463 43.732C28.9644 43.9438 28.8339 44.1335 28.6654 44.2857C28.4969 44.438 28.295 44.5486 28.076 44.6087C27.9028 44.6739 27.7119 44.6739 27.5387 44.6087C27.5387 44.576 27.742 44.5869 28.0324 44.4707C28.2214 44.4033 28.3936 44.2961 28.5376 44.1563C28.6815 44.0165 28.7938 43.8475 28.8667 43.6606C28.9397 43.4737 28.9717 43.2733 28.9605 43.073C28.9493 42.8727 28.8953 42.6771 28.802 42.4995C28.6677 42.2236 28.4971 42.0929 28.5298 42.0675Z" fill="#263238"/>
<path d="M38.1826 126.663L42.7458 147.708L48.7648 147.57L46.0966 124.801L38.1826 126.663Z" fill="#FFBE9D"/>
<path d="M16.7169 68.0203C16.7169 68.0203 16.6152 68.1691 16.4482 68.4341C15.4826 69.9697 12.7599 75.4768 15.0542 79.1615L20.8118 74.1009L21.7811 71.8284" fill="#FFBE9D"/>
<path d="M20.035 109.667L18.0964 145.602L24.021 147.033L28.4644 110.425L20.035 109.667Z" fill="#FFBE9D"/>
<path d="M46.2055 64.4916L37.8559 66.5064L37.3731 72.9501L38.5348 76.6239C38.5348 76.7546 40.4153 82.9333 40.4153 82.9333L40.9997 84.9771L21.9119 85.1768C21.8465 82.9442 23.3313 80.7442 23.3313 80.7442C24.4204 78.9037 24.1372 76.1229 23.6326 74.0137C23.4729 73.3458 23.2696 72.2422 23.1752 71.5633V71.4435L22.0861 73.3639L15.4282 68.572C17.581 64.419 20.7393 60.2224 21.1205 59.9102C22.5003 58.756 24.237 58.1147 26.0358 58.0951L34.2765 58.1677C34.2765 58.1677 40.7638 57.3545 44.5465 56.7156L46.2055 64.4916Z" fill="#455A64"/>
<path d="M44.7207 57.6522C44.4134 57.8264 44.1251 58.032 43.8603 58.2657C43.6026 58.4908 43.3158 58.7957 42.9854 59.1515C42.6163 59.5688 42.2065 59.9483 41.762 60.2842C40.5877 61.1526 39.1923 61.6722 37.7361 61.7834C36.8815 61.8479 36.0223 61.7669 35.1949 61.5439C34.3345 61.3079 33.4959 60.9267 32.6065 60.6726C32.1696 60.5431 31.7185 60.4675 31.2633 60.4475C30.8228 60.4442 30.3837 60.4966 29.9564 60.6036C29.1451 60.8343 28.3593 61.1469 27.6113 61.5366C26.9263 61.8911 26.2194 62.2016 25.4948 62.4659C24.713 62.7441 23.8831 62.8618 23.0548 62.8119C22.2264 62.762 21.4166 62.5456 20.6739 62.1755C20.4367 62.0569 20.2086 61.921 19.9914 61.7689C19.9141 61.7182 19.8413 61.6612 19.7736 61.5983C19.7736 61.5802 20.0858 61.8197 20.7065 62.1065C21.4428 62.4538 22.2408 62.6513 23.0541 62.6874C23.8674 62.7236 24.6798 62.5977 25.444 62.3171C26.1598 62.0487 26.8582 61.7359 27.535 61.3805C28.2911 60.9796 29.0868 60.6584 29.9092 60.4221C30.3541 60.3099 30.8118 60.2562 31.2706 60.2624C31.7407 60.2791 32.2067 60.356 32.6573 60.4911C33.5685 60.7488 34.4035 61.1336 35.2457 61.366C36.0562 61.5866 36.8982 61.6688 37.7361 61.6092C39.1636 61.5075 40.5349 61.011 41.6967 60.1752C42.1388 59.8528 42.5486 59.488 42.9201 59.0862C43.2067 58.7821 43.5084 58.4925 43.824 58.2185C44.0273 58.0468 44.2475 57.896 44.4811 57.7684C44.5423 57.7357 44.6053 57.7066 44.6698 57.6813C44.7037 57.6595 44.7207 57.6498 44.7207 57.6522Z" fill="#263238"/>
<path d="M37.4348 68.4849C37.3885 68.5472 37.332 68.6012 37.2678 68.6447C37.0894 68.7795 36.8817 68.8703 36.6615 68.9097C36.3122 68.9708 35.9535 68.9522 35.6124 68.8552C35.1656 68.7232 34.7437 68.5183 34.3636 68.249C33.9165 67.9239 33.4443 67.635 32.9514 67.385C32.3794 67.1377 31.7588 67.0235 31.1363 67.051C29.7967 67.0945 28.4063 67.6572 26.9833 68.2707C26.2855 68.5781 25.5645 68.8293 24.8269 69.0222C24.1328 69.2086 23.4095 69.2603 22.6959 69.1747C22.0485 69.086 21.4287 68.8555 20.8808 68.4994C20.4047 68.1954 19.9713 67.8291 19.5921 67.4104C19.0529 66.807 18.575 66.1515 18.1654 65.4537C18.0202 65.2104 17.9076 65.018 17.835 64.8873C17.7949 64.821 17.7597 64.7519 17.7297 64.6804C17.7832 64.7362 17.8296 64.7984 17.8677 64.8656L18.2307 65.4137C18.6581 66.0902 19.144 66.728 19.6828 67.3196C20.0615 67.7182 20.4883 68.0682 20.9534 68.3615C21.4869 68.6958 22.0862 68.9113 22.7104 68.9932C23.4015 69.0715 24.1011 69.0186 24.7724 68.8371C25.4993 68.6414 26.2104 68.3914 26.8998 68.0892C28.3192 67.4793 29.7386 66.9058 31.1217 66.8731C31.7743 66.844 32.4246 66.9684 33.0204 67.2361C33.516 67.4965 33.9906 67.7951 34.4398 68.1292C34.8058 68.3983 35.2127 68.6067 35.645 68.7463C35.9701 68.8476 36.3134 68.8761 36.6506 68.8298C36.9374 68.7843 37.2075 68.6655 37.4348 68.4849Z" fill="#263238"/>
<path d="M37.7143 74.6563C37.7143 74.6563 37.6889 74.6999 37.62 74.7725C37.523 74.8795 37.4147 74.9757 37.2969 75.0592C36.852 75.358 36.3387 75.5391 35.8048 75.5856C35.0154 75.6509 34.2213 75.5431 33.4778 75.2698C32.6356 74.983 31.7753 74.5256 30.8459 74.1481C29.9822 73.768 29.0446 73.5857 28.1014 73.6144C27.3328 73.6543 26.5783 73.8365 25.8761 74.1517C25.2333 74.4597 24.6379 74.8582 24.1082 75.3352C24.1082 75.3352 24.1336 75.288 24.1989 75.2154C24.2939 75.1073 24.3958 75.0054 24.5039 74.9104C24.8985 74.5574 25.3409 74.2616 25.818 74.0319C26.5312 73.6895 27.3044 73.4897 28.0942 73.4438C29.0628 73.3997 30.0284 73.5811 30.9149 73.9738C31.8624 74.3586 32.73 74.816 33.5359 75.1064C34.2546 75.3792 35.0229 75.4968 35.7903 75.4513C36.3037 75.4184 36.8016 75.2627 37.2424 74.9975C37.5728 74.7979 37.6998 74.6563 37.7143 74.6563Z" fill="#263238"/>
<path d="M39.7509 80.5881C39.7509 80.5881 39.5585 80.4538 39.1845 80.2614C38.6517 80.0055 38.0752 79.8527 37.4856 79.8112C36.6081 79.7541 35.7273 79.8499 34.8827 80.0944C33.9243 80.3485 32.9042 80.7587 31.8006 81.1072C30.7608 81.456 29.6699 81.6278 28.5733 81.6155C27.6849 81.601 26.8033 81.4579 25.9559 81.1907C25.3811 81.0079 24.8274 80.7645 24.3041 80.4647C24.119 80.363 23.981 80.2723 23.8903 80.2106C23.8401 80.1813 23.7938 80.1459 23.7523 80.1053C23.7523 80.1053 23.9629 80.2142 24.3404 80.3993C25.6587 81.0678 27.1134 81.423 28.5914 81.4376C29.6677 81.4394 30.737 81.2653 31.757 80.9221C32.8461 80.5772 33.8771 80.1706 34.8536 79.9201C35.7177 79.6803 36.6176 79.5967 37.511 79.6733C38.1142 79.7259 38.7001 79.9026 39.2317 80.1924C39.3748 80.2727 39.5108 80.365 39.6383 80.4683C39.7182 80.5409 39.7509 80.5808 39.7509 80.5881Z" fill="#263238"/>
<path d="M21.9408 84.4471L18.2815 126.409L27.3245 126.46L31.7897 92.833L37.6235 126.765L46.6701 125.095L41.1231 84.7993L21.9408 84.4471Z" fill="#263238"/>
<path d="M38.2661 91.7185C38.2661 91.773 35.1732 92.1832 31.3432 92.637C27.5133 93.0907 24.4058 93.4175 24.3986 93.363C24.3913 93.3086 27.4915 92.902 31.3215 92.4482C35.1514 91.9944 38.2589 91.6822 38.2661 91.7185Z" fill="#455A64"/>
<path d="M49.5852 148.184L49.5598 147.512L42.7458 147.708L42.8039 149.93H43.225C45.1019 149.977 52.7654 150.042 54.0069 149.657C55.39 149.236 49.5852 148.184 49.5852 148.184Z" fill="#FCD924"/>
<g opacity="0.6">
<path opacity="0.6" d="M45.2617 149.803C45.1381 149.263 44.8136 148.79 44.3541 148.481C43.8862 148.158 43.3193 148.01 42.7532 148.064L42.8076 149.828L45.2617 149.803Z" fill="white"/>
</g>
<g opacity="0.6">
<path opacity="0.6" d="M52.424 148.793C52.424 148.793 54.4606 149.28 54.2392 149.596C54.0177 149.911 46.2526 150.115 42.822 149.93V149.788L51.8614 149.621C51.8614 149.621 52.0283 148.819 52.424 148.793Z" fill="white"/>
</g>
<path d="M42.7021 149.803H42.8219H43.1559L44.3902 149.821C45.4321 149.821 46.8733 149.821 48.467 149.781C50.0607 149.741 51.4946 149.672 52.5365 149.614L53.7672 149.534L54.1011 149.505H54.2173H54.1011H53.7672L52.5329 149.559C51.491 149.607 50.0534 149.665 48.4634 149.705C46.8733 149.744 45.4321 149.759 44.3902 149.766H43.1559H42.8219L42.7021 149.803Z" fill="#263238"/>
<path d="M51.8505 149.719C51.8995 149.527 51.9714 149.342 52.0647 149.167C52.1761 149 52.3078 148.848 52.4567 148.714C52.2515 148.786 52.0807 148.932 51.9775 149.124C51.9181 149.21 51.8763 149.307 51.8545 149.409C51.8327 149.511 51.8313 149.616 51.8505 149.719Z" fill="#263238"/>
<path d="M49.8212 148.826C49.8212 148.826 49.9337 148.728 50.0281 148.579C50.1225 148.43 50.1805 148.303 50.1624 148.292C50.1442 148.281 50.0499 148.394 49.9555 148.539C49.8611 148.684 49.7994 148.815 49.8212 148.826Z" fill="#263238"/>
<path d="M49.2621 148.572C49.2621 148.572 49.3819 148.517 49.4981 148.416C49.6142 148.314 49.6905 148.223 49.6759 148.205C49.6614 148.187 49.5525 148.26 49.44 148.361C49.3274 148.463 49.2476 148.557 49.2621 148.572Z" fill="#263238"/>
<path d="M48.8955 147.987C49.0126 148.025 49.1366 148.036 49.2585 148.02C49.3813 148.034 49.5055 148.019 49.6216 147.977C49.5044 147.939 49.3805 147.928 49.2585 147.944C49.1358 147.935 49.0125 147.949 48.8955 147.987Z" fill="#263238"/>
<path d="M48.7649 147.57C49.0194 147.684 49.3079 147.695 49.5708 147.603C49.4367 147.592 49.302 147.592 49.1679 147.603C49.0347 147.58 48.8999 147.569 48.7649 147.57Z" fill="#263238"/>
<path d="M50.0317 148.271C50.1773 148.293 50.3254 148.293 50.471 148.271C50.6274 148.249 50.7816 148.213 50.932 148.165C51.0223 148.137 51.1098 148.101 51.1934 148.056C51.2431 148.027 51.2805 147.981 51.2987 147.926C51.304 147.895 51.2999 147.863 51.287 147.835C51.274 147.806 51.2528 147.782 51.2261 147.766C51.0579 147.694 50.871 147.679 50.6935 147.723C50.516 147.767 50.3577 147.867 50.2423 148.009C50.1797 148.091 50.1351 148.185 50.1116 148.285C50.102 148.321 50.102 148.358 50.1116 148.394C50.1534 148.263 50.2172 148.14 50.3004 148.031C50.3968 147.92 50.5226 147.838 50.6634 147.795C50.8332 147.738 51.0181 147.746 51.1825 147.817C51.2551 147.86 51.2297 147.937 51.1535 147.984C51.076 148.026 50.9945 148.06 50.9103 148.085C50.7657 148.137 50.6177 148.178 50.4674 148.209C50.1987 148.252 50.0317 148.26 50.0317 148.271Z" fill="#263238"/>
<path d="M50.148 148.289C50.1955 148.202 50.2097 148.102 50.188 148.006C50.1727 147.898 50.1289 147.796 50.0609 147.712C50.0211 147.652 49.9671 147.602 49.9038 147.568C49.8405 147.534 49.7698 147.516 49.6979 147.516C49.6771 147.519 49.6572 147.527 49.6396 147.539C49.6219 147.551 49.6067 147.566 49.5948 147.583C49.583 147.601 49.5748 147.621 49.5707 147.641C49.5666 147.662 49.5666 147.684 49.5708 147.704C49.584 147.77 49.6112 147.832 49.6507 147.886C49.7105 147.974 49.7813 148.055 49.8612 148.125C49.9332 148.198 50.0217 148.251 50.119 148.281C50.119 148.281 50.0282 148.213 49.9048 148.085C49.833 148.014 49.7696 147.935 49.716 147.849C49.6507 147.762 49.6071 147.61 49.716 147.588C49.7736 147.593 49.8295 147.611 49.8796 147.64C49.9297 147.669 49.973 147.708 50.0065 147.755C50.0712 147.83 50.1161 147.92 50.1371 148.016C50.1499 148.107 50.1535 148.198 50.148 148.289Z" fill="#263238"/>
<path d="M42.7893 148.056C42.7893 148.056 42.9853 148.035 43.2903 148.056C43.687 148.087 44.0687 148.221 44.3975 148.445C44.7178 148.665 44.9695 148.97 45.1236 149.327C45.1787 149.473 45.226 149.622 45.2651 149.774C45.2651 149.774 45.2651 149.726 45.2651 149.647C45.2519 149.531 45.2238 149.417 45.1816 149.309C45.0401 148.933 44.7867 148.61 44.4556 148.383C44.1138 148.151 43.714 148.019 43.3012 148.002C43.1799 147.996 43.0582 148.002 42.9381 148.02C42.887 148.025 42.8367 148.037 42.7893 148.056Z" fill="#263238"/>
<path d="M46.0967 149.175C46.4242 149.238 46.7584 149.259 47.0914 149.24C47.4244 149.247 47.7571 149.214 48.0824 149.142C48.0824 149.116 47.6359 149.142 47.0914 149.164C46.5468 149.185 46.1003 149.153 46.0967 149.175Z" fill="#263238"/>
<path d="M44.7679 149.207C44.7679 149.225 44.8079 149.294 44.8551 149.389C44.9023 149.483 44.9313 149.563 44.9531 149.563C44.9749 149.563 44.9858 149.461 44.9277 149.352C44.8696 149.244 44.7825 149.193 44.7679 149.207Z" fill="#263238"/>
<path d="M44.2488 148.641C44.2488 148.641 44.2778 148.721 44.3504 148.786C44.423 148.851 44.4956 148.888 44.5102 148.873C44.5247 148.859 44.4811 148.793 44.4085 148.732C44.3359 148.67 44.2633 148.626 44.2488 148.641Z" fill="#263238"/>
<path d="M43.5227 148.394C43.5227 148.416 43.6207 148.412 43.7187 148.445C43.8168 148.478 43.893 148.521 43.9111 148.507C43.9293 148.492 43.8712 148.405 43.7442 148.369C43.6171 148.332 43.5154 148.376 43.5227 148.394Z" fill="#263238"/>
<path d="M43.0181 148.285C43.0181 148.303 43.0507 148.336 43.1052 148.354C43.1596 148.372 43.2141 148.372 43.2214 148.354C43.2286 148.336 43.1923 148.303 43.1342 148.285C43.0762 148.267 43.0181 148.263 43.0181 148.285Z" fill="#263238"/>
<path d="M17.9221 145.294L16.9128 149.73H23.7305L24.0209 146.84L17.9221 145.294Z" fill="#FCD924"/>
<path d="M23.8686 149.077C23.5411 149.13 23.2089 149.148 22.8775 149.131C22.264 149.131 21.4254 149.131 20.4815 149.087L18.0892 148.986C17.7571 148.99 17.4252 148.964 17.0981 148.906C17.4259 148.855 17.758 148.838 18.0892 148.855C18.7027 148.855 19.5413 148.855 20.4888 148.899L22.8775 149C23.2096 148.994 23.5415 149.019 23.8686 149.077Z" fill="#263238"/>
<path d="M20.9824 146.172C21.0458 146.654 21.0458 147.142 20.9824 147.624C20.9799 148.105 20.9165 148.583 20.7936 149.047C20.7268 148.566 20.7268 148.077 20.7936 147.595C20.7932 147.115 20.8567 146.636 20.9824 146.172Z" fill="#263238"/>
<path opacity="0.6" d="M16.9128 149.73H23.7305L23.7958 149.087L17.0363 148.917L16.9128 149.654" fill="white"/>
<path d="M60.5485 42.7101L58.0618 43.6068C58.0291 42.6121 57.3357 41.5738 57.3357 42.0712C57.3357 42.5685 57.0997 45.1423 57.0997 45.1423L51.9157 54.1635C51.1897 55.6156 49.8937 56.4397 48.9607 56.5885L44.7061 57.4961L45.9222 63.1121L51.8504 61.66C52.6089 61.4734 53.3131 61.1114 53.9064 60.6033C54.4997 60.0951 54.9655 59.4549 55.2665 58.734L60.1964 46.9103C60.5238 46.1498 60.8015 45.3689 61.0277 44.5724C61.0861 44.2458 61.0735 43.9104 60.9908 43.5891C60.9082 43.2677 60.7573 42.9679 60.5485 42.7101Z" fill="#FFBE9D"/>
</svg>
