<svg width="277" height="44" viewBox="0 0 277 44" fill="none" xmlns="http://www.w3.org/2000/svg">
<path d="M0 22C0 17.5817 3.58172 14 8 14H239.81C254.274 14 266 25.7259 266 40.1905C266 42.2944 264.294 44 262.19 44H8C3.58172 44 0 40.4183 0 36V22Z" fill="#FCD924"/>
<path d="M12.908 13.004H4.916L5.672 9.44H25.724L24.968 13.004H16.976L12.296 35H8.264L12.908 13.004ZM25.3328 16.172H29.0048L28.0688 20.384C28.9808 19.088 30.0128 18.044 31.1648 17.252C32.3168 16.46 33.4568 16.064 34.5848 16.064C34.8248 16.064 35.0168 16.076 35.1608 16.1C35.3048 16.1 35.4248 16.112 35.5208 16.136L34.7648 19.592C33.3488 19.616 32.0048 19.964 30.7328 20.636C29.4608 21.308 28.4528 22.256 27.7088 23.48L25.2608 35H21.3008L25.3328 16.172ZM42.5191 35.36C40.7911 35.36 39.3511 35 38.1991 34.28C37.0711 33.56 36.2311 32.6 35.6791 31.4C35.1511 30.176 34.8871 28.844 34.8871 27.404C34.8871 25.844 35.1631 24.368 35.7151 22.976C36.2911 21.584 37.0951 20.348 38.1271 19.268C39.1591 18.188 40.3591 17.348 41.7271 16.748C43.0951 16.148 44.5711 15.848 46.1551 15.848C47.9071 15.848 49.3471 16.208 50.4751 16.928C51.6271 17.648 52.4791 18.608 53.0311 19.808C53.5831 21.008 53.8591 22.34 53.8591 23.804C53.8591 25.364 53.5711 26.84 52.9951 28.232C52.4431 29.624 51.6511 30.86 50.6191 31.94C49.5871 32.996 48.3751 33.836 46.9831 34.46C45.6151 35.06 44.1271 35.36 42.5191 35.36ZM43.1671 31.976C44.0071 31.976 44.8231 31.796 45.6151 31.436C46.4071 31.052 47.1031 30.512 47.7031 29.816C48.3271 29.12 48.8191 28.316 49.1791 27.404C49.5391 26.468 49.7191 25.448 49.7191 24.344C49.7191 23.336 49.5631 22.46 49.2511 21.716C48.9391 20.948 48.4711 20.348 47.8471 19.916C47.2231 19.46 46.4551 19.232 45.5431 19.232C44.7031 19.232 43.8871 19.424 43.0951 19.808C42.3271 20.192 41.6311 20.732 41.0071 21.428C40.3831 22.124 39.8911 22.94 39.5311 23.876C39.1711 24.812 38.9911 25.82 38.9911 26.9C38.9911 27.884 39.1471 28.76 39.4591 29.528C39.7711 30.296 40.2391 30.896 40.8631 31.328C41.5111 31.76 42.2791 31.976 43.1671 31.976ZM63.3643 35.36C61.7323 35.36 60.3523 35 59.2243 34.28C58.1203 33.56 57.2803 32.6 56.7043 31.4C56.1283 30.2 55.8403 28.868 55.8403 27.404C55.8403 25.892 56.1283 24.452 56.7043 23.084C57.2803 21.692 58.0843 20.456 59.1163 19.376C60.1483 18.296 61.3603 17.444 62.7523 16.82C64.1683 16.172 65.7043 15.848 67.3603 15.848C69.3043 15.848 70.8523 16.28 72.0043 17.144C73.1563 17.984 73.9123 19.112 74.2723 20.528L70.1683 21.752C69.9043 20.936 69.4723 20.312 68.8723 19.88C68.2963 19.448 67.5643 19.232 66.6763 19.232C65.8123 19.232 64.9723 19.436 64.1562 19.844C63.3643 20.228 62.6443 20.78 61.9963 21.5C61.3723 22.196 60.8683 23.012 60.4843 23.948C60.1243 24.86 59.9443 25.856 59.9443 26.936C59.9443 27.92 60.1123 28.784 60.4482 29.528C60.7843 30.272 61.2523 30.872 61.8523 31.328C62.4763 31.76 63.1843 31.976 63.9763 31.976C64.5763 31.976 65.1763 31.868 65.7763 31.652C66.4003 31.412 66.9643 31.1 67.4683 30.716C67.9723 30.308 68.3563 29.864 68.6203 29.384L72.2563 30.536C71.6803 31.472 70.9243 32.3 69.9883 33.02C69.0763 33.74 68.0563 34.316 66.9283 34.748C65.8003 35.156 64.6123 35.36 63.3643 35.36ZM90.5558 35.36C89.1638 35.36 87.9638 35.012 86.9558 34.316C85.9478 33.62 85.1798 32.684 84.6518 31.508C84.1238 30.332 83.8598 29.024 83.8598 27.584C83.8598 26.048 84.1358 24.584 84.6878 23.192C85.2398 21.776 85.9958 20.528 86.9558 19.448C87.9398 18.344 89.0558 17.468 90.3038 16.82C91.5518 16.172 92.8598 15.848 94.2278 15.848C95.5958 15.848 96.7478 16.22 97.6838 16.964C98.6198 17.708 99.2678 18.632 99.6278 19.736L101.968 8.72H105.964L101.356 30.32C101.332 30.44 101.308 30.548 101.284 30.644C101.284 30.716 101.284 30.788 101.284 30.86C101.284 31.34 101.56 31.592 102.112 31.616L101.392 35C101.056 35.048 100.756 35.084 100.492 35.108C100.228 35.156 99.9878 35.18 99.7718 35.18C99.0278 35.18 98.4398 35.024 98.0078 34.712C97.5998 34.376 97.3958 33.92 97.3958 33.344C97.3958 33.224 97.4078 33.092 97.4318 32.948C97.4558 32.78 97.4798 32.588 97.5038 32.372C97.5518 32.132 97.6118 31.868 97.6838 31.58C96.7478 32.78 95.6318 33.716 94.3358 34.388C93.0638 35.036 91.8038 35.36 90.5558 35.36ZM92.2838 31.976C92.7638 31.976 93.2678 31.88 93.7958 31.688C94.3478 31.496 94.8758 31.232 95.3798 30.896C95.9078 30.56 96.3878 30.164 96.8198 29.708C97.2518 29.252 97.5998 28.76 97.8638 28.232L98.8718 23.3C98.7758 22.532 98.5238 21.848 98.1158 21.248C97.7078 20.624 97.2038 20.132 96.6038 19.772C96.0278 19.412 95.4038 19.232 94.7318 19.232C93.8198 19.232 92.9558 19.46 92.1398 19.916C91.3478 20.348 90.6398 20.936 90.0158 21.68C89.4158 22.424 88.9358 23.252 88.5758 24.164C88.2158 25.076 88.0358 26 88.0358 26.936C88.0358 27.896 88.2038 28.748 88.5398 29.492C88.8998 30.236 89.3918 30.836 90.0158 31.292C90.6638 31.748 91.4198 31.976 92.2838 31.976ZM113.498 35.36C111.914 35.36 110.558 35.012 109.43 34.316C108.302 33.62 107.438 32.672 106.838 31.472C106.262 30.272 105.974 28.916 105.974 27.404C105.974 25.844 106.262 24.38 106.838 23.012C107.414 21.62 108.23 20.384 109.286 19.304C110.342 18.224 111.566 17.384 112.958 16.784C114.374 16.16 115.91 15.848 117.566 15.848C118.862 15.848 119.99 16.052 120.95 16.46C121.934 16.844 122.69 17.42 123.218 18.188C123.77 18.932 124.046 19.88 124.046 21.032C124.046 22.952 123.17 24.416 121.418 25.424C119.69 26.432 117.05 26.936 113.498 26.936C112.826 26.936 112.07 26.924 111.23 26.9C110.39 26.852 109.442 26.78 108.386 26.684L108.926 24.128C109.886 24.176 110.738 24.224 111.482 24.272C112.226 24.32 112.922 24.344 113.57 24.344C115.274 24.344 116.618 24.212 117.602 23.948C118.586 23.684 119.294 23.312 119.726 22.832C120.158 22.328 120.374 21.764 120.374 21.14C120.374 20.588 120.242 20.144 119.978 19.808C119.714 19.472 119.342 19.22 118.862 19.052C118.382 18.86 117.806 18.764 117.134 18.764C116.078 18.764 115.106 19.004 114.218 19.484C113.33 19.94 112.562 20.588 111.914 21.428C111.29 22.244 110.798 23.168 110.438 24.2C110.102 25.232 109.934 26.324 109.934 27.476C109.934 28.388 110.078 29.228 110.366 29.996C110.678 30.74 111.146 31.34 111.77 31.796C112.418 32.228 113.222 32.444 114.182 32.444C115.214 32.444 116.21 32.192 117.17 31.688C118.13 31.16 118.886 30.452 119.438 29.564L122.57 30.536C121.97 31.472 121.19 32.312 120.23 33.056C119.27 33.776 118.202 34.34 117.026 34.748C115.874 35.156 114.698 35.36 113.498 35.36ZM131.459 35.36C129.947 35.36 128.531 35.12 127.211 34.64C125.891 34.16 124.811 33.452 123.971 32.516L126.095 29.996C126.959 30.788 127.871 31.388 128.831 31.796C129.815 32.204 130.835 32.408 131.891 32.408C132.707 32.408 133.415 32.288 134.015 32.048C134.639 31.808 135.119 31.472 135.455 31.04C135.791 30.608 135.959 30.104 135.959 29.528C135.959 28.784 135.647 28.256 135.023 27.944C134.399 27.632 133.451 27.296 132.179 26.936C130.955 26.552 129.947 26.192 129.155 25.856C128.363 25.52 127.775 25.1 127.391 24.596C127.031 24.092 126.851 23.42 126.851 22.58C126.851 21.26 127.211 20.096 127.931 19.088C128.675 18.08 129.671 17.288 130.919 16.712C132.167 16.136 133.571 15.848 135.131 15.848C136.547 15.848 137.783 16.064 138.839 16.496C139.919 16.928 140.831 17.552 141.575 18.368L139.379 20.744C138.707 20.048 137.999 19.544 137.255 19.232C136.535 18.92 135.719 18.764 134.807 18.764C134.015 18.764 133.307 18.872 132.683 19.088C132.083 19.304 131.603 19.628 131.243 20.06C130.907 20.492 130.739 21.02 130.739 21.644C130.739 22.292 130.979 22.76 131.459 23.048C131.939 23.336 132.791 23.648 134.015 23.984C135.311 24.344 136.403 24.728 137.291 25.136C138.179 25.544 138.839 26.036 139.271 26.612C139.727 27.188 139.955 27.944 139.955 28.88C139.955 30.104 139.607 31.208 138.911 32.192C138.215 33.176 137.231 33.956 135.959 34.532C134.687 35.084 133.187 35.36 131.459 35.36ZM160.599 13.004H152.607L153.363 9.44H173.415L172.659 13.004H164.667L159.987 35H155.955L160.599 13.004ZM173.024 16.172H176.696L175.76 20.384C176.672 19.088 177.704 18.044 178.856 17.252C180.008 16.46 181.148 16.064 182.276 16.064C182.516 16.064 182.708 16.076 182.852 16.1C182.996 16.1 183.116 16.112 183.212 16.136L182.456 19.592C181.04 19.616 179.696 19.964 178.424 20.636C177.152 21.308 176.144 22.256 175.4 23.48L172.952 35H168.992L173.024 16.172ZM189.345 35.36C187.953 35.36 186.753 35.012 185.745 34.316C184.737 33.62 183.969 32.684 183.441 31.508C182.913 30.332 182.649 29.024 182.649 27.584C182.649 26.048 182.925 24.584 183.477 23.192C184.029 21.776 184.785 20.528 185.745 19.448C186.729 18.344 187.845 17.468 189.093 16.82C190.341 16.172 191.649 15.848 193.017 15.848C194.385 15.848 195.537 16.22 196.473 16.964C197.409 17.708 198.057 18.632 198.417 19.736L199.173 16.208H203.169L200.145 30.32C200.121 30.44 200.097 30.548 200.073 30.644C200.073 30.716 200.073 30.788 200.073 30.86C200.073 31.34 200.349 31.592 200.901 31.616L200.181 35C199.845 35.048 199.545 35.084 199.281 35.108C199.017 35.156 198.777 35.18 198.561 35.18C197.817 35.18 197.241 35.024 196.833 34.712C196.425 34.376 196.221 33.908 196.221 33.308C196.221 33.188 196.221 33.044 196.221 32.876C196.245 32.708 196.269 32.516 196.293 32.3C196.341 32.084 196.401 31.844 196.473 31.58C195.537 32.78 194.421 33.716 193.125 34.388C191.853 35.036 190.593 35.36 189.345 35.36ZM191.073 31.976C191.553 31.976 192.057 31.88 192.585 31.688C193.137 31.496 193.665 31.232 194.169 30.896C194.697 30.56 195.177 30.164 195.609 29.708C196.041 29.252 196.389 28.76 196.653 28.232L197.661 23.3C197.565 22.532 197.313 21.848 196.905 21.248C196.497 20.624 195.993 20.132 195.393 19.772C194.817 19.412 194.193 19.232 193.521 19.232C192.609 19.232 191.745 19.46 190.929 19.916C190.137 20.348 189.429 20.936 188.805 21.68C188.205 22.424 187.725 23.252 187.365 24.164C187.005 25.076 186.825 26 186.825 26.936C186.825 27.896 186.993 28.748 187.329 29.492C187.689 30.236 188.181 30.836 188.805 31.292C189.453 31.748 190.209 31.976 191.073 31.976ZM208.145 16.172H212.105L208.073 35H204.113L208.145 16.172ZM209.693 8.72H213.653L212.753 13.076H208.793L209.693 8.72ZM216.759 16.172H220.323L219.531 19.952C220.155 19.112 220.899 18.392 221.763 17.792C222.627 17.168 223.563 16.688 224.571 16.352C225.579 16.016 226.599 15.848 227.631 15.848C228.687 15.848 229.515 16.04 230.115 16.424C230.715 16.808 231.147 17.336 231.411 18.008C231.675 18.656 231.807 19.4 231.807 20.24C231.807 20.744 231.759 21.272 231.663 21.824C231.591 22.376 231.495 22.94 231.375 23.516L228.963 35H225.003L227.235 24.452C227.331 23.996 227.403 23.588 227.451 23.228C227.499 22.844 227.523 22.484 227.523 22.148C227.523 21.188 227.319 20.492 226.911 20.06C226.527 19.604 225.963 19.376 225.219 19.376C224.523 19.376 223.779 19.568 222.987 19.952C222.219 20.336 221.487 20.864 220.791 21.536C220.095 22.184 219.531 22.94 219.099 23.804L216.687 35H212.727L216.759 16.172ZM239.986 35.36C238.474 35.36 237.058 35.12 235.738 34.64C234.418 34.16 233.338 33.452 232.498 32.516L234.622 29.996C235.486 30.788 236.398 31.388 237.358 31.796C238.342 32.204 239.362 32.408 240.418 32.408C241.234 32.408 241.942 32.288 242.542 32.048C243.166 31.808 243.646 31.472 243.982 31.04C244.318 30.608 244.486 30.104 244.486 29.528C244.486 28.784 244.174 28.256 243.55 27.944C242.926 27.632 241.978 27.296 240.706 26.936C239.482 26.552 238.474 26.192 237.682 25.856C236.89 25.52 236.302 25.1 235.918 24.596C235.558 24.092 235.378 23.42 235.378 22.58C235.378 21.26 235.738 20.096 236.458 19.088C237.202 18.08 238.198 17.288 239.446 16.712C240.694 16.136 242.098 15.848 243.658 15.848C245.074 15.848 246.31 16.064 247.366 16.496C248.446 16.928 249.358 17.552 250.102 18.368L247.906 20.744C247.234 20.048 246.526 19.544 245.782 19.232C245.062 18.92 244.246 18.764 243.334 18.764C242.542 18.764 241.834 18.872 241.21 19.088C240.61 19.304 240.13 19.628 239.77 20.06C239.434 20.492 239.266 21.02 239.266 21.644C239.266 22.292 239.506 22.76 239.986 23.048C240.466 23.336 241.318 23.648 242.542 23.984C243.838 24.344 244.93 24.728 245.818 25.136C246.706 25.544 247.366 26.036 247.798 26.612C248.254 27.188 248.482 27.944 248.482 28.88C248.482 30.104 248.134 31.208 247.438 32.192C246.742 33.176 245.758 33.956 244.486 34.532C243.214 35.084 241.714 35.36 239.986 35.36Z" fill="black"/>
<path d="M252 25.4C252 24.6268 252.627 24 253.4 24C256.493 24 259 26.5072 259 29.6V31.2C259 32.1941 258.194 33 257.2 33H254C252.895 33 252 32.1046 252 31V25.4Z" fill="white" fill-opacity="0.8"/>
</svg>
