<svg width="247" height="28" viewBox="0 0 247 28" fill="none" xmlns="http://www.w3.org/2000/svg">
<path d="M8.908 5.004H0.916L1.672 1.44H21.724L20.968 5.004H12.976L8.296 27H4.264L8.908 5.004ZM21.3328 8.172H25.0048L24.0688 12.384C24.9808 11.088 26.0128 10.044 27.1648 9.252C28.3168 8.46 29.4568 8.064 30.5848 8.064C30.8248 8.064 31.0168 8.076 31.1608 8.1C31.3048 8.1 31.4248 8.112 31.5208 8.136L30.7648 11.592C29.3488 11.616 28.0048 11.964 26.7328 12.636C25.4608 13.308 24.4528 14.256 23.7088 15.48L21.2608 27H17.3008L21.3328 8.172ZM38.5191 27.36C36.7911 27.36 35.3511 27 34.1991 26.28C33.0711 25.56 32.2311 24.6 31.6791 23.4C31.1511 22.176 30.8871 20.844 30.8871 19.404C30.8871 17.844 31.1631 16.368 31.7151 14.976C32.2911 13.584 33.0951 12.348 34.1271 11.268C35.1591 10.188 36.3591 9.348 37.7271 8.748C39.0951 8.148 40.5711 7.848 42.1551 7.848C43.9071 7.848 45.3471 8.208 46.4751 8.928C47.6271 9.648 48.4791 10.608 49.0311 11.808C49.5831 13.008 49.8591 14.34 49.8591 15.804C49.8591 17.364 49.5711 18.84 48.9951 20.232C48.4431 21.624 47.6511 22.86 46.6191 23.94C45.5871 24.996 44.3751 25.836 42.9831 26.46C41.6151 27.06 40.1271 27.36 38.5191 27.36ZM39.1671 23.976C40.0071 23.976 40.8231 23.796 41.6151 23.436C42.4071 23.052 43.1031 22.512 43.7031 21.816C44.3271 21.12 44.8191 20.316 45.1791 19.404C45.5391 18.468 45.7191 17.448 45.7191 16.344C45.7191 15.336 45.5631 14.46 45.2511 13.716C44.9391 12.948 44.4711 12.348 43.8471 11.916C43.2231 11.46 42.4551 11.232 41.5431 11.232C40.7031 11.232 39.8871 11.424 39.0951 11.808C38.3271 12.192 37.6311 12.732 37.0071 13.428C36.3831 14.124 35.8911 14.94 35.5311 15.876C35.1711 16.812 34.9911 17.82 34.9911 18.9C34.9911 19.884 35.1471 20.76 35.4591 21.528C35.7711 22.296 36.2391 22.896 36.8631 23.328C37.5111 23.76 38.2791 23.976 39.1671 23.976ZM59.3643 27.36C57.7323 27.36 56.3523 27 55.2243 26.28C54.1203 25.56 53.2803 24.6 52.7043 23.4C52.1283 22.2 51.8403 20.868 51.8403 19.404C51.8403 17.892 52.1283 16.452 52.7043 15.084C53.2803 13.692 54.0843 12.456 55.1163 11.376C56.1483 10.296 57.3603 9.444 58.7523 8.82C60.1683 8.172 61.7043 7.848 63.3603 7.848C65.3043 7.848 66.8523 8.28 68.0043 9.144C69.1563 9.984 69.9123 11.112 70.2723 12.528L66.1683 13.752C65.9043 12.936 65.4723 12.312 64.8723 11.88C64.2963 11.448 63.5643 11.232 62.6763 11.232C61.8123 11.232 60.9723 11.436 60.1562 11.844C59.3643 12.228 58.6443 12.78 57.9963 13.5C57.3723 14.196 56.8683 15.012 56.4843 15.948C56.1243 16.86 55.9443 17.856 55.9443 18.936C55.9443 19.92 56.1123 20.784 56.4482 21.528C56.7843 22.272 57.2523 22.872 57.8523 23.328C58.4763 23.76 59.1843 23.976 59.9763 23.976C60.5763 23.976 61.1763 23.868 61.7763 23.652C62.4003 23.412 62.9643 23.1 63.4683 22.716C63.9723 22.308 64.3563 21.864 64.6203 21.384L68.2563 22.536C67.6803 23.472 66.9243 24.3 65.9883 25.02C65.0763 25.74 64.0563 26.316 62.9283 26.748C61.8003 27.156 60.6123 27.36 59.3643 27.36ZM86.5558 27.36C85.1638 27.36 83.9638 27.012 82.9558 26.316C81.9478 25.62 81.1798 24.684 80.6518 23.508C80.1238 22.332 79.8598 21.024 79.8598 19.584C79.8598 18.048 80.1358 16.584 80.6878 15.192C81.2398 13.776 81.9958 12.528 82.9558 11.448C83.9398 10.344 85.0558 9.468 86.3038 8.82C87.5518 8.172 88.8598 7.848 90.2278 7.848C91.5958 7.848 92.7478 8.22 93.6838 8.964C94.6198 9.708 95.2678 10.632 95.6278 11.736L97.9678 0.719999H101.964L97.3558 22.32C97.3318 22.44 97.3078 22.548 97.2838 22.644C97.2838 22.716 97.2838 22.788 97.2838 22.86C97.2838 23.34 97.5598 23.592 98.1118 23.616L97.3918 27C97.0558 27.048 96.7558 27.084 96.4918 27.108C96.2278 27.156 95.9878 27.18 95.7718 27.18C95.0278 27.18 94.4398 27.024 94.0078 26.712C93.5998 26.376 93.3958 25.92 93.3958 25.344C93.3958 25.224 93.4078 25.092 93.4318 24.948C93.4558 24.78 93.4798 24.588 93.5038 24.372C93.5518 24.132 93.6118 23.868 93.6838 23.58C92.7478 24.78 91.6318 25.716 90.3358 26.388C89.0638 27.036 87.8038 27.36 86.5558 27.36ZM88.2838 23.976C88.7638 23.976 89.2678 23.88 89.7958 23.688C90.3478 23.496 90.8758 23.232 91.3798 22.896C91.9078 22.56 92.3878 22.164 92.8198 21.708C93.2518 21.252 93.5998 20.76 93.8638 20.232L94.8718 15.3C94.7758 14.532 94.5238 13.848 94.1158 13.248C93.7078 12.624 93.2038 12.132 92.6038 11.772C92.0278 11.412 91.4038 11.232 90.7318 11.232C89.8198 11.232 88.9558 11.46 88.1398 11.916C87.3478 12.348 86.6398 12.936 86.0158 13.68C85.4158 14.424 84.9358 15.252 84.5758 16.164C84.2158 17.076 84.0358 18 84.0358 18.936C84.0358 19.896 84.2038 20.748 84.5398 21.492C84.8998 22.236 85.3918 22.836 86.0158 23.292C86.6638 23.748 87.4198 23.976 88.2838 23.976ZM109.498 27.36C107.914 27.36 106.558 27.012 105.43 26.316C104.302 25.62 103.438 24.672 102.838 23.472C102.262 22.272 101.974 20.916 101.974 19.404C101.974 17.844 102.262 16.38 102.838 15.012C103.414 13.62 104.23 12.384 105.286 11.304C106.342 10.224 107.566 9.384 108.958 8.784C110.374 8.16 111.91 7.848 113.566 7.848C114.862 7.848 115.99 8.052 116.95 8.46C117.934 8.844 118.69 9.42 119.218 10.188C119.77 10.932 120.046 11.88 120.046 13.032C120.046 14.952 119.17 16.416 117.418 17.424C115.69 18.432 113.05 18.936 109.498 18.936C108.826 18.936 108.07 18.924 107.23 18.9C106.39 18.852 105.442 18.78 104.386 18.684L104.926 16.128C105.886 16.176 106.738 16.224 107.482 16.272C108.226 16.32 108.922 16.344 109.57 16.344C111.274 16.344 112.618 16.212 113.602 15.948C114.586 15.684 115.294 15.312 115.726 14.832C116.158 14.328 116.374 13.764 116.374 13.14C116.374 12.588 116.242 12.144 115.978 11.808C115.714 11.472 115.342 11.22 114.862 11.052C114.382 10.86 113.806 10.764 113.134 10.764C112.078 10.764 111.106 11.004 110.218 11.484C109.33 11.94 108.562 12.588 107.914 13.428C107.29 14.244 106.798 15.168 106.438 16.2C106.102 17.232 105.934 18.324 105.934 19.476C105.934 20.388 106.078 21.228 106.366 21.996C106.678 22.74 107.146 23.34 107.77 23.796C108.418 24.228 109.222 24.444 110.182 24.444C111.214 24.444 112.21 24.192 113.17 23.688C114.13 23.16 114.886 22.452 115.438 21.564L118.57 22.536C117.97 23.472 117.19 24.312 116.23 25.056C115.27 25.776 114.202 26.34 113.026 26.748C111.874 27.156 110.698 27.36 109.498 27.36ZM127.459 27.36C125.947 27.36 124.531 27.12 123.211 26.64C121.891 26.16 120.811 25.452 119.971 24.516L122.095 21.996C122.959 22.788 123.871 23.388 124.831 23.796C125.815 24.204 126.835 24.408 127.891 24.408C128.707 24.408 129.415 24.288 130.015 24.048C130.639 23.808 131.119 23.472 131.455 23.04C131.791 22.608 131.959 22.104 131.959 21.528C131.959 20.784 131.647 20.256 131.023 19.944C130.399 19.632 129.451 19.296 128.179 18.936C126.955 18.552 125.947 18.192 125.155 17.856C124.363 17.52 123.775 17.1 123.391 16.596C123.031 16.092 122.851 15.42 122.851 14.58C122.851 13.26 123.211 12.096 123.931 11.088C124.675 10.08 125.671 9.288 126.919 8.712C128.167 8.136 129.571 7.848 131.131 7.848C132.547 7.848 133.783 8.064 134.839 8.496C135.919 8.928 136.831 9.552 137.575 10.368L135.379 12.744C134.707 12.048 133.999 11.544 133.255 11.232C132.535 10.92 131.719 10.764 130.807 10.764C130.015 10.764 129.307 10.872 128.683 11.088C128.083 11.304 127.603 11.628 127.243 12.06C126.907 12.492 126.739 13.02 126.739 13.644C126.739 14.292 126.979 14.76 127.459 15.048C127.939 15.336 128.791 15.648 130.015 15.984C131.311 16.344 132.403 16.728 133.291 17.136C134.179 17.544 134.839 18.036 135.271 18.612C135.727 19.188 135.955 19.944 135.955 20.88C135.955 22.104 135.607 23.208 134.911 24.192C134.215 25.176 133.231 25.956 131.959 26.532C130.687 27.084 129.187 27.36 127.459 27.36ZM156.599 5.004H148.607L149.363 1.44H169.415L168.659 5.004H160.667L155.987 27H151.955L156.599 5.004ZM169.024 8.172H172.696L171.76 12.384C172.672 11.088 173.704 10.044 174.856 9.252C176.008 8.46 177.148 8.064 178.276 8.064C178.516 8.064 178.708 8.076 178.852 8.1C178.996 8.1 179.116 8.112 179.212 8.136L178.456 11.592C177.04 11.616 175.696 11.964 174.424 12.636C173.152 13.308 172.144 14.256 171.4 15.48L168.952 27H164.992L169.024 8.172ZM185.345 27.36C183.953 27.36 182.753 27.012 181.745 26.316C180.737 25.62 179.969 24.684 179.441 23.508C178.913 22.332 178.649 21.024 178.649 19.584C178.649 18.048 178.925 16.584 179.477 15.192C180.029 13.776 180.785 12.528 181.745 11.448C182.729 10.344 183.845 9.468 185.093 8.82C186.341 8.172 187.649 7.848 189.017 7.848C190.385 7.848 191.537 8.22 192.473 8.964C193.409 9.708 194.057 10.632 194.417 11.736L195.173 8.208H199.169L196.145 22.32C196.121 22.44 196.097 22.548 196.073 22.644C196.073 22.716 196.073 22.788 196.073 22.86C196.073 23.34 196.349 23.592 196.901 23.616L196.181 27C195.845 27.048 195.545 27.084 195.281 27.108C195.017 27.156 194.777 27.18 194.561 27.18C193.817 27.18 193.241 27.024 192.833 26.712C192.425 26.376 192.221 25.908 192.221 25.308C192.221 25.188 192.221 25.044 192.221 24.876C192.245 24.708 192.269 24.516 192.293 24.3C192.341 24.084 192.401 23.844 192.473 23.58C191.537 24.78 190.421 25.716 189.125 26.388C187.853 27.036 186.593 27.36 185.345 27.36ZM187.073 23.976C187.553 23.976 188.057 23.88 188.585 23.688C189.137 23.496 189.665 23.232 190.169 22.896C190.697 22.56 191.177 22.164 191.609 21.708C192.041 21.252 192.389 20.76 192.653 20.232L193.661 15.3C193.565 14.532 193.313 13.848 192.905 13.248C192.497 12.624 191.993 12.132 191.393 11.772C190.817 11.412 190.193 11.232 189.521 11.232C188.609 11.232 187.745 11.46 186.929 11.916C186.137 12.348 185.429 12.936 184.805 13.68C184.205 14.424 183.725 15.252 183.365 16.164C183.005 17.076 182.825 18 182.825 18.936C182.825 19.896 182.993 20.748 183.329 21.492C183.689 22.236 184.181 22.836 184.805 23.292C185.453 23.748 186.209 23.976 187.073 23.976ZM204.145 8.172H208.105L204.073 27H200.113L204.145 8.172ZM205.693 0.719999H209.653L208.753 5.076H204.793L205.693 0.719999ZM212.759 8.172H216.323L215.531 11.952C216.155 11.112 216.899 10.392 217.763 9.792C218.627 9.168 219.563 8.688 220.571 8.352C221.579 8.016 222.599 7.848 223.631 7.848C224.687 7.848 225.515 8.04 226.115 8.424C226.715 8.808 227.147 9.336 227.411 10.008C227.675 10.656 227.807 11.4 227.807 12.24C227.807 12.744 227.759 13.272 227.663 13.824C227.591 14.376 227.495 14.94 227.375 15.516L224.963 27H221.003L223.235 16.452C223.331 15.996 223.403 15.588 223.451 15.228C223.499 14.844 223.523 14.484 223.523 14.148C223.523 13.188 223.319 12.492 222.911 12.06C222.527 11.604 221.963 11.376 221.219 11.376C220.523 11.376 219.779 11.568 218.987 11.952C218.219 12.336 217.487 12.864 216.791 13.536C216.095 14.184 215.531 14.94 215.099 15.804L212.687 27H208.727L212.759 8.172ZM235.986 27.36C234.474 27.36 233.058 27.12 231.738 26.64C230.418 26.16 229.338 25.452 228.498 24.516L230.622 21.996C231.486 22.788 232.398 23.388 233.358 23.796C234.342 24.204 235.362 24.408 236.418 24.408C237.234 24.408 237.942 24.288 238.542 24.048C239.166 23.808 239.646 23.472 239.982 23.04C240.318 22.608 240.486 22.104 240.486 21.528C240.486 20.784 240.174 20.256 239.55 19.944C238.926 19.632 237.978 19.296 236.706 18.936C235.482 18.552 234.474 18.192 233.682 17.856C232.89 17.52 232.302 17.1 231.918 16.596C231.558 16.092 231.378 15.42 231.378 14.58C231.378 13.26 231.738 12.096 232.458 11.088C233.202 10.08 234.198 9.288 235.446 8.712C236.694 8.136 238.098 7.848 239.658 7.848C241.074 7.848 242.31 8.064 243.366 8.496C244.446 8.928 245.358 9.552 246.102 10.368L243.906 12.744C243.234 12.048 242.526 11.544 241.782 11.232C241.062 10.92 240.246 10.764 239.334 10.764C238.542 10.764 237.834 10.872 237.21 11.088C236.61 11.304 236.13 11.628 235.77 12.06C235.434 12.492 235.266 13.02 235.266 13.644C235.266 14.292 235.506 14.76 235.986 15.048C236.466 15.336 237.318 15.648 238.542 15.984C239.838 16.344 240.93 16.728 241.818 17.136C242.706 17.544 243.366 18.036 243.798 18.612C244.254 19.188 244.482 19.944 244.482 20.88C244.482 22.104 244.134 23.208 243.438 24.192C242.742 25.176 241.758 25.956 240.486 26.532C239.214 27.084 237.714 27.36 235.986 27.36Z" fill="black"/>
</svg>
