<svg width="80" height="120" viewBox="0 0 80 120" fill="none" xmlns="http://www.w3.org/2000/svg">
<path d="M11.8395 105.921L12.0785 113.262L13.9431 119.015C13.9749 119.113 13.9863 119.216 13.9765 119.319C13.9667 119.421 13.936 119.521 13.8862 119.611C13.8364 119.701 13.7686 119.78 13.687 119.843C13.6055 119.906 13.5119 119.951 13.412 119.977C13.2956 120.006 13.1737 120.008 13.0566 119.981C12.9395 119.953 12.8307 119.898 12.7393 119.82C11.5592 118.808 7.24286 115.067 7.25466 114.53C7.25466 113.905 6.48462 106.8 6.48462 106.8L11.8395 105.921Z" fill="#FCD924"/>
<path d="M13.412 119.968L7.21625 114.026L7.23395 114.321C7.24828 114.59 7.35812 114.845 7.54374 115.041C8.03939 115.56 9.44081 116.97 12.7098 119.797C12.8034 119.878 12.9157 119.935 13.0367 119.962C13.1577 119.99 13.2836 119.986 13.4031 119.953L13.412 119.968Z" fill="#E0E0E0"/>
<path d="M8.59999 111.574C8.69467 111.635 8.76312 111.73 8.79203 111.839C8.82093 111.948 8.80822 112.064 8.75636 112.164C8.69945 112.264 8.60541 112.337 8.49483 112.367C8.38424 112.397 8.26611 112.383 8.16629 112.326C8.06611 112.262 7.99364 112.162 7.96308 112.047C7.93251 111.932 7.94606 111.81 8.00107 111.704C8.07169 111.61 8.17601 111.547 8.2921 111.528C8.40819 111.509 8.52702 111.536 8.62359 111.604" fill="white"/>
<path d="M11.5563 116.858C11.5976 116.876 11.7421 116.48 12.167 116.25C12.4298 116.129 12.713 116.058 13.0019 116.041C13.0019 116.023 12.9134 115.973 12.7394 115.958C12.512 115.943 12.2852 115.996 12.0873 116.109C11.8892 116.22 11.7273 116.386 11.6212 116.587C11.5415 116.743 11.5386 116.852 11.5563 116.858Z" fill="#263238"/>
<path d="M12.1345 117.811C12.337 117.679 12.5479 117.561 12.7659 117.457C13 117.399 13.2375 117.356 13.477 117.327C13.3604 117.262 13.2296 117.226 13.096 117.222C12.9623 117.218 12.8298 117.247 12.7099 117.307C12.285 117.457 12.108 117.793 12.1345 117.811Z" fill="#263238"/>
<path d="M10.5118 115.657C10.8108 115.433 11.1253 115.23 11.453 115.05C11.8027 114.918 12.1616 114.812 12.5269 114.734C12.138 114.68 11.7419 114.739 11.385 114.902C11.0281 115.066 10.7252 115.328 10.5118 115.657Z" fill="#263238"/>
<path d="M10.2522 113.427C10.2758 113.468 10.6711 113.276 11.1963 113.229C11.7215 113.182 12.1493 113.282 12.1611 113.229C11.8649 113.059 11.518 112.998 11.1816 113.058C10.8383 113.069 10.5096 113.199 10.2522 113.427Z" fill="#263238"/>
<path d="M10.1282 111.273C10.4416 111.151 10.7702 111.073 11.1048 111.04C11.4407 111.057 11.7724 111.122 12.0902 111.232C12.0902 111.214 12.0165 111.129 11.8424 111.04C11.6118 110.929 11.3579 110.874 11.1019 110.881C10.8455 110.885 10.5939 110.95 10.3672 111.07C10.1991 111.167 10.1164 111.258 10.1282 111.273Z" fill="#263238"/>
<path d="M11.0694 110.642C11.0921 110.545 11.0921 110.444 11.0694 110.347C11.0301 110.094 10.9419 109.852 10.8097 109.633C10.7241 109.466 10.5878 109.331 10.4203 109.246C10.3624 109.223 10.2986 109.219 10.2382 109.234C10.1778 109.25 10.1238 109.284 10.0839 109.332C10.0094 109.428 9.97456 109.55 9.98658 109.671C10.017 109.916 10.132 110.144 10.3119 110.313C10.4918 110.483 10.7252 110.584 10.972 110.6C11.2171 110.613 11.4604 110.552 11.6706 110.425C11.8809 110.298 12.0485 110.112 12.1521 109.889C12.1777 109.833 12.1909 109.772 12.1909 109.711C12.1909 109.649 12.1777 109.588 12.1521 109.532C12.1205 109.479 12.0727 109.436 12.0154 109.411C11.9581 109.386 11.8945 109.38 11.8335 109.394C11.6553 109.443 11.4934 109.539 11.3644 109.671C11.1743 109.838 11.0154 110.038 10.8953 110.261C10.8445 110.34 10.8113 110.428 10.7979 110.521C10.9729 110.234 11.1885 109.975 11.4382 109.751C11.5561 109.641 11.6988 109.561 11.8542 109.518C11.8876 109.51 11.9225 109.513 11.9539 109.527C11.9852 109.541 12.0113 109.565 12.0282 109.594C12.0418 109.632 12.0474 109.672 12.0449 109.712C12.0424 109.753 12.0317 109.792 12.0135 109.827C11.9183 110.016 11.771 110.174 11.5891 110.282C11.4071 110.389 11.1981 110.443 10.9868 110.435C10.7785 110.42 10.5815 110.335 10.4278 110.193C10.2741 110.052 10.1727 109.863 10.14 109.656C10.1296 109.572 10.1506 109.487 10.199 109.417C10.2201 109.39 10.2493 109.371 10.2822 109.362C10.3151 109.353 10.3501 109.355 10.3819 109.367C10.5245 109.437 10.642 109.549 10.7183 109.689C10.8911 109.983 11.01 110.306 11.0694 110.642Z" fill="#263238"/>
<path d="M26.1309 107.001L25.7503 112.492C25.7503 112.492 31.2055 114.722 31.2321 115.737L20.5607 115.383L20.8026 106.803L26.1309 107.001Z" fill="#FCD924"/>
<path d="M22.4666 111.919C22.3605 111.946 22.2682 112.011 22.2076 112.102C22.147 112.193 22.1226 112.304 22.1391 112.412C22.1632 112.517 22.2264 112.608 22.3158 112.668C22.4052 112.728 22.514 112.751 22.62 112.734C22.73 112.704 22.825 112.634 22.8866 112.538C22.9482 112.442 22.972 112.327 22.9534 112.214C22.9176 112.108 22.8419 112.02 22.7423 111.968C22.6428 111.916 22.527 111.905 22.4194 111.937" fill="#E0E0E0"/>
<path d="M20.5607 115.389L20.6197 114.524L30.8308 115.188C30.8308 115.188 31.297 115.412 31.2321 115.743L20.5607 115.389Z" fill="#E0E0E0"/>
<path d="M25.9274 112.444C25.9274 112.495 25.6618 112.509 25.3993 112.669C25.1367 112.828 24.9951 113.043 24.9479 113.02C24.9006 112.996 24.9862 112.701 25.3078 112.512C25.6294 112.323 25.9392 112.412 25.9274 112.444Z" fill="#263238"/>
<path d="M27.0308 112.943C27.0308 112.993 26.8124 113.076 26.6266 113.291C26.4407 113.506 26.3846 113.737 26.3315 113.731C26.2784 113.725 26.2578 113.436 26.4909 113.17C26.7239 112.905 27.0308 112.893 27.0308 112.943Z" fill="#263238"/>
<path d="M27.6208 114.303C27.5736 114.303 27.5087 114.052 27.6533 113.769C27.7978 113.486 28.0427 113.383 28.0634 113.427C28.084 113.471 27.9306 113.619 27.8155 113.852C27.7005 114.085 27.6739 114.3 27.6208 114.303Z" fill="#263238"/>
<path d="M25.8743 111.182C25.8507 111.229 25.6146 111.149 25.3196 111.161C25.0246 111.173 24.7915 111.255 24.7649 111.208C24.7384 111.161 24.9655 110.984 25.3137 110.978C25.6618 110.972 25.9008 111.143 25.8743 111.182Z" fill="#263238"/>
<path d="M25.9303 110.072C25.7501 110.118 25.5607 110.111 25.3845 110.052C25.1924 110.012 25.006 109.949 24.8298 109.863C24.7276 109.812 24.629 109.754 24.5348 109.689C24.4756 109.655 24.4227 109.611 24.3784 109.559C24.3452 109.521 24.3256 109.473 24.3229 109.423C24.3203 109.373 24.3346 109.323 24.3637 109.282C24.3915 109.246 24.4269 109.218 24.4673 109.199C24.5077 109.179 24.5519 109.169 24.5968 109.169C24.6638 109.171 24.7303 109.182 24.7944 109.202C24.908 109.235 25.0186 109.277 25.1249 109.329C25.3021 109.416 25.4645 109.53 25.6058 109.668C25.8448 109.907 25.9244 110.102 25.9008 110.114C25.8772 110.125 25.7592 109.963 25.5143 109.765C25.373 109.646 25.2162 109.547 25.0482 109.47C24.9528 109.428 24.8541 109.394 24.7531 109.367C24.641 109.332 24.5437 109.329 24.5141 109.367C24.4846 109.406 24.4994 109.394 24.5141 109.426C24.5482 109.463 24.5869 109.496 24.6292 109.524C24.7187 109.584 24.8113 109.64 24.9065 109.692C25.0692 109.78 25.2401 109.852 25.417 109.907C25.5914 109.951 25.7628 110.006 25.9303 110.072Z" fill="#263238"/>
<path d="M25.8594 110.146C25.7651 109.989 25.7218 109.807 25.7355 109.624C25.7346 109.307 25.817 108.996 25.9745 108.721C26.0057 108.651 26.0545 108.591 26.1161 108.546C26.1776 108.501 26.2498 108.473 26.3256 108.464C26.3731 108.467 26.4188 108.483 26.4574 108.511C26.4961 108.539 26.5261 108.577 26.5439 108.621C26.5694 108.684 26.5854 108.751 26.5911 108.818C26.6105 108.938 26.6105 109.059 26.5911 109.178C26.5563 109.377 26.4721 109.564 26.3462 109.721C26.1279 109.993 25.9096 110.049 25.9037 110.016C25.8978 109.984 26.0719 109.895 26.243 109.636C26.3393 109.485 26.4027 109.317 26.4289 109.14C26.4421 109.037 26.4421 108.933 26.4289 108.83C26.4141 108.715 26.3758 108.624 26.3315 108.633C26.2872 108.641 26.1869 108.712 26.1397 108.804C26.0831 108.897 26.0357 108.996 25.9981 109.099C25.9323 109.269 25.8915 109.448 25.8771 109.63C25.8388 109.942 25.8889 110.14 25.8594 110.146Z" fill="#263238"/>
<path d="M4.1922 52.8209L5.76768 111.84L14.188 111.589L16.1942 50.8087L4.1922 52.8209Z" fill="#263238"/>
<path d="M21.6907 50.7084C21.6907 50.7084 27.9395 75.7274 28.1313 79.9935C28.323 84.2597 26.7948 110.937 26.7948 110.937H18.5515L19.2419 80.5482L12.993 54.8625L14.5066 50.8412L21.6907 50.7084Z" fill="#263238"/>
<path d="M16.6042 53.7797C16.6074 53.8072 16.6074 53.8349 16.6042 53.8623V54.0954C16.6042 54.3137 16.5865 54.6117 16.5718 54.9953C16.5364 55.786 16.4833 56.913 16.4213 58.2997C16.2767 61.0995 16.0791 64.9497 15.8607 69.2159C15.6424 73.4821 15.4123 77.3146 15.2707 80.1145C15.1881 81.5012 15.1173 82.6252 15.07 83.4189C15.0435 83.7995 15.0228 84.1004 15.0081 84.304C15.0081 84.3984 14.9933 84.4781 14.9874 84.5371C14.9906 84.5635 14.9906 84.5903 14.9874 84.6167C14.9842 84.5903 14.9842 84.5635 14.9874 84.5371C14.9874 84.4751 14.9874 84.3984 14.9874 84.304C14.9874 84.0857 15.0081 83.7847 15.0228 83.4041C15.0583 82.6134 15.1114 81.4864 15.1733 80.0998C15.3179 77.2999 15.5156 73.4497 15.7309 69.1835C15.9463 64.9173 16.1794 61.0848 16.3357 58.2849C16.4184 56.8982 16.4862 55.7742 16.5364 54.9835C16.5629 54.6029 16.5836 54.3019 16.5983 54.0836C16.5983 53.9892 16.6131 53.9125 16.619 53.8505C16.61 53.828 16.6051 53.804 16.6042 53.7797Z" fill="#455A64"/>
<path d="M15.6779 18.6264C15.6779 18.6264 18.7374 33.803 18.7816 38.078C18.8259 42.3531 20.3276 50.7085 20.3276 50.7085H7.09235L6.79732 27.5866L5.85321 20.6917L7.84174 17.8534L15.6779 18.6264Z" fill="#F5F5F5"/>
<path d="M15.8401 19.0719C15.8401 19.0719 19 20.0013 19.8349 21.1696C20.4928 22.0931 21.3838 39.5473 21.3838 39.5473L22.7292 54.9245L21.4045 54.8006L19.534 49.0444L15.8401 19.0719Z" fill="#FCD924"/>
<path d="M19.8349 21.1696L28.7567 29.3568L39.735 25.7987L41.9241 30.4101L30.2083 35.7207C28.5355 36.4347 27.4851 36.0423 26.3227 35.11L20.1771 30.1888L19.8349 21.1696Z" fill="#FCD924"/>
<path d="M37.6933 27.268C37.7227 27.3248 37.7287 27.3909 37.7099 27.4522C37.6912 27.5134 37.6492 27.5648 37.593 27.5954C37.5651 27.6103 37.5346 27.6195 37.5032 27.6226C37.4717 27.6256 37.44 27.6223 37.4098 27.613C37.3796 27.6037 37.3516 27.5884 37.3273 27.5682C37.3031 27.548 37.2831 27.5231 37.2685 27.4951C37.2531 27.4675 37.2434 27.4371 37.2399 27.4057C37.2365 27.3743 37.2394 27.3425 37.2485 27.3123C37.2576 27.282 37.2726 27.2539 37.2928 27.2295C37.3129 27.2052 37.3378 27.1852 37.3658 27.1706C37.4223 27.141 37.4882 27.1345 37.5494 27.1527C37.6105 27.1709 37.6622 27.2123 37.6933 27.268Z" fill="#263238"/>
<path d="M37.4809 27.6308C37.4565 27.6353 37.4316 27.6353 37.4072 27.6308C37.3758 27.6214 37.3466 27.6059 37.3213 27.5851C37.296 27.5644 37.275 27.5388 37.2597 27.5099C37.2302 27.4514 37.2238 27.384 37.242 27.3211C37.2623 27.2589 37.3059 27.207 37.3637 27.1762C37.4214 27.1454 37.4888 27.1381 37.5517 27.1558C37.6149 27.1751 37.6679 27.2186 37.6993 27.2768C37.73 27.3349 37.7363 27.4028 37.717 27.4656C37.7078 27.4971 37.6924 27.5264 37.6716 27.5518C37.6508 27.5772 37.6251 27.598 37.596 27.6131C37.5598 27.6288 37.5202 27.6349 37.4809 27.6308ZM37.4809 27.1499C37.443 27.1503 37.4056 27.1594 37.3718 27.1765C37.3179 27.2065 37.2777 27.2562 37.2597 27.3152C37.2419 27.3742 37.2483 27.4378 37.2774 27.4922C37.3067 27.5465 37.3565 27.587 37.4157 27.6047C37.4749 27.6224 37.5387 27.6159 37.593 27.5866C37.6199 27.5727 37.6437 27.5535 37.663 27.5302C37.6822 27.5069 37.6966 27.4799 37.7052 27.4509C37.7231 27.3909 37.7167 27.3263 37.6875 27.2709C37.6676 27.2334 37.6378 27.202 37.6014 27.1802C37.565 27.1584 37.5234 27.1469 37.4809 27.147V27.1499Z" fill="#263238"/>
<path d="M38.6138 27.0496C38.6432 27.1065 38.6492 27.1726 38.6305 27.2338C38.6117 27.2951 38.5697 27.3465 38.5135 27.3771C38.4857 27.392 38.4551 27.4012 38.4237 27.4043C38.3922 27.4073 38.3605 27.404 38.3303 27.3947C38.3002 27.3854 38.2721 27.3701 38.2479 27.3499C38.2236 27.3297 38.2036 27.3048 38.189 27.2768C38.1736 27.2492 38.1639 27.2188 38.1605 27.1874C38.157 27.156 38.1599 27.1242 38.169 27.094C38.1781 27.0637 38.1932 27.0356 38.2133 27.0112C38.2335 26.9869 38.2583 26.9668 38.2864 26.9523C38.3142 26.9368 38.3448 26.9271 38.3764 26.9236C38.4081 26.9201 38.4401 26.923 38.4706 26.9321C38.5011 26.9412 38.5295 26.9562 38.5541 26.9764C38.5787 26.9966 38.599 27.0215 38.6138 27.0496Z" fill="#263238"/>
<path d="M38.4014 27.4125C38.377 27.417 38.352 27.417 38.3276 27.4125C38.2962 27.4031 38.2671 27.3876 38.2417 27.3668C38.2164 27.3461 38.1955 27.3205 38.1801 27.2916C38.1497 27.2332 38.1435 27.1652 38.1628 27.1023C38.1822 27.0393 38.2254 26.9865 38.2833 26.9552C38.3417 26.9249 38.4097 26.9187 38.4727 26.938C38.5356 26.9573 38.5884 27.0006 38.6197 27.0585C38.6504 27.1166 38.6568 27.1845 38.6374 27.2473C38.6181 27.3105 38.5746 27.3635 38.5164 27.3948C38.4799 27.4092 38.4406 27.4152 38.4014 27.4125ZM38.4014 26.9287C38.3632 26.9302 38.3259 26.9403 38.2922 26.9582C38.2378 26.9875 38.1974 27.0373 38.1796 27.0965C38.1619 27.1557 38.1685 27.2195 38.1978 27.2739C38.2119 27.3012 38.2315 27.3252 38.2553 27.3445C38.2792 27.3638 38.3068 27.3779 38.3365 27.386C38.3664 27.3974 38.3984 27.4025 38.4305 27.401C38.4625 27.3995 38.4939 27.3914 38.5226 27.3772C38.5514 27.363 38.5769 27.343 38.5976 27.3185C38.6183 27.294 38.6337 27.2655 38.6428 27.2347C38.652 27.204 38.6547 27.1717 38.6508 27.1399C38.6469 27.1081 38.6365 27.0774 38.6202 27.0498C38.6039 27.0221 38.5821 26.9982 38.5561 26.9794C38.5301 26.9606 38.5006 26.9473 38.4692 26.9405C38.4463 26.9332 38.4225 26.9292 38.3984 26.9287H38.4014Z" fill="#263238"/>
<path d="M39.4871 26.8726C39.5026 26.9004 39.5123 26.931 39.5158 26.9627C39.5193 26.9943 39.5164 27.0263 39.5073 27.0568C39.4982 27.0873 39.4832 27.1157 39.463 27.1403C39.4428 27.1649 39.4179 27.1852 39.3897 27.2001C39.3329 27.2295 39.2668 27.2355 39.2056 27.2167C39.1443 27.198 39.0929 27.156 39.0623 27.0998C39.0474 27.0719 39.0382 27.0414 39.0351 27.0099C39.0321 26.9785 39.0354 26.9468 39.0447 26.9166C39.054 26.8864 39.0693 26.8584 39.0895 26.8341C39.1097 26.8098 39.1346 26.7898 39.1626 26.7752C39.1902 26.7598 39.2206 26.7501 39.252 26.7467C39.2834 26.7433 39.3152 26.7462 39.3454 26.7553C39.3757 26.7643 39.4038 26.7794 39.4282 26.7996C39.4525 26.8197 39.4726 26.8446 39.4871 26.8726Z" fill="#263238"/>
<path d="M39.2777 27.2355C39.2533 27.24 39.2283 27.24 39.2039 27.2355C39.1441 27.2164 39.0938 27.1753 39.0632 27.1205C39.0325 27.0658 39.0237 27.0014 39.0387 26.9405C39.0478 26.9094 39.0633 26.8805 39.0841 26.8556C39.1049 26.8307 39.1306 26.8104 39.1596 26.7959C39.1883 26.7804 39.2197 26.7706 39.2522 26.7673C39.2846 26.7639 39.3174 26.7669 39.3486 26.7763C39.3799 26.7856 39.409 26.801 39.4343 26.8216C39.4595 26.8421 39.4805 26.8675 39.496 26.8962C39.5264 26.9546 39.5325 27.0226 39.5132 27.0855C39.4939 27.1485 39.4506 27.2013 39.3927 27.2326C39.355 27.2419 39.3158 27.243 39.2777 27.2355ZM39.2777 26.7546C39.2397 26.755 39.2024 26.7641 39.1685 26.7812C39.1141 26.8105 39.0736 26.8603 39.0559 26.9195C39.0382 26.9787 39.0448 27.0425 39.0741 27.0968C39.0878 27.1238 39.107 27.1477 39.1303 27.167C39.1537 27.1863 39.1807 27.2006 39.2098 27.209C39.2698 27.2269 39.3344 27.2205 39.3898 27.1913C39.4441 27.1619 39.4846 27.1122 39.5023 27.053C39.52 26.9938 39.5135 26.93 39.4842 26.8756C39.4637 26.8382 39.4333 26.8071 39.3964 26.7858C39.3594 26.7645 39.3173 26.7537 39.2747 26.7546H39.2777Z" fill="#263238"/>
<path d="M39.8441 26.0288L40.6938 25.719L42.644 29.8259L41.8149 30.1799L39.8441 26.0288Z" fill="#E0E0E0"/>
<path d="M20.121 24.4061C20.151 24.5568 20.1677 24.7098 20.1712 24.8634C20.2037 25.188 20.2479 25.6069 20.301 26.1144C20.422 27.1972 20.5961 28.6399 20.7672 30.2449C20.9383 31.8498 21.0888 33.3162 21.1537 34.3753C21.1891 34.9064 21.2038 35.3372 21.2068 35.6351C21.2177 35.7887 21.2128 35.9429 21.192 36.0954C21.1643 35.9445 21.1495 35.7915 21.1478 35.6381C21.1271 35.3431 21.0947 34.9123 21.0445 34.3842C20.9501 33.328 20.7937 31.8675 20.6138 30.2537C20.4338 28.6399 20.2804 27.1853 20.1919 26.1232C20.1476 25.5922 20.124 25.1614 20.1122 24.8634C20.1 24.7111 20.103 24.5579 20.121 24.4061Z" fill="#263238"/>
<path d="M22.0712 26.4537C21.9332 27.1989 21.7459 27.9342 21.5107 28.6546C21.3231 29.3882 21.0875 30.1086 20.8055 30.8113C20.9416 30.066 21.1279 29.3306 21.3632 28.6104C21.5503 27.8764 21.7869 27.1558 22.0712 26.4537Z" fill="#263238"/>
<path d="M28.6623 32.1213C28.5666 32.0089 28.4988 31.8754 28.4647 31.7318C28.245 31.0518 28.2914 30.3138 28.5945 29.6666C28.6478 29.5287 28.7315 29.4047 28.8394 29.3037C28.6609 29.7524 28.5419 30.2225 28.4853 30.7021C28.4823 31.1809 28.5419 31.6579 28.6623 32.1213Z" fill="#263238"/>
<path d="M27.6414 41.6066L28.7832 41.6951L28.3318 46.457L27.2284 46.3331L27.6414 41.6066Z" fill="#E0E0E0"/>
<path d="M7.84174 18.1838L1.68438 22.1107C0.983629 22.6075 0.461681 23.317 0.195953 24.1338C-0.0697753 24.9507 -0.0651288 25.8314 0.209204 26.6454L4.92975 41.4827L3.22741 54.9658L16.7223 54.3934L16.3918 48.4927L15.2471 37.9187C15.0352 35.958 14.5475 34.037 13.7985 32.2127L7.84174 18.1838Z" fill="#FCD924"/>
<path d="M1.41004 27.4568L7.56741 40.3439C7.81296 40.8575 8.17043 41.3096 8.61359 41.667C9.05674 42.0244 9.57432 42.278 10.1283 42.4091L27.2167 46.457L27.6534 41.4827L14.6099 36.5881L8.04832 23.996C7.81168 23.5424 7.48466 23.1421 7.08742 22.8198C6.69017 22.4974 6.23112 22.2598 5.73855 22.1216C5.24598 21.9833 4.73032 21.9475 4.22335 22.0161C3.71639 22.0848 3.22886 22.2566 2.7908 22.5209C1.97615 23.0138 1.37992 23.7985 1.12341 24.7155C0.866899 25.6325 0.969395 26.6127 1.41004 27.4568Z" fill="#FCD924"/>
<path d="M27.6533 41.4827C27.6289 41.4806 27.605 41.4747 27.5825 41.465L27.3819 41.3972L26.6089 41.1198L23.747 40.0666L14.1024 36.4613H14.0758V36.4317L12.9399 34.1836C11.8719 32.1006 10.8068 30.1387 9.80962 28.3685C9.31101 27.4834 8.83011 26.6484 8.37575 25.8695L7.71487 24.7425C7.60866 24.5596 7.50245 24.3855 7.39033 24.2232C7.28481 24.0602 7.16851 23.9045 7.0422 23.7571C6.6024 23.233 6.03848 22.8273 5.40181 22.5769C4.92185 22.3815 4.40622 22.2891 3.88828 22.3055C3.44381 22.3117 3.00786 22.4283 2.61963 22.6448C2.64107 22.6252 2.66485 22.6084 2.69044 22.5946C2.76171 22.5448 2.83782 22.5023 2.91761 22.4678C3.22376 22.3349 3.55186 22.2599 3.88533 22.2465C4.41236 22.2193 4.93918 22.3038 5.43131 22.4943C6.08749 22.7464 6.66982 23.1593 7.12481 23.6951C7.25522 23.8442 7.37547 24.0019 7.48475 24.1672C7.60276 24.3353 7.71192 24.5094 7.81519 24.6923L8.48491 25.8135C8.94517 26.6002 9.42804 27.4322 9.93353 28.3094C10.9367 30.0797 11.9988 32.0357 13.0786 34.1216C13.471 34.8917 13.8545 35.6499 14.2115 36.3757L14.1702 36.3373L23.7972 39.9899L26.6413 41.0844L27.4055 41.3795L27.6031 41.4591L27.6533 41.4827Z" fill="#263238"/>
<path d="M24.7502 44.5835C24.7502 44.6477 24.7247 44.7092 24.6793 44.7546C24.6339 44.8 24.5724 44.8255 24.5082 44.8255C24.4441 44.8255 24.3825 44.8 24.3372 44.7546C24.2918 44.7092 24.2663 44.6477 24.2663 44.5835C24.2663 44.5194 24.2918 44.4578 24.3372 44.4125C24.3825 44.3671 24.4441 44.3416 24.5082 44.3416C24.5724 44.3416 24.6339 44.3671 24.6793 44.4125C24.7247 44.4578 24.7502 44.5194 24.7502 44.5835Z" fill="#263238"/>
<path d="M24.4994 44.8314C24.4504 44.8314 24.4025 44.8168 24.3617 44.7896C24.321 44.7624 24.2892 44.7236 24.2704 44.6784C24.2517 44.6331 24.2468 44.5832 24.2563 44.5352C24.2659 44.4871 24.2895 44.4429 24.3242 44.4083C24.3588 44.3736 24.403 44.35 24.4511 44.3405C24.4991 44.3309 24.549 44.3358 24.5943 44.3546C24.6395 44.3733 24.6782 44.4051 24.7055 44.4458C24.7327 44.4866 24.7472 44.5345 24.7472 44.5835C24.7472 44.6493 24.7211 44.7123 24.6747 44.7588C24.6282 44.8052 24.5651 44.8314 24.4994 44.8314ZM24.4994 44.3504C24.4533 44.3504 24.4083 44.3641 24.3699 44.3897C24.3316 44.4153 24.3017 44.4517 24.2841 44.4943C24.2664 44.5369 24.2618 44.5838 24.2708 44.629C24.2798 44.6742 24.302 44.7157 24.3346 44.7483C24.3672 44.7809 24.4087 44.8031 24.4539 44.8121C24.4992 44.8211 24.546 44.8165 24.5886 44.7989C24.6312 44.7812 24.6676 44.7513 24.6932 44.713C24.7188 44.6747 24.7325 44.6296 24.7325 44.5835C24.7325 44.5217 24.7079 44.4624 24.6642 44.4187C24.6205 44.375 24.5612 44.3504 24.4994 44.3504Z" fill="#263238"/>
<path d="M25.6795 44.8255C25.6795 44.8733 25.6653 44.9201 25.6388 44.9599C25.6122 44.9996 25.5744 45.0307 25.5302 45.049C25.486 45.0673 25.4373 45.0721 25.3904 45.0627C25.3435 45.0534 25.3004 45.0304 25.2665 44.9965C25.2327 44.9627 25.2097 44.9196 25.2003 44.8727C25.191 44.8257 25.1958 44.7771 25.2141 44.7329C25.2324 44.6887 25.2634 44.6509 25.3032 44.6243C25.343 44.5977 25.3898 44.5835 25.4376 44.5835C25.5018 44.5835 25.5633 44.609 25.6087 44.6544C25.654 44.6998 25.6795 44.7613 25.6795 44.8255Z" fill="#263238"/>
<path d="M25.4228 45.0733C25.3738 45.0733 25.3259 45.0587 25.2851 45.0315C25.2444 45.0043 25.2126 44.9656 25.1939 44.9203C25.1751 44.875 25.1702 44.8252 25.1797 44.7771C25.1893 44.729 25.2129 44.6849 25.2476 44.6502C25.2822 44.6155 25.3264 44.5919 25.3745 44.5824C25.4225 44.5728 25.4724 44.5777 25.5177 44.5965C25.5629 44.6152 25.6016 44.647 25.6289 44.6877C25.6561 44.7285 25.6706 44.7764 25.6706 44.8254C25.6699 44.8909 25.6435 44.9535 25.5972 44.9998C25.5509 45.0461 25.4883 45.0725 25.4228 45.0733ZM25.4228 44.5924C25.3767 44.5924 25.3317 44.606 25.2933 44.6316C25.255 44.6572 25.2251 44.6936 25.2075 44.7362C25.1898 44.7788 25.1852 44.8257 25.1942 44.8709C25.2032 44.9161 25.2254 44.9576 25.258 44.9902C25.2906 45.0228 25.3321 45.045 25.3773 45.054C25.4226 45.063 25.4694 45.0584 25.512 45.0408C25.5546 45.0231 25.591 44.9933 25.6166 44.9549C25.6422 44.9166 25.6559 44.8715 25.6559 44.8254C25.6559 44.7636 25.6313 44.7043 25.5876 44.6606C25.5439 44.6169 25.4846 44.5924 25.4228 44.5924Z" fill="#263238"/>
<path d="M26.2784 45.3241C26.412 45.3241 26.5204 45.2157 26.5204 45.0821C26.5204 44.9485 26.412 44.8402 26.2784 44.8402C26.1448 44.8402 26.0365 44.9485 26.0365 45.0821C26.0365 45.2157 26.1448 45.3241 26.2784 45.3241Z" fill="#263238"/>
<path d="M26.2696 45.3299C26.2206 45.3299 26.1727 45.3154 26.1319 45.2882C26.0912 45.2609 26.0594 45.2222 26.0407 45.177C26.0219 45.1317 26.017 45.0818 26.0266 45.0338C26.0361 44.9857 26.0597 44.9415 26.0944 44.9069C26.129 44.8722 26.1732 44.8486 26.2213 44.8391C26.2693 44.8295 26.3192 44.8344 26.3645 44.8532C26.4097 44.8719 26.4484 44.9037 26.4757 44.9444C26.5029 44.9852 26.5174 45.0331 26.5174 45.0821C26.5167 45.1476 26.4903 45.2102 26.444 45.2565C26.3977 45.3028 26.3351 45.3292 26.2696 45.3299ZM26.2696 44.849C26.2235 44.849 26.1785 44.8627 26.1401 44.8883C26.1018 44.9139 26.0719 44.9503 26.0543 44.9929C26.0366 45.0355 26.032 45.0824 26.041 45.1276C26.05 45.1728 26.0722 45.2143 26.1048 45.2469C26.1374 45.2795 26.1789 45.3017 26.2241 45.3107C26.2694 45.3197 26.3162 45.3151 26.3588 45.2975C26.4014 45.2798 26.4378 45.2499 26.4634 45.2116C26.489 45.1733 26.5027 45.1282 26.5027 45.0821C26.5027 45.0203 26.4781 44.961 26.4344 44.9173C26.3907 44.8736 26.3314 44.849 26.2696 44.849Z" fill="#263238"/>
<path d="M27.2167 46.457C27.1893 46.4614 27.1614 46.4614 27.1341 46.457L26.8951 46.4039L25.9746 46.1826L22.5935 45.3506C19.7405 44.6514 15.8077 43.66 11.4353 42.6481C10.8895 42.5183 10.3495 42.415 9.81554 42.2704C9.27946 42.1423 8.77988 41.893 8.35512 41.5417C7.98252 41.1673 7.68244 40.7272 7.47002 40.2436L6.82684 38.8982L4.60523 34.2278L3.13006 31.0768C2.96484 30.711 2.83502 30.4248 2.73766 30.2183L2.63735 29.9911C2.62503 29.9666 2.61515 29.9409 2.60785 29.9144C2.60785 29.9144 2.62555 29.938 2.6521 29.9852C2.67866 30.0324 2.71701 30.115 2.76422 30.2035L3.18612 31.0532C3.54901 31.8026 4.07122 32.8677 4.70849 34.1806C5.34577 35.4935 6.104 37.0837 6.9478 38.8333C7.15728 39.2699 7.3756 39.7184 7.59393 40.1757C7.80434 40.6414 8.0972 41.0652 8.45838 41.4266C8.86611 41.7623 9.34563 41.9995 9.8598 42.12C10.382 42.2616 10.9278 42.3649 11.4736 42.4947C15.8431 43.5096 19.7759 44.5157 22.623 45.2414C24.0362 45.6132 25.1839 45.9112 25.9923 46.1265L26.9039 46.3773L27.14 46.4452L27.2167 46.457Z" fill="#263238"/>
<path d="M13.4149 45.6516C13.4149 45.6516 13.35 45.7194 13.2113 45.8227C13.0727 45.9259 12.875 46.0676 12.6213 46.2387C11.962 46.6937 11.2484 47.0644 10.497 47.3421C9.73633 47.6173 8.91926 47.6994 8.11904 47.5811C7.87801 47.5401 7.64243 47.4718 7.41686 47.3775C7.33186 47.3503 7.25278 47.3072 7.18378 47.2506C7.49545 47.3444 7.81276 47.4183 8.13379 47.4719C8.91565 47.5579 9.70682 47.4641 10.4469 47.1975C11.1861 46.9207 11.8949 46.5688 12.5623 46.1472C12.8347 45.9625 13.1196 45.7969 13.4149 45.6516Z" fill="#263238"/>
<path d="M14.1732 47.3627C14.1918 47.3971 14.2057 47.4338 14.2145 47.4719C14.2478 47.5803 14.2745 47.6906 14.2942 47.8023C14.3653 48.2173 14.3653 48.6413 14.2942 49.0562C14.1793 49.6727 13.916 50.2519 13.5271 50.7438C13.0367 51.343 12.3744 51.7773 11.6295 51.9883C10.8846 52.1994 10.0929 52.1769 9.36118 51.924C8.77275 51.7054 8.24696 51.3458 7.82995 50.8766C7.55068 50.5617 7.32718 50.2015 7.16907 49.8115C7.12875 49.7053 7.09428 49.597 7.06581 49.487C7.04811 49.4132 7.03925 49.3719 7.04516 49.3719C7.24107 49.8989 7.53432 50.3843 7.90961 50.8028C8.32356 51.246 8.83742 51.5839 9.40838 51.7882C10.1112 52.0266 10.8695 52.0474 11.5844 51.8479C12.2992 51.6484 12.9372 51.2379 13.4149 50.6701C13.797 50.1992 14.061 49.6439 14.185 49.0503C14.2877 48.4921 14.2837 47.9195 14.1732 47.3627Z" fill="#263238"/>
<path d="M8.50554 6.43851L8.5439 17.4315C8.54646 17.8738 8.63878 18.3111 8.81526 18.7167C8.99174 19.1223 9.24871 19.4879 9.5706 19.7913C9.8925 20.0947 10.2726 20.3297 10.688 20.4819C11.1033 20.6341 11.5452 20.7004 11.9869 20.6769C12.8229 20.6316 13.6098 20.2679 14.186 19.6605C14.7621 19.0531 15.0838 18.2481 15.0848 17.4108C15.0848 16.5818 15.0848 15.8914 15.0848 15.8059C15.0848 15.8059 17.8817 15.5344 18.0735 12.7641C18.1679 11.4246 18.1325 8.65127 18.0735 6.14053C18.0444 4.84028 17.5262 3.59879 16.6223 2.66369C15.7183 1.72859 14.4951 1.16861 13.1966 1.09544H12.9281C10.0427 1.08364 8.41998 3.54423 8.50554 6.43851Z" fill="#B78876"/>
<path d="M15.0907 15.7616C13.8096 15.7122 12.5721 15.2829 11.5355 14.5284C11.5355 14.5284 12.2761 16.573 15.0553 16.4786L15.0907 15.7616Z" fill="#AA6550"/>
<path d="M17.389 7.7662C17.3837 7.86976 17.3382 7.96715 17.2621 8.03767C17.1861 8.1082 17.0856 8.14628 16.9819 8.14384C16.9313 8.14503 16.881 8.13604 16.834 8.11741C16.7869 8.09878 16.7441 8.07088 16.7081 8.03538C16.672 7.99988 16.6435 7.9575 16.6241 7.91075C16.6048 7.864 16.595 7.81384 16.5954 7.76325C16.6007 7.6602 16.6459 7.56325 16.7213 7.49281C16.7966 7.42237 16.8964 7.38393 16.9996 7.3856C17.0503 7.38442 17.1008 7.3934 17.148 7.41199C17.1952 7.43059 17.2382 7.45844 17.2745 7.4939C17.3108 7.52936 17.3396 7.57171 17.3593 7.61848C17.3789 7.66524 17.3891 7.71546 17.389 7.7662Z" fill="#263238"/>
<path d="M17.4658 7.29709C17.4156 7.34724 17.1265 7.10827 16.7017 7.08466C16.2768 7.06106 15.9493 7.25578 15.908 7.20268C15.8667 7.14957 15.9405 7.08761 16.0821 6.99615C16.2743 6.879 16.4976 6.82341 16.7223 6.83684C16.944 6.84844 17.1561 6.93121 17.3271 7.07286C17.454 7.17907 17.4924 7.27644 17.4658 7.29709Z" fill="#263238"/>
<path d="M13.2468 7.73373C13.2422 7.83703 13.1973 7.93442 13.1217 8.00502C13.0462 8.07561 12.9459 8.11379 12.8426 8.11137C12.792 8.11256 12.7417 8.10357 12.6946 8.08494C12.6476 8.06631 12.6048 8.03841 12.5687 8.00291C12.5327 7.96741 12.5041 7.92503 12.4848 7.87828C12.4654 7.83153 12.4557 7.78137 12.4561 7.73078C12.4607 7.62748 12.5056 7.53009 12.5811 7.45949C12.6567 7.3889 12.7569 7.35072 12.8603 7.35314C12.9108 7.35195 12.9612 7.36094 13.0082 7.37957C13.0552 7.3982 13.0981 7.42609 13.1341 7.46159C13.1702 7.4971 13.1987 7.53948 13.2181 7.58623C13.2374 7.63297 13.2472 7.68313 13.2468 7.73373Z" fill="#263238"/>
<path d="M13.2262 7.20268C13.1731 7.24988 12.8869 7.01091 12.4591 6.9873C12.0313 6.9637 11.7097 7.16137 11.6654 7.10532C11.6212 7.04926 11.7008 6.99025 11.8425 6.89879C12.0332 6.78109 12.2562 6.72638 12.4797 6.74242C12.7019 6.7538 12.9147 6.83541 13.0875 6.9755C13.2114 7.08466 13.2498 7.17908 13.2262 7.20268Z" fill="#263238"/>
<path d="M14.5744 10.5513C14.803 10.4938 15.0379 10.465 15.2736 10.4657C15.3828 10.4657 15.489 10.4451 15.5097 10.3713C15.525 10.2603 15.5065 10.1472 15.4566 10.0468C15.368 9.77534 15.2766 9.49506 15.1822 9.19708C14.8016 7.99334 14.5331 7.00497 14.5921 6.99022C14.6511 6.97547 14.9875 7.94023 15.368 9.14397C15.4566 9.439 15.5451 9.73404 15.6277 9.99662C15.6896 10.1317 15.7011 10.2845 15.6601 10.4274C15.6419 10.4646 15.6154 10.4973 15.5827 10.5228C15.55 10.5484 15.5119 10.5662 15.4713 10.5749C15.4096 10.583 15.3471 10.583 15.2854 10.5749C15.0484 10.5977 14.8094 10.5897 14.5744 10.5513Z" fill="#263238"/>
<path d="M13.3973 6.31758C13.3471 6.43264 12.9252 6.35298 12.4237 6.38544C11.9221 6.41789 11.5061 6.53 11.4471 6.42084C11.4205 6.37069 11.4973 6.26447 11.6654 6.16121C11.8899 6.03339 12.1419 5.96153 12.4001 5.95174C12.6578 5.93583 12.9157 5.98133 13.1524 6.0845C13.3324 6.16711 13.4179 6.26447 13.3973 6.31758Z" fill="#263238"/>
<path d="M17.4186 6.28216C17.3389 6.37362 17.0498 6.2556 16.6987 6.232C16.3476 6.2084 16.0437 6.25855 15.9788 6.15529C15.9522 6.10514 16.0053 6.01073 16.1411 5.92517C16.323 5.82613 16.5301 5.7831 16.7364 5.80147C16.9427 5.81985 17.139 5.89881 17.3005 6.02843C17.4186 6.13464 17.4658 6.23495 17.4186 6.28216Z" fill="#263238"/>
<path d="M8.61477 8.50378C8.56757 8.48018 6.7413 7.83111 6.6941 9.73113C6.64689 11.6312 8.56167 11.286 8.56757 11.2329C8.57347 11.1797 8.61477 8.50378 8.61477 8.50378Z" fill="#B78876"/>
<path d="M8.00399 10.4982C8.00399 10.4982 7.97153 10.5189 7.91548 10.5454C7.83612 10.5782 7.74701 10.5782 7.66765 10.5454C7.54702 10.4646 7.45009 10.3532 7.38683 10.2225C7.32357 10.0918 7.29626 9.94665 7.30771 9.80192C7.30663 9.63885 7.34191 9.47759 7.41097 9.32987C7.43091 9.27109 7.46461 9.21794 7.50926 9.17483C7.55391 9.13172 7.60821 9.0999 7.66765 9.08204C7.70597 9.0727 7.74638 9.07739 7.78155 9.09524C7.81672 9.1131 7.84435 9.14295 7.85943 9.1794C7.88303 9.23251 7.85942 9.27086 7.88008 9.27381C7.90073 9.27676 7.92138 9.24136 7.90958 9.16465C7.89871 9.11742 7.87284 9.07497 7.83582 9.04368C7.81079 9.02343 7.78201 9.00832 7.75112 8.99921C7.72024 8.9901 7.68787 8.98716 7.65585 8.99058C7.57633 9.00486 7.50189 9.03956 7.43982 9.09128C7.37775 9.143 7.3302 9.20997 7.30181 9.28561C7.21712 9.44762 7.17355 9.62797 7.17494 9.81077C7.16103 9.97974 7.19764 10.149 7.28011 10.2972C7.36258 10.4453 7.4872 10.5656 7.63815 10.6428C7.68745 10.6572 7.73924 10.6609 7.7901 10.6538C7.84096 10.6467 7.88973 10.6288 7.93318 10.6015C8.00104 10.5425 8.01284 10.5012 8.00399 10.4982Z" fill="#AA6550"/>
<path d="M7.56444 8.37986C7.74512 8.37839 7.92282 8.4259 8.07866 8.51732C8.2345 8.60875 8.36267 8.74069 8.44954 8.89912C8.55575 9.17645 8.56755 9.48919 8.67377 9.76357C8.71488 9.90677 8.80238 10.0323 8.92252 10.1204C9.04266 10.2085 9.18866 10.2542 9.33759 10.2504C9.43765 10.2249 9.52927 10.1736 9.6033 10.1017C9.67734 10.0297 9.73119 9.93957 9.75949 9.84028C9.81061 9.64093 9.82362 9.43373 9.79785 9.22956C9.73884 8.34445 9.60017 7.45935 9.61787 6.5536C9.60157 5.65339 9.85205 4.7685 10.3378 4.0104C10.5834 3.63503 10.9257 3.3328 11.3286 3.13551C11.7315 2.93822 12.1801 2.85315 12.6272 2.88927C13.2173 2.97188 13.7366 3.30822 14.3148 3.42328C14.6607 3.48911 15.017 3.47552 15.3569 3.38352C15.6968 3.29153 16.0113 3.12353 16.2768 2.89222C16.3062 2.86691 16.3378 2.8442 16.3712 2.82436C16.4678 2.7641 16.5414 2.67329 16.5804 2.56638C16.6194 2.45947 16.6216 2.34258 16.5866 2.23429C16.5671 2.16487 16.5329 2.10047 16.4863 2.04547C15.3858 0.906637 13.3088 0.487689 11.7657 0.785674C10.975 0.933547 10.2258 1.25157 9.57018 1.7177C8.91453 2.18384 8.36806 2.78695 7.96863 3.48524C7.2281 4.88665 7.30776 6.89584 7.59099 8.37101" fill="#263238"/>
<path d="M13.5831 10.8847C13.6539 10.8847 13.6539 11.342 14.0493 11.6695C14.4446 11.9969 14.9344 11.9468 14.9344 12.0117C14.9344 12.0766 14.8252 12.1032 14.6157 12.1061C14.3452 12.1118 14.0816 12.0208 13.8722 11.8494C13.6717 11.6849 13.5427 11.4491 13.5123 11.1915C13.4858 10.9968 13.5389 10.8817 13.5831 10.8847Z" fill="#263238"/>
<path d="M40.0801 26.4979C40.0801 26.4979 42.1601 24.6716 42.5525 24.5359C42.9449 24.4002 46.0782 24.3442 46.2877 24.5005C46.4971 24.6569 49.6688 26.3946 49.1436 26.6631C48.6184 26.9316 46.4204 25.6718 46.4204 25.6718L46.0516 25.722C46.0516 25.722 47.9694 26.7457 48.3087 27.1381C48.6479 27.5305 48.3234 27.9377 47.9664 27.7695C47.6094 27.6013 45.9631 26.6543 45.8333 26.6897C45.7035 26.7251 47.5858 27.8256 47.7599 28.0321C47.993 28.3035 47.8425 28.8346 47.4796 28.6812C47.2672 28.5926 45.5324 27.442 45.5324 27.442C46.0236 27.8438 46.4924 28.2723 46.9367 28.7254C47.0902 29.0205 46.7951 29.2889 46.4912 29.1031C46.2847 28.9762 45.3908 28.097 45.1134 27.9229C45.1134 27.9229 44.8184 27.8993 44.3552 28.3832C43.892 28.867 42.1188 29.525 42.1188 29.525L40.0801 26.4979Z" fill="#B78876"/>
<path d="M49.1347 26.669C48.91 26.7011 48.6811 26.6871 48.462 26.6277C48.2208 26.5792 47.9848 26.5081 47.7569 26.4153C47.512 26.2973 47.2435 26.1616 46.9603 26.017L46.3702 25.722H46.4115C45.8743 25.7501 45.3356 25.7353 44.8007 25.6777C45.3323 25.593 45.8703 25.5545 46.4086 25.5626H46.4263H46.447L47.037 25.8577L47.8071 26.2619C48.0239 26.3576 48.2478 26.4365 48.4768 26.4979C48.881 26.6159 49.1377 26.6425 49.1347 26.669Z" fill="#AA6550"/>
<path d="M40.8531 27.026C40.9386 27.1474 41.0602 27.2387 41.2006 27.2869C41.341 27.3351 41.493 27.3377 41.635 27.2945C41.93 27.2326 42.1867 27.0762 42.4699 26.9995C43.3226 26.7546 44.2697 27.209 45.1075 26.9228C45.2256 26.8815 45.3554 26.7959 45.3436 26.6749C45.3318 26.554 45.202 26.5038 45.0928 26.4684L42.2959 25.5833" fill="#B78876"/>
<path d="M42.2958 25.5715C42.4027 25.5778 42.508 25.5997 42.6086 25.6364C42.8062 25.6895 43.0895 25.7721 43.4406 25.8754L44.6679 26.2471L45.0219 26.3563C45.134 26.4006 45.2963 26.4094 45.4025 26.5835C45.4232 26.6279 45.43 26.6776 45.4221 26.726C45.4142 26.7744 45.392 26.8193 45.3583 26.8549C45.303 26.9146 45.2342 26.9601 45.1576 26.9877C45.0201 27.0354 44.8776 27.0671 44.7328 27.0821C44.2053 27.0903 43.6779 27.0617 43.1544 26.9965C42.9332 26.9847 42.7115 27.0055 42.4964 27.0585C42.2988 27.1116 42.1158 27.2001 41.9418 27.262C41.8035 27.3277 41.6523 27.3617 41.4992 27.3617C41.3461 27.3617 41.195 27.3277 41.0567 27.262C40.8678 27.1529 40.8383 27.0172 40.8442 27.0201C40.9135 27.0956 40.9954 27.1585 41.0862 27.206C41.2193 27.2545 41.3612 27.2743 41.5026 27.2641C41.6439 27.2539 41.7815 27.214 41.9064 27.147C42.0892 27.0618 42.2763 26.986 42.4669 26.9198C42.6952 26.8556 42.9322 26.8277 43.1691 26.8372C43.6855 26.8923 44.2047 26.917 44.7239 26.911C44.8534 26.8953 44.9809 26.8667 45.1045 26.8254C45.2196 26.7841 45.2993 26.7015 45.2639 26.6484C45.2285 26.5953 45.1045 26.5392 44.9688 26.5038L44.6148 26.3887L43.3992 25.9816C43.0541 25.8636 42.7738 25.7662 42.582 25.6866C42.4818 25.6616 42.3855 25.6229 42.2958 25.5715Z" fill="#AA6550"/>
<path d="M28.2699 41.7217L31.7189 41.3795C31.7189 41.3795 36.2801 44.5039 35.8494 45.1913C35.4186 45.8787 34.6692 45.1913 34.6692 45.1913C34.6692 45.1913 35.4806 46.1915 34.1677 46.5042C34.1677 46.5042 33.8549 47.1916 33.3563 47.1297H33.0436C33.0436 47.1297 32.7486 48 32.3385 47.8112C31.9284 47.6224 30.645 46.5013 30.645 46.5013L27.1046 46.1885L28.2699 41.7217Z" fill="#B78876"/>
<path d="M30.4149 45.2769C30.4149 45.2769 29.5298 45.6162 29.3498 45.9731C29.1698 46.3301 29.0548 47.1533 29.6271 47.3156C29.9627 47.3371 30.2997 47.3263 30.6332 47.2831L30.4149 46.3537C30.5794 46.1629 30.7547 45.9816 30.94 45.8109C31.1288 45.6545 30.9223 45.0438 30.4149 45.2769Z" fill="#FFBE9D"/>
<path d="M31.4091 45.7489C31.4091 45.7489 30.524 46.0882 30.344 46.4422C30.292 46.5465 30.264 46.6612 30.2621 46.7777C30.2603 46.8942 30.2846 47.0097 30.3333 47.1156C30.382 47.2215 30.4538 47.3151 30.5435 47.3895C30.6332 47.464 30.7385 47.5173 30.8515 47.5457C31.1555 47.5699 31.4613 47.56 31.7632 47.5162L31.6688 47.3362C31.4917 46.988 31.415 46.7048 31.7278 46.4717C31.7455 46.4717 31.9225 46.2947 31.9343 46.2829C31.9787 46.2094 31.9974 46.1233 31.9874 46.038C31.9774 45.9527 31.9393 45.8732 31.8791 45.8119C31.8189 45.7507 31.74 45.7113 31.6549 45.6999C31.5698 45.6885 31.4833 45.7057 31.4091 45.7489Z" fill="#FFBE9D"/>
<path d="M31.6215 47.4837C31.5469 47.403 31.4998 47.3006 31.4871 47.1914C31.4743 47.0821 31.4966 46.9717 31.5507 46.8759C31.667 46.6863 31.8537 46.5505 32.07 46.4983C32.1367 46.4702 32.2099 46.4614 32.2814 46.4728C32.3528 46.4843 32.4196 46.5156 32.4742 46.5632C32.5008 46.6015 32.5195 46.6447 32.5291 46.6903C32.5388 46.7359 32.5391 46.783 32.5302 46.8287C32.4703 47.0725 32.3459 47.2956 32.1703 47.4749C32.0877 47.5781 31.9873 47.6902 31.8546 47.6873C31.7218 47.6843 31.6245 47.5604 31.5595 47.4483" fill="#FFBE9D"/>
<path d="M12.9812 19.6738L13.7572 19.3817L14.4269 20.5825L14.0522 21.8659L13.2615 22.0606L12.4738 21.0663L12.9812 19.6738Z" fill="#FCD924"/>
<path d="M13.2615 22.0606C13.2615 22.0606 14.2676 27.5807 15.1025 31.4633C15.1025 31.4633 15.79 34.7087 16.0673 35.4404C16.3771 36.2754 17.333 37.5056 17.333 37.5056L18.3037 37.8833L17.7136 32.4281L14.0552 21.8659L13.2615 22.0606Z" fill="#FCD924"/>
<g opacity="0.4">
<path opacity="0.4" d="M12.9812 19.6738L13.7572 19.3817L14.4269 20.5825L14.0522 21.8659L13.2615 22.0606L12.4738 21.0663L12.9812 19.6738Z" fill="black"/>
</g>
<g opacity="0.4">
<path opacity="0.4" d="M13.2615 22.0606C13.2615 22.0606 14.2676 27.5807 15.1025 31.4633C15.1025 31.4633 15.8903 34.6674 16.0673 35.4404C16.1706 35.8977 17.333 37.5056 17.333 37.5056L18.3037 37.8833L17.7136 32.4281L14.0552 21.8659L13.2615 22.0606Z" fill="black"/>
</g>
<path d="M8.32558 16.3192L12.9812 19.6738L11.9752 22.4412L7.73846 18.0806L8.32558 16.3192Z" fill="#F5F5F5"/>
<path d="M13.7572 19.3817L15.0554 16.4785L15.7929 18.8742L14.7692 21.3879L13.7572 19.3817Z" fill="#F5F5F5"/>
<path d="M12.993 19.6738C12.9842 19.7465 12.9664 19.8179 12.9399 19.8862L12.7511 20.4763C12.5859 20.969 12.344 21.6564 12.0519 22.4766L12.0135 22.5887L11.9309 22.5002L10.8481 21.3024C10.0043 20.3671 9.2461 19.5145 8.70618 18.8919L8.06891 18.1485C7.98561 18.0584 7.9124 17.9594 7.85059 17.8534C7.94633 17.9269 8.03432 18.0099 8.11317 18.1013L8.78584 18.8093C9.34936 19.3994 10.1194 20.255 10.9602 21.1903C11.3408 21.6151 11.7037 22.0223 12.0401 22.394L11.9191 22.4176C12.2141 21.6092 12.4797 20.9218 12.6685 20.435L12.8957 19.8715C12.9185 19.8013 12.9513 19.7347 12.993 19.6738Z" fill="#263238"/>
<path d="M15.7929 18.886C15.7435 19.1191 15.6703 19.3465 15.5746 19.5646C15.4241 19.9747 15.2028 20.5412 14.9491 21.1608L14.84 21.4292L14.7632 21.6151L14.6983 21.4263C14.4417 20.7664 14.1308 20.129 13.769 19.5204C13.9242 19.6595 14.0557 19.8229 14.1584 20.0042C14.4406 20.4325 14.6704 20.8931 14.8429 21.3761H14.6983C14.7337 21.2876 14.7721 21.1991 14.8075 21.1077C15.0612 20.4851 15.2973 19.9275 15.4743 19.5263C15.5552 19.3012 15.6622 19.0863 15.7929 18.886Z" fill="#263238"/>
<path d="M74.9503 106.237L76.7441 113.359L79.7888 118.584C79.8408 118.673 79.8739 118.772 79.8861 118.874C79.8983 118.977 79.8893 119.08 79.8597 119.179C79.8301 119.278 79.7805 119.37 79.714 119.448C79.6475 119.527 79.5655 119.592 79.4731 119.637C79.367 119.693 79.2491 119.722 79.1294 119.722C79.0097 119.722 78.8918 119.693 78.7857 119.637C77.4167 118.9 72.4012 116.159 72.2949 115.631C72.1769 115.02 69.9022 108.255 69.9022 108.255L74.9503 106.237Z" fill="#FCD924"/>
<g opacity="0.6">
<path opacity="0.6" d="M79.4849 119.637L72.1799 115.144L72.2625 115.439C72.3334 115.699 72.4945 115.925 72.7168 116.076C73.3069 116.48 74.9827 117.551 78.7739 119.617C78.8834 119.675 79.0055 119.705 79.1294 119.705C79.2534 119.705 79.3754 119.675 79.4849 119.617V119.637Z" fill="white"/>
</g>
<g opacity="0.6">
<path opacity="0.6" d="M73.0001 112.459C73.1053 112.499 73.1922 112.576 73.2439 112.675C73.2957 112.775 73.3087 112.89 73.2804 112.999C73.2445 113.105 73.169 113.194 73.0695 113.246C72.9701 113.298 72.8543 113.31 72.7464 113.279C72.6347 113.238 72.5426 113.156 72.488 113.05C72.4334 112.944 72.4203 112.822 72.4513 112.707C72.4998 112.599 72.5888 112.514 72.6992 112.471C72.8096 112.428 72.9325 112.43 73.0414 112.477" fill="white"/>
</g>
<path d="M77.0155 116.991C77.1235 116.722 77.2817 116.477 77.4816 116.268C77.7138 116.095 77.9758 115.966 78.2546 115.887C78.2546 115.87 78.1514 115.84 77.9802 115.861C77.756 115.898 77.5468 115.998 77.3767 116.149C77.2066 116.3 77.0824 116.495 77.0184 116.714C76.9742 116.885 76.9919 116.991 77.0155 116.991Z" fill="#263238"/>
<path d="M77.7767 117.799C77.821 117.823 77.9833 117.528 78.3196 117.321C78.5367 117.216 78.7593 117.122 78.9864 117.041C78.8585 117.003 78.7235 116.997 78.5927 117.022C78.4618 117.047 78.3388 117.103 78.234 117.186C77.8535 117.428 77.7354 117.79 77.7767 117.799Z" fill="#263238"/>
<path d="M75.738 116.035C76.1855 115.429 76.801 114.967 77.5082 114.707C77.1176 114.738 76.7437 114.879 76.4303 115.114C76.1168 115.349 75.8767 115.669 75.738 116.035Z" fill="#263238"/>
<path d="M75.0093 113.917C75.0417 113.952 75.3869 113.681 75.8944 113.524C76.4018 113.368 76.8355 113.374 76.8385 113.327C76.5127 113.222 76.1603 113.237 75.8442 113.368C75.5105 113.448 75.2153 113.642 75.0093 113.917Z" fill="#263238"/>
<path d="M74.431 111.84C74.7108 111.653 75.0158 111.507 75.3368 111.406C75.6684 111.351 76.0059 111.342 76.3399 111.379C76.3399 111.362 76.2455 111.297 76.0449 111.247C75.7957 111.187 75.5359 111.187 75.2866 111.247C75.0374 111.305 74.8058 111.423 74.611 111.589C74.4753 111.719 74.4163 111.822 74.431 111.84Z" fill="#263238"/>
<path d="M75.2128 111.013C75.2127 110.919 75.1915 110.827 75.1508 110.742C75.0588 110.503 74.9205 110.284 74.7437 110.099C74.6253 109.953 74.4628 109.849 74.2805 109.804C74.219 109.794 74.1558 109.804 74.1002 109.832C74.0445 109.86 73.9992 109.905 73.9707 109.96C73.9189 110.069 73.9105 110.193 73.9471 110.308C74.0283 110.542 74.1886 110.74 74.4003 110.868C74.612 110.997 74.8618 111.047 75.1066 111.011C75.3477 110.969 75.5712 110.857 75.7486 110.688C75.9261 110.519 76.0497 110.302 76.1038 110.063C76.1164 110.003 76.1161 109.941 76.1029 109.881C76.0896 109.821 76.0638 109.765 76.0271 109.715C75.9849 109.67 75.9294 109.639 75.8684 109.626C75.8075 109.614 75.7443 109.622 75.6878 109.647C75.5236 109.734 75.3851 109.862 75.2866 110.019C75.1364 110.226 75.0245 110.458 74.9561 110.704C74.9232 110.791 74.9091 110.885 74.9148 110.978C75.0249 110.662 75.1809 110.364 75.378 110.093C75.4696 109.96 75.5921 109.852 75.735 109.777C75.766 109.763 75.8008 109.759 75.8343 109.766C75.8677 109.773 75.8981 109.79 75.9209 109.816C75.9421 109.85 75.9562 109.887 75.9622 109.927C75.9683 109.967 75.9663 110.007 75.9563 110.046C75.9028 110.252 75.7908 110.438 75.6337 110.582C75.4767 110.726 75.2813 110.822 75.0712 110.857C74.863 110.887 74.6511 110.844 74.4703 110.737C74.2895 110.63 74.1507 110.464 74.0769 110.267C74.0485 110.188 74.0485 110.101 74.0769 110.022C74.0922 109.991 74.1171 109.966 74.1479 109.95C74.1787 109.934 74.2138 109.928 74.248 109.934C74.4012 109.972 74.5391 110.057 74.6434 110.176C74.8818 110.419 75.0747 110.702 75.2128 111.013Z" fill="#263238"/>
<path d="M52.7135 107.565L53.0941 113.055C53.0941 113.055 47.6419 115.286 47.6124 116.3L58.2838 115.952L58.0448 107.373L52.7135 107.565Z" fill="#FCD924"/>
<path d="M56.3779 112.483C56.4821 112.511 56.5723 112.576 56.6312 112.666C56.69 112.757 56.7133 112.866 56.6965 112.972C56.6731 113.078 56.6101 113.17 56.5207 113.231C56.4312 113.291 56.3221 113.315 56.2156 113.297C56.1056 113.267 56.0106 113.197 55.949 113.102C55.8874 113.006 55.8636 112.89 55.8822 112.778C55.9187 112.671 55.9949 112.583 56.095 112.531C56.195 112.48 56.3112 112.469 56.4192 112.5" fill="#E0E0E0"/>
<path d="M58.2838 115.952L58.2277 115.088L48.0166 115.752C48.0166 115.752 47.5475 115.976 47.6124 116.309L58.2838 115.952Z" fill="#E0E0E0"/>
<path d="M52.9201 113.002C52.9201 113.052 53.1856 113.07 53.4452 113.226C53.7049 113.383 53.8524 113.601 53.8996 113.58C53.9468 113.56 53.8583 113.259 53.5396 113.07C53.221 112.881 52.9083 112.961 52.9201 113.002Z" fill="#263238"/>
<path d="M51.8166 113.507C51.8166 113.56 52.0349 113.639 52.2178 113.855C52.4008 114.07 52.4627 114.3 52.5129 114.297C52.563 114.294 52.5896 114.002 52.3536 113.734C52.1175 113.465 51.8166 113.459 51.8166 113.507Z" fill="#263238"/>
<path d="M51.2236 114.87C51.2737 114.87 51.3357 114.616 51.1941 114.336C51.0525 114.055 50.8017 113.949 50.781 113.993C50.7604 114.038 50.9167 114.185 51.0318 114.415C51.1469 114.645 51.1734 114.864 51.2236 114.87Z" fill="#263238"/>
<path d="M52.9732 111.748C52.9968 111.792 53.2328 111.713 53.5278 111.725C53.8229 111.736 54.0559 111.819 54.0795 111.775C54.1031 111.73 53.8789 111.55 53.5308 111.542C53.1826 111.533 52.9437 111.707 52.9732 111.748Z" fill="#263238"/>
<path d="M52.9171 110.642C53.0939 110.681 53.2779 110.674 53.4511 110.621C53.6421 110.58 53.8273 110.515 54.0028 110.429C54.1055 110.379 54.2041 110.321 54.2979 110.255C54.3582 110.222 54.4121 110.178 54.4572 110.125C54.49 110.087 54.5092 110.039 54.5119 109.989C54.5146 109.939 54.5005 109.889 54.4719 109.848C54.4442 109.813 54.4087 109.785 54.3683 109.765C54.328 109.746 54.2837 109.736 54.2389 109.736C54.1706 109.737 54.1029 109.749 54.0382 109.771C53.9253 109.802 53.8156 109.843 53.7108 109.895C53.5335 109.982 53.3711 110.097 53.2298 110.235C52.9879 110.474 52.9112 110.671 52.9348 110.68C52.9584 110.689 53.0735 110.53 53.3184 110.332C53.4615 110.214 53.6191 110.115 53.7875 110.037C53.8827 109.994 53.9814 109.96 54.0825 109.934C54.1946 109.901 54.289 109.895 54.3215 109.934C54.3539 109.972 54.3215 109.96 54.3215 109.993C54.2872 110.031 54.2474 110.064 54.2035 110.09C54.1144 110.152 54.0218 110.209 53.9261 110.261C53.7633 110.347 53.5936 110.419 53.4187 110.477C53.2472 110.518 53.0795 110.573 52.9171 110.642Z" fill="#263238"/>
<path d="M52.9849 110.71C53.0056 110.71 53.103 110.527 53.1089 110.19C53.112 109.99 53.0811 109.79 53.0174 109.6C52.9799 109.489 52.9304 109.382 52.8699 109.282C52.8388 109.212 52.7905 109.152 52.7296 109.106C52.6687 109.061 52.5971 109.032 52.5218 109.022C52.4743 109.025 52.4285 109.041 52.3899 109.068C52.3512 109.096 52.3212 109.134 52.3034 109.178C52.2771 109.241 52.2602 109.308 52.2533 109.376C52.2353 109.495 52.2353 109.617 52.2533 109.736C52.2897 109.936 52.3749 110.123 52.5011 110.282C52.7194 110.55 52.9377 110.606 52.9407 110.577C52.9436 110.547 52.7725 110.456 52.6044 110.193C52.5067 110.044 52.4433 109.874 52.4185 109.698C52.4037 109.595 52.4037 109.491 52.4185 109.388C52.4185 109.276 52.4716 109.181 52.5129 109.193C52.5542 109.205 52.6604 109.273 52.7076 109.361C52.7624 109.456 52.8097 109.554 52.8492 109.656C52.9151 109.827 52.9558 110.005 52.9702 110.187C53.0056 110.506 52.9584 110.704 52.9849 110.71Z" fill="#263238"/>
<path d="M49.8016 47.8407L51.5187 111.733L59.939 111.48L59.2899 56.6445L70.0173 113.005L77.6204 111.019L67.8046 47.9646L49.8016 47.8407Z" fill="#263238"/>
<path d="M54.4159 111.822C54.3716 111.822 54.3392 98.5778 54.3392 82.2417C54.3392 65.9057 54.3716 52.6616 54.4159 52.6616C54.4601 52.6616 54.4926 65.9027 54.4926 82.2417C54.4926 98.5807 54.4572 111.822 54.4159 111.822Z" fill="#455A64"/>
<path d="M72.4189 112.984C72.3776 112.984 70.4127 100.298 68.0288 84.6285C65.6449 68.9593 63.739 56.2492 63.7892 56.2433C63.8393 56.2374 65.7954 68.9298 68.1793 84.6049C70.5632 100.28 72.4632 112.978 72.4189 112.984Z" fill="#455A64"/>
<path d="M61.8655 7.88714C62.1589 7.23059 62.3967 6.55062 62.5765 5.85435C62.6768 5.32329 62.8361 4.52965 62.6237 4.03399C62.4113 3.53833 61.895 3.06037 61.2459 3.19609C61.1786 2.67472 60.9793 2.17916 60.667 1.75632C60.3546 1.33348 59.9395 0.997356 59.4609 0.779758C58.5374 0.332955 57.5349 0.0723055 56.5106 0.0126685C56.1361 -0.025233 55.7578 0.022175 55.4042 0.151335C55.104 0.303648 54.8676 0.55776 54.7374 0.868269C54.4279 0.645702 54.0706 0.498579 53.6941 0.438644C53.3176 0.37871 52.9323 0.407625 52.5689 0.523079C51.7547 0.741405 50.8282 1.18101 50.4712 1.94219C50.2156 2.51185 50.1934 3.15899 50.4093 3.74485C50.5657 4.24051 51.0908 5.0194 51.5894 4.83648" fill="#263238"/>
<path d="M57.7615 21.6682C57.2732 21.6582 56.7919 21.5501 56.3462 21.3504C55.9004 21.1507 55.4994 20.8634 55.1669 20.5056C54.8345 20.1478 54.5773 19.7268 54.4108 19.2676C54.2442 18.8085 54.1717 18.3205 54.1975 17.8328C54.2477 16.8149 54.2949 15.9917 54.2949 15.9917C54.2949 15.9917 51.5157 15.6318 51.4124 12.8644C51.3091 10.097 51.6307 3.73601 51.6307 3.73601C53.1879 3.02293 54.9072 2.73858 56.6111 2.91233C58.3149 3.08609 59.9414 3.71165 61.3226 4.72438L61.7386 5.01941L61.4819 18.0924C61.4727 18.5715 61.3692 19.0442 61.1772 19.4833C60.9852 19.9224 60.7085 20.3194 60.3629 20.6515C60.0174 20.9836 59.6098 21.2443 59.1634 21.4188C58.7171 21.5932 58.2407 21.678 57.7615 21.6682Z" fill="#FFBE9D"/>
<path d="M54.2978 15.9622C55.5759 15.9536 56.8225 15.5654 57.8795 14.847C57.8795 14.847 57.0269 16.9919 54.2595 16.8119L54.2978 15.9622Z" fill="#EB996E"/>
<path d="M61.4701 7.896C61.5174 7.87535 63.3584 7.28528 63.3436 9.1794C63.3289 11.0735 61.4347 10.6693 61.4318 10.6133C61.4288 10.5572 61.4701 7.896 61.4701 7.896Z" fill="#FFBE9D"/>
<path d="M62.013 9.89927C62.013 9.89927 62.0484 9.92287 62.1015 9.94942C62.1407 9.96597 62.1829 9.9745 62.2254 9.9745C62.268 9.9745 62.3101 9.96597 62.3493 9.94942C62.4725 9.87323 62.573 9.76547 62.6404 9.63733C62.7079 9.50919 62.7398 9.36533 62.7329 9.22069C62.7389 9.05841 62.7076 8.89692 62.6414 8.74863C62.6246 8.68949 62.5934 8.63541 62.5507 8.59116C62.508 8.54691 62.4551 8.51385 62.3966 8.4949C62.3589 8.48417 62.3186 8.48718 62.2829 8.50339C62.2473 8.51961 62.2185 8.54797 62.2018 8.58341C62.1753 8.63652 62.1871 8.67192 62.1782 8.67487C62.1694 8.67782 62.1369 8.64537 62.1517 8.56571C62.1633 8.51889 62.1903 8.47733 62.2284 8.4477C62.2814 8.40981 62.3466 8.39299 62.4113 8.40049C62.4885 8.41713 62.5602 8.45286 62.62 8.5044C62.6798 8.55594 62.7257 8.62165 62.7535 8.69552C62.8338 8.85958 62.8713 9.04122 62.8627 9.22364C62.8706 9.39218 62.8286 9.55931 62.742 9.70413C62.6554 9.84896 62.5281 9.96506 62.3759 10.0379C62.3258 10.0506 62.2735 10.0524 62.2226 10.0433C62.1718 10.0341 62.1234 10.0142 62.0809 9.98483C62.016 9.94647 62.0071 9.90517 62.013 9.89927Z" fill="#EB996E"/>
<path d="M52.3477 8.06417C52.35 8.16725 52.3922 8.26543 52.4653 8.33806C52.5385 8.41069 52.637 8.45212 52.7401 8.45362C52.7904 8.4564 52.8408 8.44907 52.8883 8.43208C52.9357 8.41509 52.9793 8.38877 53.0164 8.35467C53.0535 8.32058 53.0834 8.2794 53.1044 8.23356C53.1253 8.18772 53.1369 8.13816 53.1384 8.08778C53.1369 7.98446 53.0949 7.88585 53.0216 7.81306C52.9483 7.74027 52.8493 7.69909 52.746 7.69833C52.6958 7.69596 52.6456 7.70356 52.5983 7.7207C52.551 7.73784 52.5076 7.76419 52.4706 7.7982C52.4335 7.83222 52.4036 7.87324 52.3825 7.91889C52.3614 7.96454 52.3496 8.01392 52.3477 8.06417Z" fill="#263238"/>
<path d="M52.2503 7.6216C52.3005 7.67175 52.5955 7.44458 53.0204 7.43573C53.4452 7.42687 53.7639 7.63045 53.8081 7.57734C53.8524 7.52424 53.7786 7.46228 53.64 7.36492C53.4526 7.2426 53.2322 7.18081 53.0086 7.1879C52.7873 7.19276 52.5733 7.26822 52.3979 7.40327C52.268 7.50653 52.2326 7.60094 52.2503 7.6216Z" fill="#263238"/>
<path d="M56.5135 8.0612C56.5166 8.16376 56.5591 8.2612 56.6322 8.33321C56.7053 8.40521 56.8033 8.44622 56.9059 8.4477C56.9564 8.45089 57.0069 8.44386 57.0545 8.42702C57.1022 8.41018 57.1459 8.38388 57.1831 8.3497C57.2203 8.31553 57.2502 8.27418 57.271 8.22815C57.2919 8.18212 57.3031 8.13236 57.3042 8.08185C57.3027 7.97904 57.2612 7.88087 57.1885 7.80816C57.1158 7.73545 57.0176 7.69393 56.9148 7.69241C56.8642 7.69003 56.8136 7.69771 56.766 7.715C56.7183 7.73229 56.6746 7.75885 56.6373 7.79315C56.6 7.82744 56.5698 7.86878 56.5486 7.91479C56.5273 7.9608 56.5154 8.01056 56.5135 8.0612Z" fill="#263238"/>
<path d="M56.431 7.598C56.4841 7.64816 56.7762 7.41803 57.201 7.40918C57.6259 7.40033 57.9445 7.6039 57.9888 7.5508C58.033 7.49769 57.9593 7.43573 57.8206 7.34132C57.634 7.21708 57.4133 7.15416 57.1892 7.16135C56.9679 7.16621 56.7539 7.24168 56.5785 7.37673C56.4487 7.47999 56.4074 7.5744 56.431 7.598Z" fill="#263238"/>
<path d="M54.9675 10.7873C54.7417 10.7237 54.5088 10.688 54.2742 10.6811C54.1651 10.6811 54.0618 10.6546 54.0411 10.5808C54.0314 10.4687 54.0539 10.3561 54.1061 10.2563C54.2034 9.99075 54.3037 9.71341 54.4011 9.42133C54.8171 8.24119 55.1151 7.25873 55.0679 7.24103C55.0207 7.22332 54.643 8.17629 54.227 9.36232L53.932 10.2032C53.8664 10.3358 53.8497 10.4873 53.8848 10.631C53.9029 10.6679 53.9285 10.7006 53.96 10.727C53.9915 10.7534 54.0282 10.773 54.0677 10.7844C54.1285 10.7991 54.191 10.806 54.2536 10.805C54.4913 10.8317 54.7315 10.8258 54.9675 10.7873Z" fill="#263238"/>
<path d="M56.2274 11.0529C56.1566 11.0529 56.1684 11.5102 55.7819 11.8495C55.3954 12.1887 54.8968 12.1445 54.8968 12.2123C54.8968 12.2802 55.0089 12.2979 55.2184 12.2979C55.4884 12.2955 55.7488 12.1972 55.953 12.0206C56.1503 11.8516 56.2741 11.6124 56.2982 11.3538C56.313 11.162 56.2599 11.047 56.2274 11.0529Z" fill="#263238"/>
<path d="M56.2805 5.93402C56.3248 6.04908 56.7496 5.98418 57.2482 6.03138C57.7468 6.07859 58.1569 6.2025 58.2189 6.09924C58.2484 6.04908 58.1746 5.93992 58.0094 5.83371C57.7906 5.69931 57.5427 5.61938 57.2866 5.60063C57.03 5.57598 56.7712 5.61237 56.5313 5.70684C56.3631 5.7865 56.2628 5.87796 56.2805 5.93402Z" fill="#263238"/>
<path d="M52.3772 6.38834C52.4539 6.48275 52.7431 6.38834 53.0971 6.36178C53.4511 6.33523 53.7491 6.40899 53.814 6.30868C53.8435 6.25852 53.7934 6.16116 53.6606 6.07265C53.4828 5.96817 53.2779 5.91885 53.072 5.93093C52.8661 5.94301 52.6685 6.01595 52.5041 6.14051C52.3802 6.24082 52.3418 6.34113 52.3772 6.38834Z" fill="#263238"/>
<path d="M61.8861 5.23774C61.8684 6.04613 62.072 6.94008 61.9481 7.73373C61.9304 7.85469 61.6294 8.18218 61.6029 8.30019C61.4583 9.00533 61.1751 9.31216 60.7414 8.59523C60.5732 8.32085 60.4463 7.55081 60.3814 7.23807L59.815 4.69782C59.1738 5.05114 58.4552 5.24066 57.7232 5.24954C57.3578 5.2487 56.9987 5.15481 56.6797 4.97673C56.3607 4.79864 56.0923 4.54223 55.8999 4.23167C55.734 4.52367 55.5045 4.77452 55.2283 4.96555C54.9522 5.15658 54.6365 5.28288 54.3048 5.33505C53.973 5.38722 53.6338 5.36391 53.3123 5.26687C52.9909 5.16983 52.6954 5.00154 52.448 4.77453C52.3182 4.96843 52.1202 5.10642 51.8934 5.16108C51.6665 5.21573 51.4274 5.18307 51.2236 5.06957C51.0258 4.94465 50.8728 4.76029 50.7864 4.54296C50.7 4.32562 50.6847 4.0865 50.7427 3.85993C50.9167 3.18135 51.6278 2.7978 52.2975 2.58243C54.9086 1.74158 57.8353 2.28739 60.2339 3.60325C60.5914 3.78535 60.9196 4.02006 61.2075 4.29953C61.4849 4.59456 61.8684 4.925 61.8891 5.32625" fill="#263238"/>
<path d="M59.9036 5.01938C60.0489 5.01885 60.1933 5.04176 60.3314 5.08724C60.476 5.14979 60.6096 5.23549 60.7267 5.34097C60.8624 5.45898 60.9952 5.6124 61.1575 5.76287C61.3084 5.91516 61.4921 6.03118 61.6944 6.10216C61.8661 6.15087 62.0479 6.15087 62.2196 6.10216C62.5146 6.01955 62.6267 5.86023 62.6149 5.84843C62.479 5.90599 62.339 5.95332 62.196 5.99005C62.0437 6.01595 61.8874 6.00276 61.7416 5.95169C61.5627 5.88273 61.4007 5.77607 61.2666 5.63895C61.1132 5.49439 60.9716 5.34392 60.8241 5.22001C60.6898 5.1092 60.5356 5.02508 60.3697 4.97218C60.0658 4.88957 59.8829 5.01938 59.9036 5.01938Z" fill="#455A64"/>
<path d="M60.2192 5.84553C60.2192 5.86913 60.3608 5.84553 60.5142 5.9783C60.6046 6.06072 60.6857 6.15272 60.7562 6.25268C60.8526 6.38679 60.975 6.50016 61.1161 6.58607C61.3731 6.7458 61.6779 6.81052 61.9776 6.76899C62.2048 6.73358 62.3228 6.65097 62.314 6.63327C62.3051 6.61557 62.1753 6.65097 61.9658 6.65392C61.6964 6.66096 61.4308 6.58918 61.2017 6.4474C60.9302 6.29693 60.7945 6.0078 60.5792 5.88388C60.3638 5.75997 60.1986 5.82488 60.2192 5.84553Z" fill="#455A64"/>
<path d="M52.923 0.464061C52.923 0.464061 52.8316 0.440459 52.6781 0.487664C52.4621 0.559917 52.2756 0.700825 52.1471 0.888911C51.8078 1.36392 51.7281 2.20477 51.9907 3.02201C52.2227 3.72565 52.7059 4.31912 53.3479 4.68895C53.538 4.79947 53.7411 4.88571 53.9527 4.94563C54.0289 4.97472 54.1101 4.98874 54.1917 4.98694C53.9253 4.86784 53.6653 4.73489 53.4128 4.58864C52.8187 4.21003 52.3737 3.63786 52.153 2.9689C51.9022 2.19887 51.9612 1.39342 52.2474 0.950868C52.3586 0.774534 52.5184 0.634152 52.7076 0.54667C52.8375 0.484713 52.923 0.478813 52.923 0.464061Z" fill="#455A64"/>
<path d="M50.6306 1.61173C50.599 1.7893 50.6071 1.97165 50.6542 2.14575C50.8237 3.00592 51.3277 3.76361 52.0556 4.25229C52.1981 4.36353 52.3633 4.4421 52.5395 4.48242C52.0552 4.1426 51.6297 3.72605 51.2797 3.24918C50.7279 2.43488 50.6837 1.60288 50.6306 1.61173Z" fill="#455A64"/>
<path d="M35.3744 40.1698L31.3265 40.3734C31.0781 40.3863 30.8444 40.495 30.6745 40.6765C30.5045 40.858 30.4114 41.0983 30.4148 41.347C30.4355 42.2734 30.5918 43.5391 31.2999 43.4122L31.7602 41.3971L35.1206 44.3475C35.4605 44.6537 35.8797 44.8582 36.3303 44.9376L37.121 44.8549L35.3744 40.1698Z" fill="#FFBE9D"/>
<path d="M54.7315 18.4877L52.6161 19.187L51.5658 36.7563V52.3429L64.5562 53.7797L64.7066 31.304L63.8687 20.1193L61.8832 17.7472L54.7315 18.4877Z" fill="#E0E0E0"/>
<path d="M54.0795 19.3286V17.6262L61.8006 16.5523L61.4908 20.4733L59.7176 23.5476L56.8174 23.7098L54.7227 22.4176L54.0795 19.3286Z" fill="#E0E0E0"/>
<path d="M54.7728 19.1309C54.707 18.8767 54.692 18.612 54.7286 18.352C54.7155 18.0898 54.7526 17.8274 54.8378 17.579C54.9036 17.8332 54.9186 18.0979 54.882 18.3579C54.8951 18.6202 54.858 18.8825 54.7728 19.1309Z" fill="#263238"/>
<path d="M56.7024 18.9893C56.6443 18.7028 56.6353 18.4084 56.6758 18.1189C56.6681 17.8263 56.712 17.5347 56.8056 17.2574C56.8653 17.5488 56.8732 17.8484 56.8292 18.1425C56.8374 18.4301 56.7944 18.7167 56.7024 18.9893Z" fill="#263238"/>
<path d="M58.57 18.7945C58.5194 18.4898 58.5194 18.1788 58.57 17.874C58.5673 17.5652 58.6161 17.2581 58.7146 16.9653C58.7634 17.2702 58.7634 17.5809 58.7146 17.8858C58.7156 18.1945 58.6668 18.5014 58.57 18.7945Z" fill="#263238"/>
<path d="M60.3637 18.4995C60.2463 17.9246 60.2737 17.3294 60.4434 16.7677C60.4825 17.0555 60.4825 17.3473 60.4434 17.6351C60.455 17.9255 60.4283 18.2161 60.3637 18.4995Z" fill="#263238"/>
<path d="M59.5052 25.9255C59.4848 26.0282 59.4501 26.1276 59.402 26.2206C59.3282 26.4035 59.2132 26.6631 59.0627 26.9818C58.7677 27.6161 58.3163 28.4805 57.7675 29.401C57.2187 30.3215 56.6729 31.1299 56.2569 31.6964C56.0504 31.9914 55.8793 32.2068 55.7554 32.3602C55.6963 32.4443 55.6269 32.5207 55.5488 32.5874C55.7379 32.2587 55.9447 31.9406 56.1684 31.6345C56.5608 31.0444 57.0889 30.2419 57.6436 29.3243C58.1982 28.4068 58.6496 27.5541 58.9742 26.9316C59.1336 26.5872 59.3109 26.2514 59.5052 25.9255Z" fill="#263238"/>
<path d="M61.8449 17.4728L63.9396 18.4818L67.9875 19.4761C68.8427 19.6248 69.6077 20.0976 70.1232 20.796C70.6387 21.4945 70.8649 22.3649 70.7549 23.226L68.6336 39.7479L71.165 55.7683L61.1338 55.4732L60.5438 49.5135V32.9916L61.8449 17.4728Z" fill="#455A64"/>
<path d="M60.5438 36.7976C60.5485 36.7281 60.5584 36.6591 60.5733 36.591C60.6028 36.4435 60.6411 36.2517 60.6883 36.001L61.1338 33.8708L62.6651 26.8578C62.8332 26.1055 62.9955 25.3827 63.1519 24.6687L63.1725 24.7395L62.4762 24.0108L62.4379 23.9695L62.4674 23.9223L63.6328 21.9839V22.0399L62.3464 18.9244C62.2019 18.5615 62.0838 18.2694 61.9983 18.0393C61.9525 17.9382 61.915 17.8337 61.8862 17.7265C61.9453 17.8195 61.9948 17.9184 62.0337 18.0216L62.4172 18.8801L63.739 21.9986L63.7537 22.0281L63.736 22.0576C63.379 22.6477 62.9925 23.3115 62.5824 24.0078V23.9193L63.2787 24.6421L63.3082 24.6716V24.71C63.1519 25.4151 62.9896 26.1468 62.8244 26.8992C62.2107 29.6282 61.6442 32.0977 61.2489 33.9033C61.0453 34.7884 60.8772 35.5053 60.7562 36.0246L60.6146 36.5969C60.598 36.6661 60.5742 36.7333 60.5438 36.7976Z" fill="#263238"/>
<path d="M35.5455 39.503L44.4201 34.5553L48.7188 22.9575C49.0165 22.1564 49.4758 21.425 50.0681 20.8088C50.6604 20.1927 51.373 19.7049 52.1618 19.3758L53.3036 18.9008V49.4339L53.5308 56.6681L48.7217 55.2284L51.1764 40.6891L50.3267 33.5345L49.4858 36.9953C49.3379 37.6093 49.0675 38.1871 48.6908 38.6941C48.3141 39.201 47.8389 39.6267 47.2937 39.9456L38.071 44.7369L35.5455 39.503Z" fill="#455A64"/>
<path d="M35.6517 39.7272L34.9053 39.9515L37.0059 44.9611L37.9854 44.5805L35.6517 39.7272Z" fill="#E0E0E0"/>
<path d="M46.0369 36.6147C45.8542 36.2185 45.6317 35.8419 45.3731 35.4906C45.0748 35.1726 44.7457 34.885 44.3906 34.632C44.8201 34.7803 45.2007 35.0436 45.491 35.3932C45.7812 35.7427 45.9701 36.1652 46.0369 36.6147Z" fill="#263238"/>
<path d="M36.6105 39.5679C36.6105 39.5886 36.5663 39.6269 36.5604 39.7125C36.5545 39.798 36.6105 39.8984 36.7286 39.863C36.7509 39.8578 36.7713 39.8467 36.7879 39.8308C36.8044 39.815 36.8163 39.795 36.8223 39.7729C36.8284 39.7508 36.8283 39.7275 36.8222 39.7054C36.8161 39.6834 36.8041 39.6634 36.7876 39.6476C36.7374 39.5768 36.6725 39.5738 36.6695 39.5502C36.6666 39.5266 36.7522 39.4853 36.8643 39.5679C36.8966 39.5936 36.9224 39.6264 36.9399 39.6638C36.9573 39.7011 36.9657 39.7421 36.9646 39.7833C36.9597 39.8362 36.9387 39.8864 36.9044 39.927C36.8701 39.9677 36.8242 39.9968 36.7728 40.0105C36.7281 40.0261 36.6799 40.0287 36.6337 40.018C36.5876 40.0074 36.5454 39.9839 36.512 39.9502C36.4787 39.9166 36.4556 39.8742 36.4453 39.8279C36.4351 39.7817 36.4382 39.7335 36.4542 39.6889C36.5043 39.5561 36.5958 39.5384 36.6105 39.5679Z" fill="#263238"/>
<path d="M37.3246 39.267C37.3246 39.2876 37.2803 39.326 37.2773 39.4116C37.2744 39.4971 37.3275 39.5974 37.4455 39.562C37.4678 39.5563 37.4882 39.5448 37.5046 39.5287C37.521 39.5125 37.5328 39.4923 37.5388 39.4701C37.5448 39.4479 37.5448 39.4245 37.5388 39.4023C37.5327 39.3801 37.5209 39.3598 37.5045 39.3437C37.4544 39.2758 37.3895 39.2699 37.3836 39.2493C37.3777 39.2286 37.4662 39.1814 37.5812 39.267C37.6135 39.292 37.6394 39.3243 37.6568 39.3612C37.6742 39.3981 37.6827 39.4386 37.6815 39.4794C37.6758 39.5327 37.6544 39.5832 37.62 39.6243C37.5856 39.6655 37.5398 39.6956 37.4884 39.7107C37.4369 39.7259 37.3821 39.7254 37.3309 39.7095C37.2797 39.6935 37.2344 39.6627 37.2006 39.621C37.1779 39.5866 37.1634 39.5474 37.1583 39.5065C37.1532 39.4655 37.1576 39.424 37.1711 39.385C37.2213 39.2434 37.3246 39.2434 37.3246 39.267Z" fill="#263238"/>
<path d="M53.3036 37.2667C53.2836 37.2064 53.2707 37.1441 53.2653 37.0808C53.2446 36.9392 53.2151 36.7592 53.1827 36.535C53.1148 36.0423 53.0233 35.3549 52.9112 34.5317C52.6929 32.8205 52.3979 30.4868 52.0704 27.9111C52.0261 27.5453 51.9819 27.1853 51.9376 26.8284V26.8107V26.793C52.1618 26.2235 52.3802 25.6718 52.5867 25.1437V25.1998C52.3625 24.6894 52.1471 24.1996 51.9465 23.7246V23.7039V23.6803C52.3418 22.2612 52.6723 21.0663 52.9083 20.2048C53.0263 19.7977 53.1207 19.4731 53.1886 19.2312C53.2177 19.1142 53.2562 18.9998 53.3036 18.889C53.2881 19.0077 53.2634 19.1251 53.2299 19.2401C53.1709 19.4849 53.0883 19.8154 52.985 20.2255C52.7608 21.0899 52.448 22.2907 52.0792 23.7157V23.6715L52.7313 25.129V25.1555V25.185L52.0851 26.852V26.8136C52.1294 27.1676 52.1736 27.5305 52.2209 27.8964C52.5159 30.475 52.8109 32.8087 53.0145 34.5199C53.1089 35.3549 53.1856 36.0364 53.2387 36.532L53.2918 37.0779C53.3034 37.1401 53.3073 37.2035 53.3036 37.2667Z" fill="#263238"/>
<path d="M51.1675 40.7746C51.1531 40.7275 51.1432 40.6791 51.138 40.6301C51.1233 40.5179 51.1026 40.3793 51.079 40.2141C51.0318 39.8276 50.9699 39.3083 50.8902 38.6769C50.7338 37.3788 50.5126 35.5879 50.247 33.6112C49.9815 31.6345 49.7219 29.8465 49.533 28.5543C49.4416 27.9259 49.3649 27.4066 49.3088 27.0231C49.2882 26.8549 49.2705 26.728 49.2557 26.6041C49.2479 26.5553 49.2479 26.5055 49.2557 26.4566C49.2733 26.5024 49.2861 26.5498 49.2941 26.5982C49.3177 26.7103 49.3442 26.846 49.3767 27.0113C49.4445 27.3712 49.5389 27.8964 49.6481 28.5366C49.8664 29.8259 50.1438 31.6109 50.4093 33.5905C50.6748 35.5702 50.8784 37.364 50.9994 38.6651C51.0643 39.3142 51.1115 39.8453 51.141 40.2052C51.141 40.3734 51.1616 40.5002 51.1675 40.6271C51.1753 40.676 51.1753 40.7258 51.1675 40.7746Z" fill="#263238"/>
<path d="M49.9432 51.6348C49.9999 51.726 50.0684 51.8093 50.1468 51.8827C50.2591 51.9731 50.3906 52.0366 50.5312 52.0683C50.6719 52.1 50.8179 52.0991 50.9581 52.0656C51.1631 52.0011 51.3501 51.8892 51.5039 51.7391C51.6577 51.5889 51.7739 51.4046 51.8432 51.2011C52.0053 50.6875 52.0889 50.1524 52.091 49.6138C52.1549 49.0802 52.0995 48.5391 51.9288 48.0295C51.7404 47.6347 51.465 47.2878 51.1233 47.0146C50.8925 46.817 50.6864 46.5921 50.5097 46.3449C50.4407 46.2581 50.3914 46.1575 50.3651 46.0498C50.3651 46.0498 50.4271 46.1501 50.5569 46.3154C50.7497 46.544 50.9641 46.7534 51.1971 46.9408C51.5635 47.214 51.859 47.5712 52.0586 47.9823C52.2476 48.5092 52.3113 49.0728 52.2445 49.6286C52.2419 50.1832 52.1513 50.7339 51.976 51.2601C51.8959 51.4798 51.7648 51.6772 51.5935 51.8362C51.4222 51.9952 51.2155 52.1113 50.9906 52.1747C50.8345 52.2111 50.6719 52.208 50.5174 52.1657C50.3629 52.1235 50.2213 52.0435 50.1055 51.9328C50.0455 51.8731 49.9965 51.8031 49.9609 51.7263C49.9432 51.6584 49.9373 51.6348 49.9432 51.6348Z" fill="#263238"/>
<path d="M46.6447 40.1698C46.6447 40.1698 46.9397 36.7858 49.6186 36.473C49.6186 36.473 49.6688 39.2434 46.6447 40.1698Z" fill="#263238"/>
<path d="M61.007 52.8415L68.8106 57.9456L69.6957 57.2405L70.1117 45.802L62.6798 40.1698L61.659 40.5209L61.007 52.8415Z" fill="#FCD924"/>
<path d="M62.5942 40.3321L62.8981 52.7117H61.2577L61.8065 40.577L62.5942 40.3321Z" fill="#E0E0E0"/>
<path d="M65.0489 55.5559C65.1217 55.7306 65.2446 55.8799 65.4021 55.9849C65.5596 56.0899 65.7447 56.1459 65.934 56.1459C65.9483 56.1499 65.9615 56.157 65.9727 56.1667C65.984 56.1764 65.9929 56.1884 65.9989 56.202C66.0721 56.3361 66.1788 56.449 66.3086 56.5296C66.4383 56.6103 66.5868 56.656 66.7394 56.6622C67.0359 56.6617 67.3262 56.5779 67.5773 56.4203C67.9845 56.1725 68.7103 54.5439 68.7103 54.5439L70.4303 50.7084L67.539 49.9266L63.8628 51.0713C63.8628 51.1392 63.0013 54.6117 63.0013 54.6117C63.2108 54.6615 63.4311 54.6332 63.6212 54.5322C63.8112 54.4312 63.958 54.2644 64.034 54.063C64.2207 53.6427 64.4376 53.2364 64.683 52.8474L64.9574 54.4141L63.91 54.7711C63.8761 54.9356 63.9028 55.1069 63.9852 55.2533C64.0677 55.3997 64.2002 55.5113 64.3585 55.5677L65.0489 55.5559Z" fill="#FFBE9D"/>
<path d="M66.347 28.6399L71.165 37.5086L67.244 49.1477L71.6016 51.6053L77.1453 38.6533C77.3479 38.1783 77.4484 37.6659 77.4403 37.1495C77.4322 36.6331 77.3156 36.1242 77.0981 35.6558L70.3123 21.0545L66.347 28.6399Z" fill="#455A64"/>
<path d="M67.2439 49.1477L66.8368 50.0505L70.9496 52.2692L71.3803 51.4785L67.2439 49.1477Z" fill="#E0E0E0"/>
<path d="M67.244 49.1477C67.244 49.1477 67.244 49.1271 67.244 49.0887C67.244 49.0504 67.2734 48.9884 67.2941 48.9176L67.5036 48.2597C67.6954 47.6696 67.9668 46.8465 68.3031 45.8138C68.9994 43.725 69.9701 40.8159 71.0794 37.485V37.547C70.5188 36.594 69.9406 35.5879 69.3593 34.5494C68.2972 32.6523 67.3236 30.8231 66.4887 29.1326C66.0756 28.2858 65.6921 27.4774 65.3675 26.7015C65.0487 25.9795 64.9109 25.1905 64.9663 24.4032C64.9923 23.7558 65.1373 23.1187 65.3941 22.5238C65.5969 22.0776 65.8868 21.6764 66.2467 21.3437C66.4727 21.1334 66.7319 20.9619 67.0138 20.8362C67.1086 20.7909 67.2074 20.7544 67.3089 20.7271C66.9294 20.8833 66.5815 21.1072 66.2821 21.3879C65.9343 21.7227 65.6574 22.1241 65.4678 22.5681C65.2234 23.1554 65.0875 23.7821 65.0666 24.4179C65.0214 25.1874 65.1621 25.9565 65.4767 26.6602C65.8071 27.4302 66.1936 28.2357 66.6096 29.0795C67.4475 30.7641 68.427 32.5874 69.4892 34.4816C70.0792 35.5201 70.6427 36.5261 71.2004 37.4791L71.2181 37.5086V37.5411C70.0851 40.8661 69.0997 43.7692 68.3887 45.8522L67.5744 48.2774C67.4741 48.5517 67.3974 48.7671 67.3413 48.9264L67.2764 49.0946C67.267 49.1132 67.2562 49.1309 67.244 49.1477Z" fill="#263238"/>
<path d="M74.4222 37.426C74.2601 37.381 74.1014 37.3248 73.9472 37.2578C73.1832 37.0044 72.354 37.0305 71.6076 37.3316C71.4581 37.4086 71.3033 37.4746 71.1443 37.5293C71.2593 37.3999 71.4027 37.2989 71.5633 37.2342C71.9387 37.0506 72.3493 36.9499 72.767 36.9392C73.1847 36.9246 73.6004 37.0011 73.9855 37.1634C74.1492 37.2165 74.2986 37.3063 74.4222 37.426Z" fill="#263238"/>
<path d="M65.3823 26.5303L68.8431 38.1134L69.3328 34.3045L65.3823 26.5303Z" fill="#263238"/>
<path d="M71.1148 49.2893C71.1148 49.31 71.0705 49.3483 71.0676 49.4339C71.0646 49.5195 71.1178 49.6198 71.2358 49.5844C71.2581 49.5787 71.2785 49.5672 71.2948 49.551C71.3112 49.5349 71.323 49.5146 71.329 49.4924C71.335 49.4702 71.335 49.4468 71.329 49.4246C71.323 49.4024 71.3112 49.3822 71.2948 49.366C71.2446 49.2982 71.1797 49.2923 71.1768 49.2716C71.1738 49.251 71.2564 49.2067 71.3715 49.2893C71.4041 49.3147 71.4303 49.3474 71.4477 49.3849C71.4652 49.4223 71.4734 49.4634 71.4718 49.5047C71.4663 49.5579 71.4448 49.6081 71.41 49.6487C71.3752 49.6893 71.3288 49.7183 71.2771 49.7319C71.2249 49.751 71.168 49.7528 71.1148 49.7368C71.0616 49.7208 71.015 49.6881 70.982 49.6434C70.9594 49.6095 70.9449 49.5708 70.9398 49.5303C70.9346 49.4899 70.939 49.4488 70.9525 49.4103C70.9968 49.2746 71.1148 49.2746 71.1148 49.2893Z" fill="#263238"/>
<path d="M71.4482 48.4544C71.4482 48.475 71.4039 48.5134 71.401 48.6019C71.397 48.6242 71.3988 48.6472 71.4062 48.6686C71.4136 48.69 71.4264 48.7092 71.4433 48.7243C71.4602 48.7394 71.4807 48.7499 71.5028 48.7548C71.5249 48.7597 71.548 48.7589 71.5697 48.7524C71.5914 48.7459 71.6111 48.734 71.6269 48.7178C71.6427 48.7015 71.6541 48.6815 71.6599 48.6596C71.6658 48.6377 71.666 48.6146 71.6604 48.5927C71.6548 48.5707 71.6437 48.5505 71.6282 48.534C71.578 48.4632 71.5102 48.4603 71.5072 48.4367C71.5043 48.4131 71.5898 48.3718 71.7049 48.4544C71.7372 48.48 71.7631 48.5128 71.7805 48.5502C71.7979 48.5876 71.8063 48.6285 71.8052 48.6697C71.804 48.7076 71.7947 48.7447 71.7779 48.7786C71.761 48.8125 71.737 48.8424 71.7076 48.8661C71.6781 48.8899 71.6439 48.907 71.6072 48.9163C71.5705 48.9256 71.5322 48.9268 71.495 48.92C71.4578 48.9131 71.4225 48.8982 71.3915 48.8764C71.3606 48.8546 71.3347 48.8264 71.3157 48.7936C71.2967 48.7609 71.285 48.7245 71.2813 48.6868C71.2777 48.6491 71.2823 48.6111 71.2948 48.5753C71.3449 48.4426 71.4482 48.4337 71.4482 48.4544Z" fill="#263238"/>
<path d="M76.1835 33.6997C75.6672 33.9711 75.4872 34.7323 75.5462 35.3135C75.6052 35.8948 75.8206 36.4583 75.8058 37.0395C75.7673 37.4551 75.6933 37.8667 75.5846 38.2698C75.4734 38.6742 75.4858 39.1027 75.62 39.5001C75.6915 39.6965 75.8262 39.8635 76.003 39.9751C76.1797 40.0867 76.3885 40.1365 76.5965 40.1167L77.0066 39.2906C77.3261 38.6439 77.4874 37.9306 77.4771 37.2094C77.4669 36.4882 77.2854 35.7797 76.9476 35.1424L76.1835 33.6997Z" fill="#263238"/>
</svg>
